<svg width="46" height="42" viewBox="0 0 46 42" fill="none" xmlns="http://www.w3.org/2000/svg">
<path d="M22.9024 11.6846C24.379 11.6846 25.794 10.9404 26.8868 9.58985C27.8848 8.35645 28.4571 6.80078 28.4571 5.32031C28.4571 2.33789 26.0694 0.0888672 22.9024 0.0888672C19.7354 0.0888672 17.3477 2.33496 17.3477 5.32031C17.3477 6.80078 17.92 8.35645 18.918 9.58985C20.0108 10.9414 21.4258 11.6846 22.9024 11.6846ZM22.9024 1.7002C25.1875 1.7002 26.8457 3.22266 26.8457 5.32031C26.8457 7.95703 24.6885 10.0732 22.9024 10.0732C20.7178 10.0732 18.959 7.47266 18.959 5.32031C18.959 3.22656 20.6172 1.7002 22.9024 1.7002ZM16.3291 19.417L15.7637 27.4824C15.7563 27.588 15.7697 27.694 15.8032 27.7943C15.8367 27.8947 15.8897 27.9874 15.9591 28.0673C16.0284 28.1472 16.1129 28.2127 16.2075 28.2599C16.3022 28.3072 16.4052 28.3353 16.5108 28.3428H16.5674C16.7712 28.3426 16.9674 28.2652 17.1165 28.1262C17.2656 27.9873 17.3566 27.797 17.3711 27.5938L17.9366 19.5352C17.944 19.4296 17.9306 19.3236 17.8971 19.2233C17.8635 19.1229 17.8106 19.0301 17.7412 18.9503C17.6718 18.8704 17.5874 18.8049 17.4928 18.7577C17.3981 18.7104 17.295 18.6822 17.1895 18.6748C17.084 18.6674 16.978 18.6808 16.8776 18.7143C16.7773 18.7478 16.6845 18.8008 16.6046 18.8702C16.5247 18.9395 16.4593 19.024 16.412 19.1186C16.3647 19.2133 16.3366 19.3163 16.3291 19.4219V19.417Z" fill="white"/>
<path d="M33.8293 28.3418C34.0479 28.3224 34.2499 28.2172 34.391 28.0492C34.5322 27.8811 34.6009 27.664 34.5822 27.4453C34.5822 27.4453 33.7307 21.3389 33.6057 19.29C33.3742 15.6113 31.1272 12.6602 27.6164 12.123C26.382 11.9336 24.1399 11.791 22.968 11.79C21.3683 11.8178 19.7711 11.9283 18.1828 12.1211C16.5362 12.3465 15.0281 13.1641 13.9406 14.4209C12.7981 15.7402 12.2873 17.4268 12.1828 19.2939C12.0656 21.3447 11.2893 27.4541 11.2893 27.4541C11.2762 27.56 11.2843 27.6675 11.3131 27.7702C11.3419 27.873 11.3908 27.969 11.457 28.0527C11.5232 28.1364 11.6054 28.2061 11.6988 28.2578C11.7922 28.3095 11.8949 28.3421 12.001 28.3537C12.1071 28.3653 12.2144 28.3558 12.3168 28.3256C12.4191 28.2954 12.5145 28.2452 12.5973 28.1779C12.68 28.1105 12.7486 28.0274 12.799 27.9333C12.8494 27.8393 12.8806 27.7361 12.8908 27.6299C12.8908 27.6299 13.6789 21.4541 13.7912 19.3828C13.9514 16.4473 15.6887 14.0879 18.4026 13.7188C19.9173 13.5348 21.4404 13.4292 22.966 13.4023C24.0578 13.4023 26.2248 13.541 27.3713 13.7168C28.6318 13.9076 29.7843 14.5378 30.6252 15.4961C31.5197 16.5234 31.9074 17.9033 31.9924 19.3877C32.1164 21.4619 32.9817 27.6387 32.9817 27.6387C33.013 27.839 33.1164 28.0211 33.2725 28.1506C33.4286 28.28 33.6266 28.348 33.8293 28.3418Z" fill="white"/>
<path d="M28.5918 18.67C28.4857 18.6773 28.3821 18.7055 28.287 18.753C28.1919 18.8005 28.1071 18.8664 28.0376 18.9468C27.9681 19.0273 27.9151 19.1207 27.8819 19.2216C27.8486 19.3226 27.8356 19.4292 27.8437 19.5352L28.4102 27.5997C28.4242 27.803 28.5149 27.9935 28.6639 28.1327C28.8128 28.2719 29.009 28.3494 29.2129 28.3497H29.2705C29.4836 28.3344 29.6819 28.2353 29.8219 28.074C29.962 27.9127 30.0323 27.7024 30.0176 27.4893L29.4512 19.4239C29.4443 19.3179 29.4167 19.2143 29.3698 19.1191C29.3229 19.0238 29.2576 18.9387 29.1778 18.8687C29.098 18.7987 29.0052 18.7451 28.9046 18.711C28.804 18.6769 28.6977 18.663 28.5918 18.67ZM28.043 35.6368L31.918 31.8594C32.0256 31.7545 32.1017 31.6216 32.1377 31.4757C32.1737 31.3298 32.1681 31.1767 32.1217 31.0338C32.0753 30.8908 31.9898 30.7637 31.8749 30.6668C31.7601 30.5699 31.6204 30.5071 31.4717 30.4854L26.1172 29.7042L23.7227 24.8555C23.6562 24.7206 23.5532 24.607 23.4255 24.5276C23.2978 24.4481 23.1504 24.406 23 24.406C22.8496 24.406 22.7022 24.4481 22.5745 24.5276C22.4468 24.607 22.3438 24.7206 22.2773 24.8555L19.8828 29.7071L14.5283 30.4883C14.3796 30.51 14.2399 30.5729 14.125 30.6698C14.0102 30.7667 13.9247 30.8938 13.8783 31.0367C13.8318 31.1796 13.8263 31.3327 13.8623 31.4786C13.8983 31.6245 13.9744 31.7574 14.082 31.8624L17.957 35.6397L17.043 40.9688C17.0171 41.1174 17.0334 41.2703 17.0902 41.41C17.1469 41.5497 17.2417 41.6708 17.3638 41.7593C17.4859 41.8478 17.6304 41.9003 17.7808 41.9107C17.9313 41.9212 18.0817 41.8892 18.2148 41.8184L23 39.3008L27.7852 41.8184C27.9009 41.879 28.0295 41.9108 28.1602 41.9112C28.2775 41.911 28.3933 41.8853 28.4997 41.8357C28.606 41.7861 28.7003 41.714 28.7759 41.6243C28.8514 41.5346 28.9065 41.4294 28.9373 41.3162C28.9681 41.203 28.9738 41.0845 28.9541 40.9688L28.043 35.6368ZM22.625 37.6778C21.6894 38.1544 18.9062 39.6309 18.9062 39.6309L19.6162 35.4893C19.6383 35.3606 19.6288 35.2285 19.5884 35.1043C19.5481 34.9801 19.4782 34.8676 19.3848 34.7764L16.376 31.8467L20.5342 31.2422C20.6634 31.2234 20.786 31.1735 20.8917 31.0967C20.9973 31.02 21.0827 30.9188 21.1406 30.8018L22.9961 27.0333L24.8516 30.8018C24.9095 30.9188 24.9949 31.02 25.1005 31.0967C25.2062 31.1735 25.3288 31.2234 25.458 31.2422L29.6162 31.8467L26.6074 34.7764C26.514 34.8676 26.4441 34.9801 26.4037 35.1043C26.3634 35.2285 26.3539 35.3606 26.376 35.4893L27.0859 39.6309C27.0859 39.6309 24.3027 38.1524 23.3672 37.6778C23.2532 37.6163 23.1256 37.584 22.9961 37.584C22.8665 37.584 22.739 37.6163 22.625 37.6778ZM45.1318 32.9346L41.2168 32.3653L39.4658 28.8184C39.3995 28.6835 39.2967 28.5698 39.169 28.4903C39.0414 28.4108 38.894 28.3687 38.7436 28.3687C38.5933 28.3687 38.4459 28.4108 38.3183 28.4903C38.1906 28.5698 38.0878 28.6835 38.0215 28.8184L36.2705 32.3653L32.3555 32.9346C32.2068 32.9563 32.0671 33.0191 31.9522 33.1161C31.8373 33.213 31.7519 33.34 31.7054 33.483C31.659 33.6259 31.6535 33.779 31.6895 33.9249C31.7255 34.0708 31.8016 34.2037 31.9092 34.3087L34.7412 37.0704L34.0723 40.9688C34.0464 41.1174 34.0627 41.2703 34.1195 41.41C34.1762 41.5497 34.271 41.6708 34.3931 41.7593C34.5152 41.8478 34.6597 41.9003 34.8101 41.9107C34.9606 41.9212 35.111 41.8892 35.2441 41.8184L38.7451 39.9776L42.2471 41.8184C42.3628 41.879 42.4914 41.9108 42.6221 41.9112C42.7394 41.911 42.8553 41.8853 42.9616 41.8357C43.0679 41.7861 43.1622 41.714 43.2378 41.6243C43.3134 41.5346 43.3685 41.4294 43.3993 41.3162C43.43 41.203 43.4358 41.0845 43.416 40.9688L42.7471 37.0704L45.5791 34.3087C45.6867 34.2037 45.7628 34.0708 45.7988 33.9249C45.8348 33.779 45.8293 33.6259 45.7829 33.483C45.7364 33.34 45.6509 33.213 45.5361 33.1161C45.4212 33.0191 45.2815 32.9563 45.1328 32.9346H45.1318ZM38.3691 38.3546C37.7549 38.6631 35.9365 39.6329 35.9365 39.6329L36.4014 36.9249C36.4234 36.7962 36.4139 36.6641 36.3736 36.5399C36.3333 36.4157 36.2634 36.3032 36.1699 36.212L34.2021 34.294L36.9209 33.9034C37.0503 33.8847 37.1731 33.8347 37.2788 33.7578C37.3844 33.6808 37.4698 33.5793 37.5273 33.462L38.7432 30.9991L39.959 33.462C40.0169 33.5792 40.1025 33.6807 40.2083 33.7576C40.3141 33.8344 40.437 33.8845 40.5664 33.9034L43.2842 34.294L41.3174 36.212C41.2238 36.3031 41.1538 36.4156 41.1135 36.5398C41.0731 36.664 41.0637 36.7962 41.0859 36.9249L41.5547 39.6329C41.5547 39.6329 39.7373 38.6631 39.123 38.3546C39.0072 38.2922 38.8777 38.2595 38.7461 38.2595C38.6145 38.2595 38.485 38.2922 38.3691 38.3546ZM13.6445 32.9346L9.72949 32.3653L7.97851 28.8184C7.91218 28.6835 7.80936 28.5698 7.68172 28.4903C7.55408 28.4108 7.40671 28.3687 7.25634 28.3687C7.10597 28.3687 6.95861 28.4108 6.83097 28.4903C6.70332 28.5698 6.6005 28.6835 6.53417 28.8184L4.7832 32.3653L0.868158 32.9346C0.719446 32.9563 0.579762 33.0191 0.464891 33.1161C0.35002 33.213 0.264542 33.34 0.218117 33.483C0.171692 33.6259 0.16617 33.779 0.202176 33.9249C0.238181 34.0708 0.314279 34.2037 0.421869 34.3087L3.2539 37.0704L2.58984 40.9688C2.56397 41.1174 2.58032 41.2703 2.63704 41.41C2.69375 41.5497 2.78856 41.6708 2.91066 41.7593C3.03276 41.8478 3.17726 41.9003 3.32772 41.9107C3.47817 41.9212 3.62854 41.8892 3.76171 41.8184L7.26367 39.9776L10.7646 41.8184C10.8804 41.879 11.009 41.9108 11.1396 41.9112C11.257 41.911 11.3728 41.8853 11.4792 41.8357C11.5855 41.7861 11.6798 41.714 11.7553 41.6243C11.8309 41.5346 11.886 41.4294 11.9168 41.3162C11.9476 41.203 11.9533 41.0845 11.9336 40.9688L11.2646 37.0704L14.0967 34.3087C14.2043 34.2037 14.2804 34.0708 14.3164 33.9249C14.3524 33.779 14.3469 33.6259 14.3004 33.483C14.254 33.34 14.1685 33.213 14.0537 33.1161C13.9388 33.0191 13.7991 32.9563 13.6504 32.9346H13.6445ZM6.88671 38.3546L4.45019 39.6329L4.91406 36.9249C4.9363 36.7962 4.92685 36.664 4.88652 36.5398C4.8462 36.4156 4.77621 36.3031 4.68261 36.212L2.71581 34.294L5.43359 33.9034C5.56301 33.8845 5.68591 33.8344 5.79172 33.7576C5.89752 33.6807 5.98307 33.5792 6.04101 33.462L7.25683 30.9991L8.47265 33.462C8.53022 33.5793 8.61555 33.6808 8.72122 33.7578C8.8269 33.8347 8.94974 33.8847 9.0791 33.9034L11.7978 34.294L9.83007 36.212C9.73662 36.3032 9.66672 36.4157 9.6264 36.5399C9.58608 36.6641 9.57655 36.7962 9.59863 36.9249L10.0635 39.6329L7.63085 38.3546C7.51885 38.286 7.39009 38.2498 7.25878 38.2498C7.12748 38.2498 6.99872 38.286 6.88671 38.3546Z" fill="white"/>
</svg>
