<svg width="50" height="50" viewBox="0 0 50 50" fill="none" xmlns="http://www.w3.org/2000/svg">
<path d="M0 0H41.0398C43.4162 0 45.6952 0.944021 47.3756 2.62439C49.056 4.30476 50 6.58383 50 8.96023V50H8.96023C6.58383 50 4.30476 49.056 2.62439 47.3756C0.944021 45.6952 0 43.4162 0 41.0398V0Z" fill="#36261A"/>
<path d="M41.0398 2.27273C42.8127 2.27498 44.5124 2.98028 45.7661 4.23394C47.0197 5.4876 47.725 7.18728 47.7273 8.96023V47.7273H8.96023C7.18728 47.725 5.4876 47.0197 4.23394 45.7661C2.98028 44.5124 2.27498 42.8127 2.27273 41.0398V2.27273H41.0398ZM41.0398 0H0V41.0398C0 43.4162 0.944021 45.6952 2.62439 47.3756C4.30476 49.056 6.58383 50 8.96023 50H50V8.96023C50 6.58383 49.056 4.30476 47.3756 2.62439C45.6952 0.944021 43.4162 0 41.0398 0Z" fill="#FF7F18"/>
<path d="M24.9465 29.3408H19.0147L17.5317 33.8067C17.5147 33.9431 17.42 34.0112 17.2476 34.0112H14.5658C14.3954 34.0112 14.3357 33.926 14.3868 33.7556L19.705 18.5766C19.86 18.1192 19.9378 17.6391 19.9351 17.1561C19.9351 17.0539 19.9948 17.0027 20.1141 17.0027H23.8073C23.8499 17.003 23.8915 17.0151 23.9277 17.0377C23.9638 17.0603 23.9929 17.0924 24.0118 17.1306L29.9437 33.801C29.9948 33.9544 29.9437 34.0311 29.7903 34.0311H26.7618C26.7056 34.0328 26.6504 34.0162 26.6044 33.984C26.5583 33.9518 26.5239 33.9055 26.5062 33.8522L24.9465 29.3408ZM19.6795 26.8607H24.2817C24.2135 26.622 23.8594 25.5349 23.2192 23.5993C22.5791 21.6637 22.1577 20.338 21.955 19.622H21.9295C21.7249 20.4933 20.9749 22.9061 19.6795 26.8607ZM35.1738 18.9857C34.9699 19.1961 34.7168 19.3524 34.4374 19.4405C34.158 19.5286 33.861 19.5457 33.5733 19.4904C33.2856 19.435 33.0163 19.3088 32.7895 19.1233C32.5628 18.9377 32.3859 18.6986 32.2747 18.4276C32.1635 18.1565 32.1215 17.862 32.1526 17.5707C32.1837 17.2794 32.2868 17.0004 32.4528 16.7589C32.6187 16.5175 32.8421 16.3211 33.1029 16.1876C33.3637 16.0541 33.6536 15.9876 33.9465 15.9942C34.1736 15.9835 34.4003 16.0211 34.6118 16.1043C34.8234 16.1876 35.0149 16.3146 35.1738 16.4772C35.4869 16.8174 35.6524 17.2679 35.634 17.73C35.6459 17.9595 35.6113 18.1891 35.5322 18.4049C35.4531 18.6206 35.3312 18.8182 35.1738 18.9857ZM32.2846 33.7897V21.7726C32.2802 21.7448 32.2825 21.7163 32.2912 21.6894C32.2999 21.6626 32.3149 21.6383 32.3348 21.6183C32.3548 21.5984 32.3791 21.5834 32.4059 21.5747C32.4328 21.566 32.4613 21.5637 32.4891 21.5681H35.33C35.3578 21.5643 35.386 21.567 35.4125 21.576C35.4391 21.5849 35.4632 21.5999 35.483 21.6197C35.5028 21.6395 35.5177 21.6636 35.5267 21.6901C35.5356 21.7166 35.5383 21.7449 35.5346 21.7726V33.8067C35.5383 33.8344 35.5356 33.8627 35.5267 33.8892C35.5177 33.9157 35.5028 33.9398 35.483 33.9596C35.4632 33.9794 35.4391 33.9944 35.4125 34.0033C35.386 34.0123 35.3578 34.015 35.33 34.0112H32.5175C32.4869 34.0157 32.4556 34.0131 32.4261 34.0037C32.3967 33.9943 32.3697 33.9784 32.3472 33.957C32.3248 33.9357 32.3075 33.9095 32.2967 33.8805C32.2858 33.8516 32.2817 33.8205 32.2846 33.7897Z" fill="#FF7F18"/>
</svg>
