<svg width="38" height="56" viewBox="0 0 38 56" fill="none" xmlns="http://www.w3.org/2000/svg">
<path d="M19.0664 27.8555C19.0664 22.7275 23.3048 18.5704 28.5332 18.5704C33.7615 18.5704 37.9999 22.7276 37.9999 27.8555C37.9999 32.9836 33.7614 37.1406 28.5332 37.1406C23.3047 37.1406 19.0664 32.9835 19.0664 27.8555Z" fill="#00BCFF"/>
<path d="M0.132812 46.4255C0.132812 41.2976 4.37123 37.1405 9.59956 37.1405L14.6445 34.5281L19.0663 37.1405V46.4255C19.0663 51.5536 14.8279 55.7106 9.59956 55.7106C4.37123 55.7106 0.132812 51.5535 0.132812 46.4255Z" fill="#00CF7F"/>
<path d="M19.0664 0L13.915 8.77768L19.0664 18.5701H28.4003C33.6288 18.5701 37.8671 14.413 37.8671 9.28506C37.8671 4.15708 33.6287 0 28.4003 0H19.0664Z" fill="#FF7361"/>
<path d="M0 9.28506C0 14.413 4.23842 18.5701 9.46675 18.5701L14.4886 20.4725L19.0663 18.5701V0H9.46663C4.23842 0 0 4.15708 0 9.28506Z" fill="#FF4D12"/>
<path d="M0.132812 27.8554C0.132812 32.9835 4.37123 37.1404 9.59956 37.1404H19.0663V18.5702H9.59956C4.37123 18.5702 0.132812 22.7274 0.132812 27.8554Z" fill="#B659FF"/>
</svg>
