<svg width="50" height="50" viewBox="0 0 50 50" fill="none" xmlns="http://www.w3.org/2000/svg">
<path d="M0 0H41.0398C43.4162 0 45.6952 0.944021 47.3756 2.62439C49.056 4.30476 50 6.58383 50 8.96023V50H8.96023C6.58383 50 4.30476 49.056 2.62439 47.3756C0.944021 45.6952 0 43.4162 0 41.0398V0Z" fill="#002732"/>
<path d="M41.0398 2.27273C42.8127 2.27498 44.5124 2.98028 45.7661 4.23394C47.0197 5.4876 47.725 7.18728 47.7273 8.96023V47.7273H8.96023C7.18728 47.725 5.4876 47.0197 4.23394 45.7661C2.98028 44.5124 2.27498 42.8127 2.27273 41.0398V2.27273H41.0398ZM41.0398 0H0V41.0398C0 43.4162 0.944021 45.6952 2.62439 47.3756C4.30476 49.056 6.58383 50 8.96023 50H50V8.96023C50 6.58383 49.056 4.30476 47.3756 2.62439C45.6952 0.944021 43.4162 0 41.0398 0Z" fill="#00D4FF"/>
<path d="M13.6987 33.2388V16.5626C13.6954 16.5384 13.6978 16.5136 13.7056 16.4904C13.7135 16.4672 13.7265 16.4461 13.7439 16.4288C13.7612 16.4115 13.7823 16.3984 13.8055 16.3906C13.8287 16.3827 13.8534 16.3804 13.8777 16.3837C15.1731 16.3496 16.818 16.3325 18.8123 16.3325C21.1646 16.3325 22.8909 16.8609 23.9913 17.9177C24.5251 18.4176 24.9477 19.0243 25.2316 19.6983C25.5155 20.3723 25.6543 21.0985 25.639 21.8297C25.639 23.7539 24.9572 25.1895 23.5936 26.1365C22.23 27.0835 20.5207 27.5484 18.4657 27.5314H16.9459V33.2132C16.9496 33.2409 16.9469 33.2692 16.938 33.2957C16.929 33.3222 16.914 33.3463 16.8942 33.3661C16.8744 33.3859 16.8503 33.4009 16.8238 33.4098C16.7973 33.4188 16.7691 33.4215 16.7413 33.4177H13.9004C13.7659 33.414 13.6987 33.3543 13.6987 33.2388ZM16.9459 18.7871V25.0768C17.4986 25.1229 18.0533 25.14 18.6078 25.128C19.7442 25.128 20.6693 24.8761 21.3834 24.3723C22.0974 23.8685 22.4506 23.0465 22.443 21.9064C22.443 20.9007 22.1324 20.1251 21.5112 19.5797C20.89 19.0342 19.9904 18.7577 18.8123 18.7501H17.2697L16.9459 18.7871ZM35.3294 23.9007C34.4375 23.3249 33.3995 23.0164 32.3379 23.0115C31.874 22.975 31.4109 23.0917 31.0197 23.3439C30.8918 23.4331 30.7869 23.5516 30.7138 23.6894C30.6407 23.8272 30.6014 23.9805 30.5993 24.1365C30.6015 24.2881 30.6352 24.4377 30.6983 24.5756C30.7614 24.7135 30.8525 24.8368 30.9657 24.9376C31.4211 25.2865 31.9308 25.5581 32.4743 25.7416C33.889 26.2871 34.8815 26.8628 35.4515 27.4689C36.033 28.1053 36.3393 28.9457 36.3038 29.8069C36.3207 30.3448 36.2101 30.8789 35.981 31.3658C35.7519 31.8526 35.4108 32.2783 34.9856 32.6081C34.1068 33.3145 32.9184 33.6677 31.4203 33.6677C29.9222 33.6677 28.6911 33.395 27.7271 32.8496C27.676 32.8311 27.6328 32.7956 27.6049 32.749C27.5769 32.7025 27.5659 32.6476 27.5737 32.5939V30.216C27.5705 30.1893 27.5746 30.1623 27.5856 30.1377C27.5966 30.1132 27.6141 30.0922 27.6362 30.0768C27.6523 30.0627 27.673 30.0548 27.6944 30.0548C27.7159 30.0548 27.7366 30.0627 27.7527 30.0768C28.7709 30.8642 30.0195 31.2954 31.3067 31.3041C31.7835 31.3344 32.2587 31.2238 32.6731 30.9859C32.8176 30.9002 32.9373 30.7784 33.0205 30.6325C33.1036 30.4866 33.1474 30.3215 33.1476 30.1535C33.1507 29.984 33.1181 29.8158 33.0521 29.6597C32.986 29.5036 32.8879 29.3631 32.764 29.2473C32.3132 28.8907 31.8024 28.6175 31.2555 28.4405C29.8919 27.9121 28.9449 27.3439 28.4146 26.7359C27.8676 26.1013 27.5805 25.2835 27.6106 24.4462C27.6026 23.9418 27.7062 23.4418 27.914 22.9822C28.1217 22.5225 28.4285 22.1144 28.8123 21.7871C29.6116 21.0882 30.7527 20.7388 32.2356 20.7388C33.6163 20.7388 34.6817 20.9282 35.4317 21.307C35.5169 21.3581 35.5595 21.4689 35.5595 21.6393V23.7615C35.5595 23.9566 35.4828 24.003 35.3294 23.9007Z" fill="#00D4FF"/>
</svg>
