<svg width="60" height="61" viewBox="0 0 60 61" fill="none" xmlns="http://www.w3.org/2000/svg">
<g clip-path="url(#clip0_591_15418)">
<path d="M29.8317 55.8944C29.5961 55.8943 29.3698 55.8023 29.2008 55.638C29.0319 55.4738 28.9336 55.2501 28.9268 55.0146C28.9234 54.8957 28.9435 54.7774 28.9859 54.6663C29.0283 54.5552 29.0921 54.4536 29.1737 54.3671C29.2554 54.2807 29.3533 54.2112 29.4618 54.1627C29.5703 54.1141 29.6873 54.0873 29.8062 54.084C30.3069 54.0611 30.7276 54.4488 30.7495 54.9487C30.772 55.4482 30.3839 55.8711 29.884 55.893L29.8579 55.894C29.8492 55.8944 29.8405 55.8944 29.8317 55.8944ZM26.1907 55.758C26.155 55.758 26.1198 55.7563 26.0836 55.7522L26.0813 55.7516C25.5837 55.7018 25.2235 55.2586 25.2734 54.7605C25.3233 54.2629 25.77 53.9008 26.2671 53.9503L26.2951 53.9531C26.7918 54.0117 27.1471 54.4617 27.0885 54.9583C27.0627 55.1784 26.9571 55.3815 26.7916 55.5289C26.6262 55.6763 26.4123 55.7578 26.1907 55.758ZM33.4646 55.4788C33.255 55.4785 33.052 55.4056 32.8902 55.2724C32.7284 55.1391 32.6178 54.9539 32.5774 54.7482C32.5544 54.6316 32.5546 54.5115 32.5779 54.3949C32.6013 54.2783 32.6474 54.1675 32.7137 54.0687C32.7799 53.97 32.8649 53.8852 32.9639 53.8194C33.0629 53.7535 33.174 53.7078 33.2906 53.6849L33.3075 53.6816C33.4243 53.6593 33.5444 53.6602 33.6609 53.6843C33.7773 53.7083 33.8879 53.7551 33.9863 53.822C34.0846 53.8888 34.1689 53.9743 34.2342 54.0737C34.2995 54.1731 34.3446 54.2844 34.3669 54.4012C34.412 54.6371 34.3615 54.8812 34.2267 55.0798C34.0918 55.2785 33.8835 55.4155 33.6477 55.4606L33.6408 55.4618C33.5827 55.473 33.5237 55.4787 33.4646 55.4788ZM22.5982 55.0681C22.5195 55.0681 22.4393 55.0576 22.3592 55.0361L22.3542 55.0347C21.8713 54.9062 21.5829 54.4104 21.711 53.9274C21.7724 53.6954 21.9235 53.4973 22.131 53.3766C22.3385 53.2559 22.5854 53.2225 22.8175 53.2838L22.8362 53.2889C22.9509 53.3202 23.0584 53.3738 23.1524 53.4466C23.2464 53.5194 23.3251 53.61 23.384 53.7133C23.443 53.8165 23.481 53.9304 23.496 54.0483C23.5109 54.1663 23.5025 54.2861 23.4711 54.4008C23.4189 54.5923 23.3052 54.7614 23.1474 54.882C22.9897 55.0026 22.7968 55.068 22.5982 55.0681ZM36.9931 54.5115C36.8071 54.5116 36.6257 54.4544 36.4733 54.3478C36.321 54.2411 36.2052 54.0902 36.1416 53.9155C36.0596 53.6898 36.0706 53.4408 36.1722 53.2232C36.2737 53.0056 36.4575 52.8372 36.6831 52.7551L36.6983 52.7501C37.1683 52.5812 37.687 52.8251 37.8564 53.2957C38.0257 53.7663 37.7808 54.285 37.3103 54.4543L37.3024 54.4571C37.2033 54.4931 37.0986 54.5115 36.9931 54.5115ZM19.1494 53.8331C19.022 53.8331 18.896 53.8058 18.78 53.7531L18.7676 53.7476C18.6593 53.6985 18.5617 53.6285 18.4805 53.5417C18.3992 53.4549 18.3358 53.353 18.294 53.2417C18.2521 53.1304 18.2326 53.0119 18.2365 52.8931C18.2404 52.7743 18.2677 52.6574 18.3168 52.5491C18.3659 52.4408 18.4358 52.3432 18.5226 52.262C18.6094 52.1807 18.7113 52.1173 18.8226 52.0754C18.9339 52.0336 19.0523 52.0141 19.1711 52.018C19.29 52.0219 19.4068 52.0492 19.5151 52.0983C19.971 52.3042 20.1784 52.8425 19.9729 53.2985C19.9017 53.4575 19.7861 53.5925 19.64 53.6873C19.4939 53.7822 19.3236 53.8328 19.1494 53.8331ZM40.3283 53.0151C40.1641 53.0153 40.0029 52.9708 39.862 52.8864C39.7211 52.802 39.6058 52.6808 39.5285 52.5358C39.4725 52.4309 39.4377 52.316 39.4261 52.1976C39.4145 52.0792 39.4263 51.9597 39.4609 51.8459C39.4956 51.7321 39.5522 51.6262 39.6278 51.5344C39.7033 51.4425 39.7962 51.3664 39.9012 51.3104C40.1117 51.1948 40.3595 51.1674 40.5901 51.2344C40.8207 51.3013 41.0153 51.4571 41.1312 51.6675C41.372 52.1055 41.2126 52.6562 40.7741 52.897L40.7536 52.9085C40.6227 52.9785 40.4767 53.0151 40.3283 53.0151ZM48.552 44.921L48.5579 44.9251L48.4623 44.8569L48.552 44.921ZM6.75459 40.9741C6.57434 40.9741 6.3982 40.9203 6.24864 40.8197C6.09909 40.7191 5.98291 40.5762 5.91494 40.4093L5.9126 40.4028C5.72181 39.9405 5.94189 39.4108 6.40385 39.2204C6.86627 39.0295 7.39584 39.2497 7.58627 39.7115L7.59271 39.7276C7.78138 40.1908 7.55791 40.7191 7.09467 40.9073C6.98334 40.9525 6.86756 40.9741 6.75459 40.9741ZM51.6995 39.2365C51.5568 39.2364 51.4161 39.2027 51.289 39.138C51.1618 39.0734 51.0517 38.9795 50.9676 38.8643C50.8835 38.749 50.8279 38.6154 50.8052 38.4745C50.7825 38.3337 50.7934 38.1894 50.837 38.0536C50.985 37.5779 51.4895 37.3092 51.966 37.4539C52.4444 37.5995 52.7145 38.1035 52.5699 38.5813L52.5584 38.6171C52.4983 38.7974 52.3831 38.9542 52.229 39.0654C52.0748 39.1765 51.8896 39.2364 51.6996 39.2365H51.6995ZM5.64728 37.4881C5.44379 37.4879 5.24631 37.4192 5.08664 37.293C4.92697 37.1669 4.81441 36.9907 4.76709 36.7927L4.76427 36.7809C4.70854 36.5473 4.74788 36.301 4.87365 36.0964C4.99941 35.8917 5.20131 35.7454 5.43494 35.6895C5.5506 35.6619 5.67058 35.6573 5.78801 35.6761C5.90545 35.6948 6.01803 35.7365 6.11934 35.7988C6.22064 35.8611 6.30868 35.9427 6.37841 36.0391C6.44814 36.1354 6.4982 36.2445 6.52572 36.3602L6.52853 36.372C6.5843 36.6056 6.54503 36.8517 6.41934 37.0563C6.29366 37.2609 6.09186 37.4071 5.85834 37.4629C5.78925 37.4796 5.71834 37.488 5.64728 37.4881ZM52.5324 35.6749C52.4802 35.6749 52.4276 35.6703 52.374 35.6607C52.1393 35.6193 51.9304 35.487 51.7926 35.2926C51.6548 35.0982 51.5992 34.8572 51.6379 34.6221C51.7139 34.1299 52.1731 33.7903 52.6656 33.8627C53.16 33.9358 53.502 34.394 53.4292 34.8889L53.4232 34.9264C53.3862 35.1359 53.2767 35.3257 53.1138 35.4625C52.9509 35.5994 52.7451 35.6746 52.5324 35.6749ZM5.0883 33.8718C4.62365 33.8718 4.22861 33.5176 4.18736 33.0465L4.18467 33.009C4.17064 32.7692 4.25241 32.5337 4.412 32.3542C4.57158 32.1747 4.79592 32.0659 5.03568 32.0518C5.53045 32.0216 5.9576 32.3983 5.99193 32.8927C6.03177 33.3889 5.66369 33.8261 5.16693 33.8687C5.14078 33.8709 5.11454 33.8719 5.0883 33.8718ZM52.8096 32.028C52.6907 32.0281 52.573 32.0046 52.4631 31.9592C52.3532 31.9137 52.2534 31.847 52.1693 31.7629C52.0852 31.6788 52.0185 31.5789 51.9731 31.4691C51.9276 31.3592 51.9042 31.2414 51.9042 31.1225V31.0562C51.9029 30.9364 51.9253 30.8176 51.9702 30.7065C52.0151 30.5955 52.0815 30.4944 52.1658 30.4092C52.25 30.3241 52.3503 30.2564 52.4608 30.2103C52.5713 30.1641 52.6899 30.1404 52.8097 30.1404C52.9295 30.1404 53.0481 30.1641 53.1586 30.2103C53.2691 30.2564 53.3694 30.3241 53.4536 30.4092C53.5378 30.4944 53.6043 30.5955 53.6492 30.7065C53.6941 30.8176 53.7165 30.9364 53.7151 31.0562V31.0681C53.7151 31.0745 53.7151 31.0809 53.7147 31.0869C53.7151 31.0946 53.7151 31.1025 53.7151 31.1107V31.1225C53.7152 31.2414 53.6918 31.3592 53.6463 31.4691C53.6008 31.579 53.5341 31.6788 53.45 31.7629C53.3659 31.847 53.2661 31.9137 53.1562 31.9592C53.0463 32.0047 52.9286 32.0281 52.8096 32.028ZM5.08595 30.2163C5.05994 30.2163 5.03334 30.2148 5.00674 30.2126C4.76791 30.1919 4.54702 30.0774 4.39257 29.894C4.23811 29.7107 4.16271 29.4736 4.18291 29.2347C4.2176 28.7403 4.64052 28.3637 5.13916 28.3947C5.37886 28.4088 5.60317 28.5175 5.76274 28.6969C5.92231 28.8763 6.00408 29.1118 5.99006 29.3515L5.98689 29.389C5.9674 29.6146 5.86407 29.8247 5.69729 29.9778C5.53051 30.131 5.31239 30.2161 5.08595 30.2163ZM52.5254 28.3275C52.3127 28.3272 52.1069 28.2521 51.9441 28.1152C51.7813 27.9783 51.6719 27.7885 51.6351 27.579L51.6286 27.5415C51.5938 27.3038 51.6548 27.0621 51.7981 26.8694C51.9415 26.6767 52.1555 26.5488 52.3931 26.5138C52.8852 26.4411 53.3462 26.7821 53.4198 27.2755C53.4583 27.5105 53.4026 27.7512 53.2649 27.9454C53.1271 28.1397 52.9184 28.2719 52.6839 28.3133C52.6316 28.3227 52.5786 28.3275 52.5254 28.3275ZM5.63533 26.6008C5.56572 26.6008 5.4947 26.5926 5.42427 26.5756C5.191 26.52 4.98933 26.3741 4.8635 26.1699C4.73768 25.9657 4.69799 25.72 4.75314 25.4866C4.80485 25.2541 4.94607 25.0513 5.14622 24.9222C5.34637 24.7931 5.58933 24.748 5.82248 24.7967C6.31185 24.8993 6.62592 25.379 6.52326 25.8684L6.51506 25.9054C6.41627 26.3211 6.04502 26.6008 5.63533 26.6008ZM51.6946 24.7715C51.5035 24.771 51.3174 24.7105 51.1625 24.5985C51.0076 24.4866 50.8918 24.3289 50.8313 24.1476L50.8212 24.116C50.7861 24.0023 50.7738 23.8829 50.785 23.7645C50.7961 23.6461 50.8305 23.5311 50.8862 23.426C50.9418 23.3209 51.0176 23.2278 51.1093 23.152C51.201 23.0763 51.3067 23.0193 51.4204 22.9844C51.534 22.9494 51.6534 22.9371 51.7718 22.9482C51.8902 22.9594 52.0053 22.9938 52.1104 23.0494C52.2155 23.1051 52.3086 23.1809 52.3843 23.2725C52.4601 23.3642 52.5171 23.4699 52.5519 23.5836L52.5524 23.585C52.7104 24.0596 52.4527 24.5674 51.9779 24.7252C51.8867 24.756 51.7909 24.7717 51.6946 24.7715ZM6.73291 23.1095C6.58452 23.1094 6.43842 23.0729 6.30745 23.0032C6.17648 22.9334 6.06467 22.8325 5.98184 22.7094C5.89901 22.5863 5.84771 22.4447 5.83245 22.2971C5.81719 22.1495 5.83843 22.0004 5.89431 21.8629L5.89888 21.8519C5.9436 21.7417 6.00959 21.6414 6.09307 21.5567C6.17655 21.4721 6.2759 21.4046 6.38544 21.3584C6.49498 21.3121 6.61256 21.2878 6.73147 21.2869C6.85039 21.2861 6.96831 21.3087 7.07849 21.3534C7.30098 21.4438 7.47844 21.6189 7.57184 21.8401C7.66524 22.0614 7.66693 22.3107 7.57654 22.5331L7.57197 22.5445C7.50414 22.7114 7.38808 22.8543 7.23862 22.9549C7.08915 23.0556 6.91308 23.1093 6.73291 23.1093V23.1095ZM50.3212 21.38C50.154 21.38 49.9901 21.3339 49.8474 21.247C49.7046 21.16 49.5886 21.0355 49.5119 20.887L49.4981 20.8604C49.4457 20.7537 49.4147 20.6377 49.4071 20.519C49.3995 20.4003 49.4153 20.2812 49.4537 20.1687C49.4921 20.0561 49.5522 19.9522 49.6308 19.8629C49.7093 19.7736 49.8047 19.7006 49.9115 19.6482C50.3601 19.4277 50.9025 19.6126 51.1236 20.0612L51.1241 20.0629C51.3538 20.5071 51.1777 21.0499 50.7332 21.2793C50.6059 21.3455 50.4646 21.38 50.3212 21.38ZM8.35443 19.829C8.1883 19.8292 8.02537 19.7833 7.88381 19.6964C7.6793 19.5718 7.53253 19.3712 7.47564 19.1386C7.41875 18.906 7.45638 18.6603 7.58029 18.4554C7.70056 18.2501 7.89677 18.1004 8.12651 18.0386C8.35625 17.9769 8.60107 18.008 8.80806 18.1252C8.91451 18.1856 9.0076 18.267 9.08174 18.3644C9.15588 18.4617 9.20951 18.5731 9.23941 18.6918C9.26931 18.8105 9.27485 18.934 9.2557 19.0549C9.23655 19.1757 9.1931 19.2915 9.12799 19.3951C9.0472 19.5278 8.93358 19.6374 8.79809 19.7135C8.66259 19.7895 8.50979 19.8293 8.35443 19.829ZM48.4412 18.2388C48.2933 18.239 48.1477 18.2029 48.0169 18.1337C47.8862 18.0645 47.7745 17.9643 47.6915 17.8419C47.4008 17.435 47.4973 16.8733 47.9047 16.5826C48.3113 16.292 48.8797 16.3904 49.1704 16.7973L49.1897 16.8248C49.3245 17.0236 49.3749 17.2677 49.3297 17.5036C49.2846 17.7395 49.1476 17.9478 48.9489 18.0827C48.7992 18.1846 48.6223 18.239 48.4412 18.2388ZM10.4583 16.8357C10.2471 16.8359 10.0425 16.7621 9.8801 16.6271C9.69534 16.4736 9.57911 16.253 9.55698 16.0138C9.53485 15.7746 9.60863 15.5365 9.76209 15.3517L9.76982 15.3425C9.92393 15.1601 10.1439 15.0459 10.3818 15.0248C10.6196 15.0038 10.8562 15.0776 11.04 15.2301C11.2237 15.3827 11.3398 15.6016 11.3628 15.8393C11.3859 16.077 11.3142 16.3142 11.1632 16.4993L11.1554 16.5084C11.0706 16.611 10.9641 16.6936 10.8435 16.7502C10.723 16.8068 10.5915 16.836 10.4583 16.8357ZM46.1085 15.4217C45.9864 15.422 45.8656 15.3974 45.7533 15.3496C45.6411 15.3018 45.5397 15.2316 45.4553 15.1434C45.105 14.7863 45.1101 14.2118 45.4676 13.8617C45.8242 13.5119 46.3969 13.517 46.7466 13.874L46.7618 13.8892C46.8442 13.9749 46.9088 14.0761 46.9521 14.1869C46.9954 14.2977 47.0164 14.4159 47.0139 14.5348C47.0115 14.6537 46.9857 14.7709 46.9379 14.8799C46.8901 14.9888 46.8214 15.0872 46.7356 15.1695C46.5672 15.3318 46.3423 15.4222 46.1085 15.4217ZM12.9925 14.1971C12.8087 14.1972 12.6291 14.1414 12.4778 14.037C12.3265 13.9327 12.2105 13.7847 12.1453 13.6128C12.0801 13.4409 12.0688 13.2533 12.1129 13.0748C12.1569 12.8963 12.2542 12.7355 12.3919 12.6137L12.3955 12.6106C12.7677 12.2778 13.3404 12.3081 13.674 12.6801C14.0073 13.0518 13.978 13.6227 13.6068 13.9569L13.5921 13.9701C13.4268 14.1166 13.2134 14.1973 12.9925 14.1971ZM43.3743 12.991C43.1821 12.9912 42.9949 12.9299 42.84 12.8162L42.8094 12.7927C42.6199 12.6453 42.4967 12.4286 42.4669 12.1903C42.4371 11.952 42.5031 11.7117 42.6505 11.5221C42.7976 11.3329 43.0138 11.2097 43.2516 11.1797C43.4894 11.1496 43.7294 11.2151 43.919 11.3618C44.0708 11.476 44.1829 11.635 44.2394 11.8164C44.2958 11.9978 44.2938 12.1924 44.2336 12.3726C44.1733 12.5528 44.0579 12.7095 43.9037 12.8205C43.7495 12.9315 43.5643 12.9911 43.3743 12.991ZM15.8965 11.9743C15.7008 11.9744 15.5103 11.9111 15.3536 11.7938C15.1969 11.6766 15.0824 11.5117 15.0272 11.3239C14.9721 11.1361 14.9792 10.9355 15.0476 10.7522C15.116 10.5688 15.242 10.4125 15.4067 10.3067C15.6054 10.1754 15.8479 10.1278 16.0816 10.174C16.3153 10.2203 16.5213 10.3568 16.6551 10.5539C16.7219 10.6522 16.7686 10.7628 16.7927 10.8792C16.8167 10.9957 16.8176 11.1157 16.7952 11.2325C16.7729 11.3493 16.7277 11.4605 16.6623 11.5598C16.597 11.6591 16.5127 11.7446 16.4142 11.8113L16.3826 11.8324C16.2375 11.9252 16.0688 11.9745 15.8965 11.9743ZM40.3003 11.0034C40.1528 11.0034 40.0076 10.9671 39.8774 10.8977L39.8558 10.8858C39.4178 10.6449 39.2581 10.0943 39.4988 9.65622C39.7395 9.21818 40.2903 9.05833 40.7284 9.29915L40.7311 9.30056C41.1682 9.53904 41.3335 10.0878 41.0973 10.5263C41.02 10.6704 40.905 10.7909 40.7647 10.8748C40.6244 10.9588 40.464 11.0032 40.3004 11.0033L40.3003 11.0034ZM19.105 10.2201C18.9306 10.2202 18.7599 10.17 18.6134 10.0755C18.4668 9.98096 18.3506 9.84617 18.2788 9.68728C18.2298 9.57899 18.2027 9.46212 18.1989 9.34334C18.1951 9.22456 18.2147 9.10619 18.2567 8.995C18.2986 8.88381 18.3621 8.78197 18.4434 8.69529C18.5247 8.60862 18.6223 8.53881 18.7306 8.48986L18.7517 8.48071C19.2094 8.27974 19.7431 8.48892 19.944 8.94712C20.0402 9.16718 20.045 9.4164 19.9575 9.64002C19.8699 9.86363 19.6972 10.0433 19.4772 10.1396C19.3602 10.1926 19.2333 10.22 19.105 10.2201Z" fill="#A7C7D3"/>
<path d="M35.9197 48.6885L22.287 35.0558C21.4324 34.2015 21.4315 32.8192 22.2847 31.9664C22.6086 31.6415 23.0273 31.4278 23.4804 31.3562C24.1484 31.2486 24.8573 31.4523 25.3741 31.9691L21.8636 28.4585C21.6603 28.256 21.4991 28.0154 21.3891 27.7504C21.2791 27.4854 21.2226 27.2014 21.2227 26.9145C21.2227 26.7982 21.2319 26.6815 21.2507 26.5652C21.3225 26.112 21.5363 25.6932 21.8612 25.3691C22.1811 25.0479 22.5937 24.8353 23.0409 24.7611C23.339 24.7111 23.6441 24.7236 23.9371 24.7976C24.2301 24.8717 24.5045 25.0058 24.743 25.1915L23.4071 23.8558C23.2037 23.6529 23.0424 23.4119 22.9323 23.1465C22.8222 22.8811 22.7657 22.5966 22.7658 22.3094C22.7652 22.1905 22.775 22.0718 22.7951 21.9546C22.8672 21.5039 23.0802 21.0876 23.4035 20.7654C23.7278 20.4398 24.1474 20.2259 24.6014 20.1547C24.943 20.0994 25.2928 20.1262 25.6221 20.2327C25.9513 20.3393 26.2504 20.5226 26.4948 20.7676L28.0246 22.2975C27.7797 22.0531 27.5965 21.7539 27.4899 21.4248C27.3833 21.0956 27.3565 20.7458 27.4117 20.4042C27.4829 19.9508 27.6968 19.5318 28.0222 19.2081C28.8742 18.3561 30.258 18.3571 31.1118 19.2108L39.9714 28.0704L39.996 28.0351C40.4293 27.6007 40.9573 27.2726 41.5387 27.0765C42.9316 26.6069 44.5352 26.9277 45.6466 28.0397L49.7775 32.1706C50.571 32.9639 51.0175 34.0395 51.019 35.1615L51.0213 37.7461C51.0226 38.9548 51.5035 40.1135 52.3584 40.9678L53.2795 41.8889L42.7432 52.4253L41.5657 51.2479C40.7829 50.4653 39.7424 49.9938 38.6379 49.9213C37.6123 49.8538 36.6462 49.4156 35.9197 48.6885Z" fill="#FECBAA"/>
<path d="M42.0589 53.1097L54.0185 41.1501C54.1121 41.0564 54.2234 40.982 54.3458 40.9313C54.4682 40.8806 54.5994 40.8545 54.7319 40.8545C54.8644 40.8545 54.9956 40.8806 55.118 40.9313C55.2404 40.982 55.3517 41.0564 55.4453 41.1501L59.7044 45.4092C60.0985 45.8033 60.0985 46.4423 59.7044 46.8359L47.7453 58.7955C47.3512 59.1896 46.7121 59.1896 46.3184 58.7955L42.0589 54.5364C41.6653 54.1423 41.6653 53.5033 42.0589 53.1097Z" fill="#FDD559"/>
<path d="M54.3356 46.5184C54.6895 46.8723 55.2621 46.8728 55.6151 46.5198C55.968 46.1668 55.9676 45.5938 55.6141 45.2403C55.2602 44.8864 54.6877 44.8861 54.3347 45.239C54.1652 45.4089 54.0701 45.639 54.0703 45.8789C54.0705 46.1188 54.1659 46.3488 54.3356 46.5184Z" fill="#FF8812"/>
<path d="M43.0232 31.1204L39.9727 28.0705L39.9973 28.0353C40.4306 27.6008 40.9586 27.2727 41.54 27.0767L44.3036 29.8402C44.4733 30.01 44.5686 30.2403 44.5686 30.4804C44.5686 30.7205 44.4733 30.9507 44.3036 31.1206C44.2195 31.2047 44.1197 31.2715 44.0099 31.317C43.9 31.3625 43.7823 31.386 43.6634 31.386C43.5444 31.386 43.4267 31.3625 43.3168 31.317C43.207 31.2715 43.1072 31.2047 43.0232 31.1206V31.1204Z" fill="#FFAE85"/>
<path d="M24.0805 48.69L37.7133 35.0573C38.5678 34.2027 38.5688 32.8207 37.716 31.9678C37.3921 31.6426 36.9732 31.4288 36.5198 31.3573C35.8519 31.2497 35.1429 31.4538 34.6261 31.9702L38.1367 28.46C38.3399 28.2575 38.5012 28.0167 38.6112 27.7517C38.7212 27.4866 38.7777 27.2025 38.7776 26.9155C38.7776 26.7997 38.7683 26.6825 38.7496 26.5668C38.6778 26.1135 38.4641 25.6946 38.139 25.3706C37.8192 25.0494 37.4065 24.8368 36.9593 24.7627C36.6613 24.7126 36.3561 24.7251 36.0631 24.7991C35.7701 24.8732 35.4957 25.0073 35.2573 25.193L36.5931 23.8568C36.7965 23.654 36.9579 23.4131 37.068 23.1478C37.178 22.8825 37.2346 22.5981 37.2345 22.3109C37.235 22.1918 37.2252 22.073 37.2052 21.9557C37.1331 21.5049 36.9201 21.0885 36.5967 20.7663C36.2723 20.441 35.8527 20.2273 35.3988 20.1561C35.0572 20.1007 34.7074 20.1274 34.3781 20.234C34.0489 20.3405 33.7497 20.5239 33.5054 20.769L31.9757 22.299C32.2205 22.0545 32.4038 21.7553 32.5103 21.426C32.6169 21.0968 32.6437 20.7469 32.5886 20.4053C32.5171 19.9518 32.3033 19.5329 31.978 19.209C31.1261 18.3571 29.7422 18.3581 28.8885 19.2118L20.0289 28.0713L20.0043 28.0366C19.571 27.6022 19.0429 27.2741 18.4615 27.078C17.0681 26.6084 15.465 26.9292 14.3536 28.0407L10.2227 32.1721C9.42924 32.9654 8.98277 34.041 8.98125 35.163L8.97844 37.747C8.97769 38.9559 8.49691 40.1149 7.6418 40.9693L6.7207 41.8904L17.257 52.4268L18.4345 51.2494C19.2173 50.4668 20.2578 49.9953 21.3623 49.9228C22.388 49.8553 23.354 49.4171 24.0805 48.69Z" fill="#FECBAA"/>
<path d="M17.9411 53.1108L5.98154 41.1516C5.88786 41.0578 5.77664 40.9835 5.65423 40.9328C5.53181 40.8821 5.40061 40.856 5.2681 40.856C5.1356 40.856 5.00439 40.8821 4.88197 40.9328C4.75956 40.9835 4.64834 41.0578 4.55466 41.1516L0.2956 45.4106C0.201886 45.5043 0.127545 45.6155 0.0768254 45.7379C0.0261056 45.8603 0 45.9916 0 46.1241C0 46.2566 0.0261056 46.3878 0.0768254 46.5102C0.127545 46.6326 0.201886 46.7438 0.2956 46.8375L12.2547 58.7971C12.3484 58.8908 12.4597 58.9651 12.5821 59.0159C12.7046 59.0666 12.8358 59.0927 12.9684 59.0927C13.1009 59.0927 13.2322 59.0666 13.3546 59.0159C13.4771 58.9651 13.5883 58.8908 13.682 58.7971L17.9411 54.538C18.0348 54.4443 18.1092 54.333 18.1599 54.2106C18.2106 54.0881 18.2367 53.9569 18.2367 53.8243C18.2367 53.6918 18.2106 53.5605 18.1599 53.4381C18.1092 53.3156 18.0348 53.2045 17.9411 53.1108Z" fill="#FF84A7"/>
<path d="M13.8583 54.7146C14.2122 54.3607 14.2126 53.7882 13.8596 53.4352C13.5068 53.0818 12.9336 53.0822 12.5802 53.4361C12.2263 53.7895 12.2259 54.3626 12.5789 54.7156C12.7487 54.8851 12.9789 54.9802 13.2188 54.98C13.4587 54.9798 13.6888 54.8844 13.8583 54.7146Z" fill="#EF6085"/>
<path d="M16.9776 31.122L20.0276 28.0714L20.003 28.0367C19.5697 27.6023 19.0416 27.2742 18.4602 27.0781L15.6967 29.8412C15.527 30.0111 15.4316 30.2414 15.4316 30.4816C15.4316 30.7218 15.527 30.9521 15.6967 31.122C15.7808 31.2062 15.8806 31.2729 15.9905 31.3185C16.1004 31.364 16.2182 31.3874 16.3371 31.3874C16.4561 31.3874 16.5739 31.364 16.6838 31.3185C16.7936 31.2729 16.8935 31.2062 16.9776 31.122Z" fill="#FFAE85"/>
<path d="M38.7194 16.0179V35.2975C38.7194 36.506 37.743 37.4838 36.5368 37.4838C36.0598 37.4838 35.618 37.3304 35.2592 37.0695C34.9786 36.8671 34.7501 36.6008 34.5927 36.2927C34.4352 35.9846 34.3533 35.6434 34.3537 35.2974V40.262C34.3543 40.608 34.2725 40.9492 34.1151 41.2573C33.9576 41.5654 33.7291 41.8316 33.4483 42.0338C33.0772 42.3038 32.63 42.4489 32.1711 42.4482C31.6992 42.4482 31.2629 42.2986 30.9068 42.0439C30.6606 41.8685 30.4536 41.6439 30.2988 41.3842C30.144 41.1246 30.0449 40.8357 30.0077 40.5357V42.4254C30.0077 43.0291 29.7624 43.5771 29.3679 43.9716C29.2842 44.0562 29.1933 44.1334 29.0963 44.2024C28.7265 44.4701 28.2813 44.6138 27.8247 44.613C27.3653 44.6137 26.9176 44.4683 26.5462 44.1978C26.2655 43.9953 26.037 43.729 25.8796 43.4208C25.7221 43.1126 25.6403 42.7714 25.6407 42.4254V40.262C25.6411 40.6079 25.5591 40.949 25.4017 41.2571C25.2443 41.5652 25.0158 41.8314 24.7352 42.0338C24.3643 42.3041 23.917 42.4492 23.4581 42.4482C22.2528 42.4482 21.275 41.4691 21.275 40.262V27.7324L21.2328 27.7396C20.6193 27.7403 20.0139 27.599 19.4641 27.3268C18.1471 26.6736 17.2402 25.313 17.2402 23.7411V17.8987C17.2404 16.7766 17.6854 15.7004 18.4776 14.9057L20.3032 13.077C21.1571 12.2216 21.6366 11.0622 21.6362 9.85344V8.55078H36.5363V10.2157C36.5366 11.3226 36.9391 12.3917 37.6688 13.2241C38.3464 13.9971 38.7198 14.99 38.7194 16.0179Z" fill="#FEDFC5"/>
<path d="M37.7159 31.9678C37.3918 31.6428 36.973 31.429 36.5197 31.3573C35.8518 31.2496 35.1428 31.4538 34.626 31.9706L38.1366 28.46C38.3817 28.2158 38.5651 27.9167 38.6717 27.5874C38.7783 27.2582 38.8049 26.9083 38.7495 26.5668C38.6779 26.1135 38.4642 25.6947 38.1393 25.3706C37.8194 25.0495 37.4068 24.8369 36.9596 24.7627C36.6615 24.7127 36.3563 24.7251 36.0633 24.7992C35.7702 24.8733 35.4957 25.0073 35.2572 25.193L36.5934 23.8568C36.7967 23.654 36.958 23.413 37.068 23.1477C37.1779 22.8824 37.2345 22.598 37.2343 22.3109C37.235 22.1918 37.2253 22.073 37.2054 21.9557C37.133 21.5049 36.9199 21.0886 36.5966 20.7663C36.2723 20.441 35.8529 20.2273 35.3991 20.1561C35.0574 20.1008 34.7075 20.1276 34.3783 20.2341C34.049 20.3407 33.7498 20.524 33.5053 20.769L31.9755 22.299C32.2204 22.0545 32.4037 21.7553 32.5102 21.426C32.6168 21.0968 32.6436 20.7469 32.5884 20.4053C32.517 19.9519 32.3033 19.533 31.9782 19.209C31.1259 18.3571 29.7421 18.3581 28.8884 19.2118L20.0288 28.0713L20.0041 28.0366C19.5709 27.6022 19.0428 27.2741 18.4614 27.078C17.7937 26.8542 17.0789 26.81 16.3887 26.9498C16.9425 27.7871 17.7171 28.4815 18.6609 28.9498C18.9204 29.0784 19.1891 29.1875 19.4648 29.2762V40.2621C19.4648 42.4662 21.2565 44.2594 23.4584 44.2594C23.7234 44.2594 23.9843 44.2336 24.2384 44.1832C24.525 44.7704 24.9516 45.2781 25.4808 45.6614C25.8082 45.9 26.1702 46.0871 26.5542 46.2162L37.7132 35.0573C38.5677 34.2027 38.5686 32.8207 37.7159 31.9678Z" fill="#FFAE85"/>
<path d="M40.5293 35.2974V27.587C40.339 27.7208 40.1606 27.8707 39.996 28.0351L39.9713 28.0703L31.1117 19.2108C30.2579 18.3571 28.8742 18.3561 28.0222 19.2081C27.6968 19.5318 27.4829 19.9508 27.4117 20.4042C27.3565 20.7458 27.3833 21.0956 27.4899 21.4248C27.5965 21.7539 27.7797 22.0531 28.0246 22.2975L26.4947 20.7676C26.2503 20.5227 25.9512 20.3393 25.622 20.2327C25.2928 20.1262 24.943 20.0994 24.6014 20.1547C24.1474 20.2258 23.7278 20.4397 23.4034 20.7653C23.08 21.0876 22.8669 21.5039 22.7946 21.9547C22.775 22.0719 22.7653 22.1905 22.7658 22.3094C22.7658 22.8679 22.98 23.4286 23.407 23.8558L24.7429 25.1915C24.5044 25.0058 24.23 24.8718 23.937 24.7977C23.644 24.7236 23.3389 24.7112 23.0408 24.7611C22.5937 24.8353 22.1811 25.0479 21.8612 25.3691C21.5362 25.6932 21.3224 26.112 21.2506 26.5653C21.2318 26.6815 21.2222 26.7982 21.2227 26.9145C21.2224 27.2014 21.2789 27.4855 21.3889 27.7505C21.4989 28.0155 21.6601 28.2561 21.8635 28.4585L25.374 31.9691C25.1297 31.7241 24.8305 31.5408 24.5013 31.4342C24.1722 31.3277 23.8223 31.3009 23.4808 31.3562C23.0275 31.4277 22.6086 31.6414 22.2846 31.9664C21.4319 32.8195 21.4327 34.2017 22.287 35.0563L31.4197 44.1887C31.6651 44.2354 31.916 44.2592 32.1701 44.2592C33.0164 44.2592 33.8258 43.9969 34.5069 43.5029C34.6803 43.3777 34.8435 43.2389 34.9949 43.0878C35.7489 42.3338 36.1641 41.3304 36.1641 40.262V39.2778C36.2868 39.2892 36.4112 39.2947 36.5358 39.2947C38.7376 39.2947 40.5293 37.5017 40.5293 35.2974Z" fill="#FFAE85"/>
<path d="M38.7194 16.0179V35.2975C38.7194 36.506 37.743 37.4838 36.5368 37.4838C36.5043 37.4838 36.4691 37.4838 36.4343 37.4814C36.0117 37.4623 35.6041 37.3195 35.2619 37.0708C35.2606 37.0708 35.2606 37.0695 35.2592 37.0695C34.9786 36.8671 34.7501 36.6008 34.5927 36.2927C34.4352 35.9846 34.3533 35.6434 34.3537 35.2974V40.262C34.3543 40.608 34.2725 40.9492 34.1151 41.2573C33.9576 41.5654 33.7291 41.8316 33.4483 42.0338C33.0772 42.3038 32.63 42.4489 32.1711 42.4482C31.6992 42.4482 31.2629 42.2986 30.9068 42.0439C30.6606 41.8685 30.4536 41.6439 30.2989 41.3842C30.1441 41.1246 30.045 40.8357 30.0078 40.5357V42.4254C30.0078 43.0291 29.7624 43.5771 29.3679 43.9716C29.2842 44.0562 29.1933 44.1334 29.0963 44.2024C28.7265 44.4701 28.2813 44.6138 27.8247 44.613C27.3653 44.6137 26.9176 44.4683 26.5462 44.1978C26.2655 43.9953 26.037 43.729 25.8796 43.4208C25.7221 43.1126 25.6403 42.7714 25.6407 42.4254V40.262C25.6411 40.6079 25.5591 40.949 25.4017 41.2571C25.2443 41.5652 25.0158 41.8314 24.7352 42.0338C24.3643 42.3041 23.917 42.4492 23.4581 42.4482C22.2528 42.4482 21.275 41.4691 21.275 40.262V27.7324L21.2328 27.7396C20.6193 27.7403 20.0139 27.599 19.4641 27.3268C18.1471 26.6736 17.2402 25.313 17.2402 23.7411V17.8987C17.2404 16.7766 17.6854 15.7004 18.4776 14.9057L20.3032 13.077C20.8267 12.5529 21.2142 11.9087 21.432 11.2006C21.5674 10.7644 21.6363 10.3102 21.6362 9.85344V8.55078H36.5363V10.2157C36.5363 10.5888 36.5766 10.9824 36.6801 11.3418C36.8561 12.0387 37.195 12.6838 37.6689 13.2241C38.3404 13.9909 38.7194 14.9966 38.7194 16.0179Z" fill="#FEDFC5"/>
<path d="M38.719 16.0179V35.2975C38.719 36.506 37.7426 37.4838 36.5364 37.4838C36.5039 37.4838 36.4687 37.4838 36.4339 37.4814C36.0113 37.4623 35.6037 37.3195 35.2615 37.0708L35.2987 18.493C35.2987 18.3808 35.2735 18.2032 35.2264 17.9776C34.3932 13.9194 30.9682 11.2007 26.8259 11.2007H21.4316C21.567 10.7645 21.6358 10.3103 21.6358 9.85356V8.55078H36.5359V10.2157C36.5359 10.5888 36.5763 10.9824 36.6797 11.3418C36.8557 12.0387 37.1946 12.6838 37.6686 13.2241C38.34 13.9909 38.719 14.9966 38.719 16.0179Z" fill="#FECBAA"/>
<path d="M37.5045 8.55129H20.5908C20.3232 8.55123 20.0666 8.4449 19.8775 8.25568C19.6883 8.06647 19.582 7.80986 19.582 7.54231V1.51875C19.582 1.25119 19.6883 0.994588 19.8775 0.805373C20.0666 0.616159 20.3232 0.509828 20.5908 0.509766L37.5042 0.509766C37.7718 0.509766 38.0285 0.616069 38.2177 0.80529C38.4069 0.994512 38.5132 1.25115 38.5132 1.51875V7.54242C38.5132 7.81002 38.4069 8.06666 38.2177 8.25588C38.0285 8.4451 37.7718 8.55141 37.5042 8.55141L37.5045 8.55129Z" fill="#83D9FF"/>
<path d="M24.3628 4.531C24.3628 4.03061 23.9582 3.62549 23.4588 3.62549C22.9593 3.62549 22.5547 4.03061 22.5547 4.531C22.5547 5.0308 22.9593 5.43639 23.4588 5.43639C23.9582 5.43639 24.3629 5.03092 24.3629 4.53088L24.3628 4.531Z" fill="#5186FF"/>
<path d="M35.26 25.208V37.0696C34.9792 36.8673 34.7506 36.601 34.5931 36.2928C34.4355 35.9846 34.3536 35.6433 34.3541 35.2972V40.2616C34.3541 40.8653 34.1105 41.4124 33.7154 41.8069C33.6329 41.8899 33.5437 41.9658 33.4486 42.034V25.208C33.4487 24.9679 33.5441 24.7377 33.7139 24.5679C33.8837 24.3981 34.1139 24.3027 34.354 24.3025C34.8539 24.3025 35.2598 24.7081 35.2598 25.208H35.26ZM30.9075 25.208V42.0437C30.6613 41.8683 30.4542 41.6438 30.2994 41.3842C30.1445 41.1246 30.0453 40.8357 30.008 40.5358V42.4254C30.008 43.0287 29.763 43.5772 29.3681 43.9717C29.2844 44.0563 29.1936 44.1335 29.0966 44.2025V25.208C29.0966 24.7081 29.5022 24.3025 30.0021 24.3025C30.502 24.3025 30.9075 24.7081 30.9075 25.208ZM26.5464 25.208V44.1973C26.2658 43.9949 26.0373 43.7287 25.8799 43.4206C25.7225 43.1124 25.6406 42.7713 25.641 42.4253V40.2615C25.6414 40.6075 25.5595 40.9487 25.402 41.2569C25.2446 41.5651 25.0161 41.8314 24.7355 42.0339V25.208C24.7356 24.9679 24.831 24.7377 25.0008 24.5679C25.1706 24.3981 25.4009 24.3026 25.641 24.3025C25.7599 24.3024 25.8777 24.3258 25.9876 24.3713C26.0975 24.4168 26.1973 24.4835 26.2814 24.5676C26.3655 24.6517 26.4322 24.7515 26.4776 24.8614C26.5231 24.9713 26.5465 25.0891 26.5464 25.208ZM21.2757 23.4186V27.7326L21.2332 27.7394C20.6198 27.7403 20.0145 27.5991 19.4648 27.3269V23.4187C19.4649 23.1786 19.5603 22.9483 19.7301 22.7785C19.8999 22.6087 20.1301 22.5133 20.3702 22.5132C20.4892 22.5131 20.6069 22.5365 20.7168 22.582C20.8267 22.6275 20.9265 22.6942 21.0106 22.7783C21.0947 22.8623 21.1614 22.9622 21.2069 23.072C21.2524 23.1819 21.2758 23.2997 21.2757 23.4186Z" fill="#FECBAA"/>
</g>
<defs>
<clipPath id="clip0_591_15418">
<rect width="60" height="60" fill="white" transform="translate(0 0.509766)"/>
</clipPath>
</defs>
</svg>
