<svg width="60" height="61" viewBox="0 0 60 61" fill="none" xmlns="http://www.w3.org/2000/svg">
<g clip-path="url(#clip0_591_15459)">
<path d="M47.4587 12.0716C46.4711 12.1924 45.5622 11.8404 44.9281 11.2118C44.7166 11.0021 44.4368 10.8757 44.139 10.8757H44.0224C43.7321 10.8757 43.4537 10.991 43.2484 11.1963C43.0432 11.4015 42.9279 11.6799 42.9279 11.9702V16.3758C42.9279 17.0426 43.4683 17.583 44.1351 17.583H48.5407C48.831 17.583 49.1093 17.6984 49.3146 17.9036C49.5199 18.1089 49.6352 18.3873 49.6352 18.6776V18.7942C49.6352 19.092 49.5088 19.3718 49.2991 19.5833C48.6705 20.2175 48.3185 21.1263 48.4393 22.1139C48.6086 23.4984 49.7309 24.6057 51.1175 24.7589C52.9568 24.962 54.5134 23.5275 54.5134 21.7294C54.5144 20.9238 54.1955 20.1507 53.6267 19.5802C53.4179 19.3702 53.2938 19.0908 53.2938 18.7946V18.6776C53.2938 18.3873 53.4091 18.1089 53.6144 17.9036C53.8196 17.6984 54.098 17.583 54.3883 17.583H58.7939C59.4607 17.583 60.0011 17.0426 60.0011 16.3758V1.72934C60.0009 1.05574 59.4549 0.509766 58.7814 0.509766H44.135C43.4682 0.509766 42.9277 1.05023 42.9277 1.71703V6.12258C42.9277 6.41287 43.0431 6.69126 43.2483 6.89653C43.4536 7.10179 43.732 7.21711 44.0223 7.21711H44.1395C44.4356 7.21711 44.715 7.09301 44.925 6.88418C45.4955 6.31542 46.2686 5.9965 47.0742 5.99754C48.8723 5.99754 50.3068 7.55414 50.1037 9.3934C49.9505 10.7798 48.8432 11.9021 47.4587 12.0716Z" fill="#D3EFFB"/>
<path d="M48.4389 47.9675C48.3181 46.9799 48.6701 46.071 49.2987 45.4369C49.5084 45.2254 49.6348 44.9455 49.6348 44.6478V44.5312C49.6348 44.2409 49.5195 43.9625 49.3142 43.7572C49.109 43.552 48.8306 43.4366 48.5403 43.4366H44.1347C43.468 43.4366 42.9275 43.9771 42.9275 44.6439V49.0495C42.9275 49.3397 42.8122 49.6181 42.6069 49.8234C42.4016 50.0287 42.1232 50.144 41.833 50.144H41.7164C41.4186 50.144 41.1387 50.0175 40.9272 49.8079C40.293 49.1793 39.3842 48.8273 38.3967 48.9481C37.0121 49.1174 35.9048 50.2397 35.7516 51.6263C35.5485 53.4655 36.983 55.0221 38.7812 55.0221C39.5868 55.0232 40.3598 54.7043 40.9304 54.1355C41.1404 53.9267 41.4198 53.8026 41.7159 53.8026H42.9275V59.3027C42.9275 59.9695 43.468 60.5099 44.1347 60.5099H58.7812C59.4547 60.5099 60.0006 59.9639 60.0006 59.2905V44.6438C60.0006 43.977 59.4602 43.4365 58.7934 43.4365H54.3878C54.0975 43.4365 53.8192 43.5518 53.6139 43.7571C53.4086 43.9624 53.2933 44.2408 53.2933 44.5311V44.6482C53.2933 44.9444 53.4174 45.2237 53.6262 45.4337C54.195 46.0043 54.5139 46.7774 54.5129 47.583C54.5129 49.3811 52.9563 50.8156 51.117 50.6125C49.7307 50.4593 48.6084 49.352 48.4389 47.9675Z" fill="#80CB8E"/>
<path d="M58.7812 0.509766H55.7324C56.4059 0.509766 56.9519 1.05574 56.9519 1.72934V17.583H58.7934C59.4602 17.583 60.0006 17.0426 60.0006 16.3758V1.72934C60.0006 1.05574 59.4546 0.509766 58.7812 0.509766Z" fill="#B1E4F9"/>
<path d="M56.9519 43.4365V59.2902C56.9519 59.9637 56.4059 60.5097 55.7324 60.5097H58.7812C59.4546 60.5097 60.0006 59.9637 60.0006 59.2902V44.6438C60.0006 43.977 59.4602 43.4365 58.7934 43.4365H56.9519Z" fill="#66B49D"/>
<path d="M12.5422 48.9478C13.5299 48.827 14.4387 49.179 15.0729 49.8076C15.2844 50.0173 15.5643 50.1437 15.862 50.1437H15.9783C16.2687 50.1437 16.5472 50.0284 16.7526 49.823C16.9579 49.6177 17.0733 49.3391 17.0733 49.0487V44.6437C17.0733 43.9769 16.5328 43.4364 15.866 43.4364H11.4604C11.3166 43.4364 11.1743 43.4081 11.0415 43.3531C10.9087 43.2981 10.788 43.2174 10.6864 43.1158C10.5848 43.0142 10.5041 42.8935 10.4491 42.7607C10.3941 42.6279 10.3658 42.4856 10.3658 42.3419V42.2253C10.3658 41.9275 10.4923 41.6476 10.7019 41.4361C11.3305 40.8019 11.6825 39.8931 11.5617 38.9055C11.3924 37.5209 10.2701 36.4136 8.88352 36.2604C7.04426 36.0573 5.48766 37.4918 5.48766 39.2899C5.48766 40.1285 5.82633 40.888 6.37418 41.4392C6.58301 41.6492 6.70711 41.9285 6.70711 42.2247V42.3417C6.70711 42.632 6.59179 42.9104 6.38653 43.1157C6.18126 43.321 5.90287 43.4363 5.61258 43.4363H1.20727C0.540469 43.4365 0 43.977 0 44.6438V59.2902C0 59.9637 0.545977 60.5097 1.21957 60.5097H15.866C16.5328 60.5097 17.0733 59.9692 17.0733 59.3024V54.8973C17.0733 54.6069 16.9579 54.3284 16.7526 54.123C16.5472 53.9177 16.2687 53.8023 15.9783 53.8023H15.8616C15.5654 53.8023 15.2861 53.9264 15.0761 54.1353C14.5055 54.704 13.7324 55.0229 12.9268 55.0218C11.1287 55.0218 9.69422 53.4652 9.89731 51.6259C10.0504 50.2396 11.1577 49.1173 12.5422 48.9478Z" fill="#F6E266"/>
<path d="M14.1465 43.4365V49.0493C14.1465 49.0921 14.1435 49.1342 14.1387 49.1757C14.4887 49.3274 14.8072 49.5434 15.0777 49.8123C15.2872 50.0209 15.5666 50.1439 15.8623 50.1439H15.9784C16.2688 50.1439 16.5473 50.0285 16.7527 49.8231C16.958 49.6178 17.0734 49.3393 17.0734 49.0489V44.6438C17.0734 43.977 16.5329 43.4365 15.8661 43.4365H14.1465ZM15.0777 54.134C14.8093 54.401 14.4936 54.6158 14.1466 54.7674V60.5097H15.8662C16.533 60.5097 17.0735 59.9692 17.0735 59.3024V54.8973C17.0735 54.6069 16.9581 54.3284 16.7528 54.1231C16.5474 53.9177 16.2689 53.8023 15.9785 53.8023H15.8618C15.5663 53.8023 15.2871 53.9255 15.0777 54.134Z" fill="#ECBE6B"/>
<path d="M11.5618 13.052C11.6827 14.0396 11.3306 14.9484 10.702 15.5827C10.4924 15.7942 10.3659 16.074 10.3659 16.3718V16.4884C10.3659 16.7787 10.4813 17.0571 10.6865 17.2624C10.8918 17.4676 11.1702 17.5829 11.4605 17.5829H15.866C16.5328 17.5829 17.0733 17.0425 17.0733 16.3757V11.9701C17.0733 11.8264 17.1016 11.6841 17.1566 11.5513C17.2116 11.4185 17.2922 11.2978 17.3939 11.1962C17.4955 11.0945 17.6162 11.0139 17.749 10.9589C17.8817 10.9039 18.0241 10.8756 18.1678 10.8756H18.2844C18.5822 10.8756 18.862 11.002 19.0736 11.2117C19.7078 11.8403 20.6166 12.1923 21.6042 12.0715C22.9888 11.9021 24.0961 10.7798 24.2493 9.39328C24.4523 7.55402 23.0179 5.99742 21.2197 5.99742C20.4141 5.99639 19.6411 6.31526 19.0705 6.88395C18.8605 7.09277 18.5811 7.21688 18.285 7.21688H18.1679C17.8776 7.21688 17.5992 7.10156 17.394 6.89629C17.1887 6.69103 17.0734 6.41263 17.0734 6.12234V1.71703C17.0734 1.05023 16.5329 0.509766 15.8661 0.509766H1.21957C0.545977 0.509766 0 1.05574 0 1.72934V16.3758C0 17.0426 0.540469 17.583 1.20727 17.583H5.61281C5.9031 17.583 6.1815 17.4677 6.38676 17.2625C6.59203 17.0572 6.70734 16.7788 6.70734 16.4885V16.3714C6.70734 16.0753 6.58324 15.7959 6.37441 15.5859C5.80569 15.0154 5.48682 14.2423 5.48789 13.4367C5.48789 11.6386 7.04449 10.2041 8.88375 10.4072C10.2701 10.5601 11.3924 11.6674 11.5618 13.052Z" fill="#E28086"/>
<path d="M15.241 7.21711H15.3582C15.6535 7.21711 15.9327 7.0943 16.1418 6.88605C16.4124 6.61675 16.731 6.40056 17.0812 6.24867C17.0762 6.20687 17.0735 6.1648 17.0734 6.1227V1.71703C17.0734 1.05023 16.5329 0.509766 15.8661 0.509766H14.1465V6.12258C14.1465 6.41287 14.2618 6.69126 14.4671 6.89653C14.6723 7.10179 14.9507 7.21711 15.241 7.21711ZM16.1423 11.2071C15.9328 10.9985 15.6534 10.8756 15.3577 10.8756H15.2411C14.9508 10.8756 14.6724 10.9909 14.4672 11.1962C14.2619 11.4014 14.1466 11.6798 14.1466 11.9701V17.5829H15.8662C16.533 17.5829 17.0735 17.0425 17.0735 16.3757V11.9701C17.0735 11.9273 17.0765 11.8853 17.0813 11.8438C16.7312 11.6922 16.4127 11.4762 16.1423 11.2071ZM21.2197 5.99754C20.6891 5.99754 20.1903 6.13348 19.7558 6.37195C20.7943 6.94125 21.4657 8.0966 21.3225 9.3934C21.2121 10.3932 20.604 11.2536 19.755 11.7204C20.2933 12.0159 20.9304 12.154 21.6043 12.0716C22.9889 11.9023 24.0963 10.78 24.2493 9.3934C24.4524 7.55426 23.0178 5.99754 21.2197 5.99754Z" fill="#DD636E"/>
<path d="M28.6454 8.2627H27.921C27.6809 8.2627 27.4506 8.35808 27.2808 8.52788C27.111 8.69767 27.0156 8.92796 27.0156 9.16809C27.0156 9.40821 27.111 9.6385 27.2808 9.80829C27.4506 9.97809 27.6809 10.0735 27.921 10.0735H28.6454C28.8855 10.0735 29.1158 9.97809 29.2856 9.80829C29.4554 9.6385 29.5507 9.40821 29.5507 9.16809C29.5507 8.92796 29.4554 8.69767 29.2856 8.52788C29.1158 8.35808 28.8855 8.2627 28.6454 8.2627ZM34.4969 8.2627H32.6964C32.4563 8.2627 32.226 8.35808 32.0562 8.52788C31.8864 8.69767 31.791 8.92796 31.791 9.16809C31.791 9.40821 31.8864 9.6385 32.0562 9.80829C32.226 9.97809 32.4563 10.0735 32.6964 10.0735H34.4969C34.737 10.0735 34.9673 9.97809 35.1371 9.80829C35.3069 9.6385 35.4023 9.40821 35.4023 9.16809C35.4023 8.92796 35.3069 8.69767 35.1371 8.52788C34.9673 8.35808 34.737 8.2627 34.4969 8.2627ZM39.2723 8.2627H38.5479C38.3078 8.2627 38.0775 8.35808 37.9077 8.52788C37.7379 8.69767 37.6425 8.92796 37.6425 9.16809C37.6425 9.40821 37.7379 9.6385 37.9077 9.80829C38.0775 9.97809 38.3078 10.0735 38.5479 10.0735H39.2723C39.5124 10.0735 39.7427 9.97809 39.9125 9.80829C40.0823 9.6385 40.1777 9.40821 40.1777 9.16809C40.1777 8.92796 40.0823 8.69767 39.9125 8.52788C39.7427 8.35808 39.5124 8.2627 39.2723 8.2627Z" fill="#E28086"/>
<path d="M51.3409 27.5264C51.1008 27.5264 50.8705 27.6218 50.7007 27.7916C50.5309 27.9613 50.4355 28.1916 50.4355 28.4318V29.1561C50.4355 29.3962 50.5309 29.6265 50.7007 29.7963C50.8705 29.9661 51.1008 30.0615 51.3409 30.0615C51.5811 30.0615 51.8114 29.9661 51.9811 29.7963C52.1509 29.6265 52.2463 29.3962 52.2463 29.1561V28.4318C52.2463 28.1916 52.1509 27.9613 51.9811 27.7916C51.8114 27.6218 51.5811 27.5264 51.3409 27.5264ZM51.3409 32.3018C51.1008 32.3018 50.8705 32.3971 50.7007 32.5669C50.5309 32.7367 50.4355 32.967 50.4355 33.2071V35.0076C50.4355 35.2477 50.5309 35.478 50.7007 35.6478C50.8705 35.8176 51.1008 35.913 51.3409 35.913C51.5811 35.913 51.8114 35.8176 51.9811 35.6478C52.1509 35.478 52.2463 35.2477 52.2463 35.0076V33.2071C52.2463 32.967 52.1509 32.7367 51.9811 32.5669C51.8114 32.3971 51.5811 32.3018 51.3409 32.3018ZM51.3409 38.1533C51.1008 38.1533 50.8705 38.2487 50.7007 38.4185C50.5309 38.5883 50.4355 38.8185 50.4355 39.0587V39.783C50.4355 40.0231 50.5309 40.2534 50.7007 40.4232C50.8705 40.593 51.1008 40.6884 51.3409 40.6884C51.5811 40.6884 51.8114 40.593 51.9811 40.4232C52.1509 40.2534 52.2463 40.0231 52.2463 39.783V39.0587C52.2463 38.8185 52.1509 38.5883 51.9811 38.4185C51.8114 38.2487 51.5811 38.1533 51.3409 38.1533Z" fill="#D3EFFB"/>
<path d="M32.0789 50.9458H31.3546C31.1144 50.9458 30.8842 51.0412 30.7144 51.211C30.5446 51.3808 30.4492 51.6111 30.4492 51.8512C30.4492 52.0913 30.5446 52.3216 30.7144 52.4914C30.8842 52.6612 31.1144 52.7566 31.3546 52.7566H32.0789C32.319 52.7566 32.5493 52.6612 32.7191 52.4914C32.8889 52.3216 32.9843 52.0913 32.9843 51.8512C32.9843 51.6111 32.8889 51.3808 32.7191 51.211C32.5493 51.0412 32.319 50.9458 32.0789 50.9458ZM27.3035 50.9458H25.503C25.2629 50.9458 25.0326 51.0412 24.8628 51.211C24.693 51.3808 24.5977 51.6111 24.5977 51.8512C24.5977 52.0913 24.693 52.3216 24.8628 52.4914C25.0326 52.6612 25.2629 52.7566 25.503 52.7566H27.3035C27.5436 52.7566 27.7739 52.6612 27.9437 52.4914C28.1135 52.3216 28.2089 52.0913 28.2089 51.8512C28.2089 51.6111 28.1135 51.3808 27.9437 51.211C27.7739 51.0412 27.5436 50.9458 27.3035 50.9458ZM21.452 50.9458H20.7277C20.4875 50.9458 20.2572 51.0412 20.0874 51.211C19.9177 51.3808 19.8223 51.6111 19.8223 51.8512C19.8223 52.0913 19.9177 52.3216 20.0874 52.4914C20.2572 52.6612 20.4875 52.7566 20.7277 52.7566H21.452C21.6921 52.7566 21.9224 52.6612 22.0922 52.4914C22.262 52.3216 22.3574 52.0913 22.3574 51.8512C22.3574 51.6111 22.262 51.3808 22.0922 51.211C21.9224 51.0412 21.6921 50.9458 21.452 50.9458Z" fill="#80CB8E"/>
<path d="M8.6593 30.958C8.41917 30.958 8.18888 31.0534 8.01909 31.2232C7.84929 31.3929 7.75391 31.6232 7.75391 31.8634V32.5877C7.75391 32.8278 7.84929 33.0581 8.01909 33.2279C8.18888 33.3977 8.41917 33.4931 8.6593 33.4931C8.89942 33.4931 9.12971 33.3977 9.2995 33.2279C9.4693 33.0581 9.56469 32.8278 9.56469 32.5877V31.8634C9.56469 31.6232 9.4693 31.3929 9.2995 31.2232C9.12971 31.0534 8.89942 30.958 8.6593 30.958ZM8.6593 25.1064C8.41917 25.1064 8.18888 25.2018 8.01909 25.3716C7.84929 25.5414 7.75391 25.7717 7.75391 26.0118V27.8123C7.75391 28.0524 7.84929 28.2827 8.01909 28.4525C8.18888 28.6223 8.41917 28.7177 8.6593 28.7177C8.89942 28.7177 9.12971 28.6223 9.2995 28.4525C9.4693 28.2827 9.56469 28.0524 9.56469 27.8123V26.0118C9.56469 25.7717 9.4693 25.5414 9.2995 25.3716C9.12971 25.2018 8.89942 25.1064 8.6593 25.1064ZM8.6593 20.3311C8.41917 20.3311 8.18888 20.4264 8.01909 20.5962C7.84929 20.766 7.75391 20.9963 7.75391 21.2364V21.9608C7.75391 22.2009 7.84929 22.4312 8.01909 22.601C8.18888 22.7708 8.41917 22.8662 8.6593 22.8662C8.89942 22.8662 9.12971 22.7708 9.2995 22.601C9.4693 22.4312 9.56469 22.2009 9.56469 21.9608V21.2364C9.56469 20.9963 9.4693 20.766 9.2995 20.5962C9.12971 20.4264 8.89942 20.3311 8.6593 20.3311Z" fill="#F6E266"/>
<path d="M39.805 30.5098C39.805 30.124 39.7827 29.7435 39.7393 29.3694C39.68 28.8577 39.9199 28.358 40.3659 28.1006L42.2739 26.999C42.8909 26.6428 43.1023 25.8538 42.7461 25.2367L40.94 22.1085C40.5837 21.4915 39.7948 21.2801 39.1777 21.6364L37.2686 22.7387C36.8213 22.9969 36.267 22.9543 35.8529 22.6457C35.245 22.1927 34.5866 21.8118 33.8909 21.5108C33.4128 21.3039 33.0966 20.8408 33.0966 20.3199V18.1255C33.0966 17.413 32.519 16.8354 31.8066 16.8354H28.1945C27.482 16.8354 26.9045 17.4131 26.9045 18.1255V20.3199C26.9045 20.8408 26.5884 21.3039 26.1102 21.5108C25.4145 21.8119 24.7561 22.1927 24.1483 22.6457C23.7342 22.9543 23.1799 22.9969 22.7326 22.7387L20.8235 21.6364C20.2065 21.2801 19.4174 21.4915 19.0612 22.1085L17.2551 25.2367C16.8988 25.8537 17.1102 26.6428 17.7272 26.999L19.6353 28.1006C20.0813 28.358 20.3212 28.8578 20.2619 29.3694C20.174 30.1271 20.174 30.8925 20.2619 31.6503C20.3212 32.1619 20.0813 32.6616 19.6353 32.9191L17.7272 34.0206C17.1102 34.3769 16.8988 35.1658 17.2551 35.7829L19.0612 38.9111C19.4174 39.5281 20.2063 39.7395 20.8235 39.3833L22.7326 38.281C23.1799 38.0227 23.7342 38.0654 24.1483 38.3739C24.7561 38.827 25.4145 39.2078 26.1102 39.5089C26.5884 39.7157 26.9045 40.1789 26.9045 40.6997V42.8942C26.9045 43.6067 27.4822 44.1842 28.1945 44.1842H31.8066C32.5191 44.1842 33.0966 43.6066 33.0966 42.8942V40.6997C33.0966 40.1789 33.4128 39.7157 33.8909 39.5089C34.5866 39.2078 35.245 38.8269 35.8529 38.3739C36.267 38.0654 36.8213 38.0228 37.2686 38.281L39.1777 39.3833C39.7947 39.7395 40.5837 39.5281 40.94 38.9111L42.7461 35.7829C43.1023 35.1659 42.8909 34.3769 42.2739 34.0206L40.3659 32.9191C39.9199 32.6616 39.68 32.1618 39.7393 31.6503C39.7826 31.2761 39.805 30.8956 39.805 30.5098ZM30.0006 32.8663C28.6992 32.8663 27.6441 31.8113 27.6441 30.5098C27.6441 29.2083 28.6992 28.1533 30.0006 28.1533C31.3021 28.1533 32.3572 29.2083 32.3572 30.5098C32.3572 31.8113 31.3021 32.8663 30.0006 32.8663Z" fill="#A0AAB7"/>
<path d="M30 24.4121C26.6323 24.4121 23.9023 27.1421 23.9023 30.5097C23.9023 33.8773 26.6323 36.6073 30 36.6073C33.3676 36.6073 36.0976 33.8773 36.0976 30.5097C36.0976 27.1421 33.3676 24.4121 30 24.4121ZM30 32.8663C28.6985 32.8663 27.6434 31.8112 27.6434 30.5097C27.6434 29.2082 28.6985 28.1532 30 28.1532C31.3014 28.1532 32.3565 29.2082 32.3565 30.5097C32.3565 31.8112 31.3014 32.8663 30 32.8663Z" fill="#DFEAEF"/>
<path d="M42.273 34.0205L40.365 32.919C39.919 32.6615 39.6791 32.1617 39.7384 31.6502C39.8262 30.8924 39.8262 30.127 39.7384 29.3692C39.6791 28.8576 39.919 28.3579 40.365 28.1004L42.273 26.9989C42.89 26.6426 43.1014 25.8537 42.7452 25.2366L40.9391 22.1084C40.597 21.516 39.8566 21.299 39.252 21.5978C39.5335 22.763 39.6755 23.9574 39.675 25.1561C39.675 32.7704 34.0366 39.0611 26.7246 40.0491C26.8417 40.2459 26.9036 40.4707 26.9037 40.6997V42.8942C26.9037 43.6067 27.4813 44.1842 28.1937 44.1842H31.8057C32.5182 44.1842 33.0957 43.6066 33.0957 42.8942V40.6997C33.0957 40.1788 33.4119 39.7157 33.89 39.5089C34.5857 39.2078 35.2441 38.8269 35.852 38.3739C36.2661 38.0654 36.8204 38.0227 37.2677 38.281L39.1768 39.3832C39.7938 39.7395 40.5829 39.5281 40.9391 38.9111L42.7452 35.7829C43.1014 35.1657 42.89 34.3768 42.273 34.0205Z" fill="#808B95"/>
</g>
<defs>
<clipPath id="clip0_591_15459">
<rect width="60" height="60" fill="white" transform="translate(0 0.509766)"/>
</clipPath>
</defs>
</svg>
