<svg width="60" height="61" viewBox="0 0 60 61" fill="none" xmlns="http://www.w3.org/2000/svg">
<g clip-path="url(#clip0_591_15349)">
<path d="M23.5566 50.248V54.0666C23.5566 57.6194 26.4471 60.5099 29.9999 60.5099C33.5528 60.5099 36.4432 57.6194 36.4432 54.0666V50.248H23.5566Z" fill="#E7DFDD"/>
<path d="M36.4433 54.0666V50.248H30V60.5097C33.5529 60.5099 36.4433 57.6194 36.4433 54.0666Z" fill="#DAD0CB"/>
<path d="M30.0005 8.87158L29.8731 8.87205C25.2111 8.90487 20.8145 10.7485 17.4933 14.0631C14.172 17.3779 12.3198 21.7708 12.278 26.4328C12.2335 31.4096 14.3008 36.2055 17.9497 39.5905C19.2358 40.7836 19.9734 42.453 19.9734 44.171V45.9291H40.0277V44.1495C40.0277 42.4379 40.7504 40.79 42.0103 39.6285C45.6412 36.2814 47.7238 31.5308 47.7238 26.5949C47.7238 16.8222 39.7731 8.87158 30.0005 8.87158Z" fill="#FFEF4A"/>
<path d="M30 8.87158V45.929H40.0272V44.1493C40.0272 42.4378 40.7499 40.7899 42.0098 39.6284C45.6407 36.2813 47.7233 31.5307 47.7233 26.5947C47.7233 16.8222 39.7726 8.87158 30 8.87158Z" fill="#FFD321"/>
<path d="M36.536 27.9326H33.0198V31.3056L29.9994 33.2483L26.979 31.3056V27.9326H23.4629V33.2247L28.2413 36.2981V45.3431H31.7574V36.2981L36.536 33.2247V27.9326Z" fill="#ECBE00"/>
<path d="M33.0205 27.9326V31.3056L30 33.2483V45.3431H31.7581V36.2981L36.5366 33.2247V27.9326H33.0205Z" fill="#FF9D21"/>
<path d="M19.9727 44.1494H40.0269V53.7641H19.9727V44.1494Z" fill="#F4F1F1"/>
<path d="M30 44.1494H40.0272V53.7641H30V44.1494Z" fill="#E7DFDD"/>
<path d="M28.2416 0.509766H31.7577V5.26052H28.2416V0.509766ZM15.4281 4.87281L18.4731 3.11475L20.8545 7.23951L17.8096 8.99758L15.4281 4.87281ZM6.51951 15.0689L8.27758 12.0239L12.4023 14.4054L10.6443 17.4503L6.51951 15.0689ZM3.90234 24.8368H8.66529V28.3529H3.90234V24.8368ZM51.3341 24.8368H56.097V28.3529H51.3341V24.8368ZM47.5954 14.4047L51.7203 12.0231L53.4783 15.0681L49.3534 17.4496L47.5954 14.4047ZM39.1441 7.24057L41.5256 3.1158L44.5706 4.87386L42.189 8.99863L39.1441 7.24057Z" fill="#FFD321"/>
<path d="M51.3344 24.8368H56.0974V28.3529H51.3344V24.8368ZM47.5958 14.4047L51.7206 12.0231L53.4787 15.0681L49.3538 17.4496L47.5958 14.4047ZM39.1445 7.24057L41.526 3.1158L44.5709 4.87386L42.1894 8.99863L39.1445 7.24057ZM30 0.509766H31.7581V5.26052H30V0.509766Z" fill="#ECBE00"/>
</g>
<defs>
<clipPath id="clip0_591_15349">
<rect width="60" height="60" fill="white" transform="translate(0 0.509766)"/>
</clipPath>
</defs>
</svg>
