<svg width="75" height="54" viewBox="0 0 75 54" fill="none" xmlns="http://www.w3.org/2000/svg">
<path d="M15.2344 53.9629C15.1234 53.9617 15.0131 53.946 14.9062 53.916C14.6628 53.845 14.449 53.697 14.2969 53.4941C14.1447 53.2913 14.0625 53.0446 14.0625 52.791V30.0156H1.17188C0.861074 30.0156 0.563003 29.8922 0.343234 29.6724C0.123465 29.4526 0 29.1545 0 28.8437V1.22852C0 0.917715 0.123465 0.619644 0.343234 0.399875C0.563003 0.180106 0.861074 0.0566406 1.17188 0.0566406H30.4688C30.7796 0.0566406 31.0776 0.180106 31.2974 0.399875C31.5172 0.619644 31.6406 0.917715 31.6406 1.22852V28.8203C31.6407 29.0423 31.5777 29.2597 31.459 29.4473L16.2246 53.418C16.1189 53.5849 15.9727 53.7224 15.7995 53.8177C15.6264 53.913 15.432 53.9629 15.2344 53.9629ZM2.34375 27.6484H15.2344C15.5452 27.6484 15.8432 27.7719 16.063 27.9917C16.2828 28.2114 16.4062 28.5095 16.4062 28.8203V48.7422L29.2969 28.4746V2.40039H2.34375V27.6484ZM58.5938 53.9629C58.4828 53.9617 58.3725 53.946 58.2656 53.916C58.0222 53.845 57.8084 53.697 57.6562 53.4941C57.5041 53.2913 57.4219 53.0446 57.4219 52.791V30.0156H44.5312C44.2204 30.0156 43.9224 29.8922 43.7026 29.6724C43.4828 29.4526 43.3594 29.1545 43.3594 28.8437V1.22852C43.3594 0.917715 43.4828 0.619644 43.7026 0.399875C43.9224 0.180106 44.2204 0.0566406 44.5312 0.0566406H73.8281C74.1389 0.0566406 74.437 0.180106 74.6568 0.399875C74.8765 0.619644 75 0.917715 75 1.22852V28.8203C75.0001 29.0423 74.9371 29.2597 74.8184 29.4473L59.584 53.418C59.4783 53.5849 59.332 53.7224 59.1589 53.8177C58.9858 53.913 58.7914 53.9629 58.5938 53.9629ZM45.7031 27.6484H58.5938C58.9046 27.6484 59.2026 27.7719 59.4224 27.9917C59.6422 28.2114 59.7656 28.5095 59.7656 28.8203V48.7422L72.6562 28.4746V2.40039H45.7031V27.6484Z" fill="#FF9301"/>
</svg>
