<svg width="40" height="40" viewBox="0 0 40 40" fill="none" xmlns="http://www.w3.org/2000/svg">
<path d="M25.625 30.625H28.75L23.75 38.75H20.625L25.625 30.625Z" fill="#575757"/>
<path d="M21.25 3.75H35V12.5H21.25V3.75Z" fill="#5549C1"/>
<path d="M38.125 26.25H35.625V25H37.5V8.75H35V7.5H38.125C38.2908 7.5 38.4497 7.56585 38.5669 7.68306C38.6842 7.80027 38.75 7.95924 38.75 8.125V25.625C38.75 25.7908 38.6842 25.9497 38.5669 26.0669C38.4497 26.1842 38.2908 26.25 38.125 26.25Z" fill="#BEBEBE"/>
<path d="M26.875 12.5H29.375V15.625H26.875V12.5Z" fill="#6E6E6E"/>
<path d="M30.1795 6.0697L31.0632 5.18595L33.5627 7.68556L32.679 8.56931L30.1795 6.0697ZM27.0547 6.06946L27.9384 5.18579L32.9377 10.185L32.0539 11.0688L27.0547 6.06946Z" fill="#6A59D1"/>
<path d="M34.378 18.1325L31.25 18.125L30.826 16.0048C30.7693 15.7215 30.6162 15.4665 30.3928 15.2833C30.1693 15.1001 29.8892 15 29.6002 15H26.6498C26.3608 15 26.0807 15.1001 25.8572 15.2833C25.6338 15.4665 25.4807 15.7215 25.424 16.0048L25 18.125H21.875C21.5435 18.125 21.2255 18.2567 20.9911 18.4911C20.7567 18.7255 20.625 19.0435 20.625 19.375V26.875C20.625 27.2065 20.7567 27.5245 20.9911 27.7589C21.2255 27.9933 21.5435 28.125 21.875 28.125H34.375C34.7065 28.125 35.0245 27.9933 35.2589 27.7589C35.4933 27.5245 35.625 27.2065 35.625 26.875V19.3825C35.625 19.0515 35.4937 18.734 35.26 18.4997C35.0262 18.2654 34.709 18.1333 34.378 18.1325Z" fill="#353535"/>
<path d="M26.875 16.875H29.375V18.125H26.875V16.875Z" fill="#575757"/>
<path d="M23.125 20.625H30.625V25.625H23.125V20.625Z" fill="#6E6E6E"/>
<path d="M32.5 20H33.75V21.25H32.5V20ZM32.5 22.5H33.75V23.75H32.5V22.5ZM32.5 25H33.75V26.25H32.5V25Z" fill="#575757"/>
<path d="M33.75 16.875H35V18.75H33.75V16.875Z" fill="#353535"/>
<path d="M25.625 28.125H30.625V30.625H25.625V28.125Z" fill="#6E6E6E"/>
<path d="M30.625 30.625H27.5L32.5 38.75H35.625L30.625 30.625Z" fill="#575757"/>
<path d="M1.25 38.75H24.375L23.0622 29.1225C22.8957 27.9013 22.3718 26.7566 21.5565 25.8324C20.7411 24.9081 19.6707 24.2455 18.4798 23.928L13.125 22.5H8.125L2.77016 23.928C2.23789 24.0699 1.72673 24.2816 1.25 24.5577V38.75Z" fill="#FF8661"/>
<path d="M11.875 1.875H9.375C7.7174 1.875 6.12769 2.53348 4.95558 3.70558C3.78348 4.87769 3.125 6.4674 3.125 8.125V11.25H5.625V8.8975C5.625 7.69806 6.10148 6.54774 6.94961 5.69961C7.79774 4.85148 8.94806 4.375 10.1475 4.375H11.1025C12.3019 4.375 13.4523 4.85148 14.3004 5.69961C15.1485 6.54774 15.625 7.69806 15.625 8.8975V11.25H18.125V8.125C18.125 7.30424 17.9633 6.49151 17.6492 5.73323C17.3352 4.97494 16.8748 4.28595 16.2944 3.70558C15.7141 3.12522 15.0251 2.66484 14.2668 2.35075C13.5085 2.03666 12.6958 1.875 11.875 1.875Z" fill="#6E6E6E"/>
<path d="M13.125 19.375V22.5H8.125V19.375C7.34877 18.7928 6.71875 18.0379 6.28483 17.1701C5.85091 16.3022 5.625 15.3453 5.625 14.375V8.8975C5.625 7.69806 6.10148 6.54774 6.94961 5.69961C7.79774 4.85148 8.94806 4.375 10.1475 4.375H11.1024C11.6963 4.37499 12.2844 4.49196 12.8331 4.71923C13.3818 4.9465 13.8804 5.27963 14.3004 5.69958C14.7203 6.11954 15.0535 6.6181 15.2807 7.1668C15.508 7.7155 15.625 8.30359 15.625 8.8975V14.375C15.625 15.3453 15.3991 16.3022 14.9652 17.1701C14.5312 18.0379 13.9012 18.7928 13.125 19.375ZM26.875 30.625H29.375V38.75H26.875V30.625Z" fill="#353535"/>
<path d="M8.125 19.375H13.125V22.5H8.125V19.375ZM17.5 36.25V38.75H24.375L23.8606 34.9779L17.5 36.25Z" fill="#FCDCC8"/>
<path d="M18.125 30.625C18.125 30.2798 17.8452 30 17.5 30C17.1548 30 16.875 30.2798 16.875 30.625V38.125C16.875 38.4702 17.1548 38.75 17.5 38.75C17.8452 38.75 18.125 38.4702 18.125 38.125V30.625Z" fill="#F47A5D"/>
<path d="M4.375 30.625C4.375 30.2798 4.09518 30 3.75 30C3.40482 30 3.125 30.2798 3.125 30.625V38.125C3.125 38.4702 3.40482 38.75 3.75 38.75C4.09518 38.75 4.375 38.4702 4.375 38.125V30.625Z" fill="#F47A5D"/>
<path d="M1.25 35.75V38.75H3.75V36.25L1.25 35.75Z" fill="#FCDCC8"/>
<path d="M4.375 30.625C4.375 30.2798 4.09518 30 3.75 30C3.40482 30 3.125 30.2798 3.125 30.625V38.125C3.125 38.4702 3.40482 38.75 3.75 38.75C4.09518 38.75 4.375 38.4702 4.375 38.125V30.625Z" fill="#F47A5D"/>
<path d="M3.73172 10C3.40505 10 3.09175 10.1298 2.86076 10.3608C2.62977 10.5918 2.5 10.905 2.5 11.2317V13.7683C2.5 14.095 2.62977 14.4082 2.86076 14.6392C3.09175 14.8702 3.40505 15 3.73172 15H5.625V10H3.73172ZM17.5183 10C17.845 10 18.1582 10.1298 18.3892 10.3608C18.6202 10.5918 18.75 10.905 18.75 11.2317V13.7683C18.75 14.095 18.6202 14.4082 18.3892 14.6392C18.1582 14.8702 17.845 15 17.5183 15H15.625V10H17.5183Z" fill="#575757"/>
</svg>
