<svg width="40" height="40" viewBox="0 0 40 40" fill="none" xmlns="http://www.w3.org/2000/svg">
<g clip-path="url(#clip0_718_613)">
<path d="M12.118 20.0004C11.2329 19.6984 10.4285 19.1982 9.76609 18.5379L5.86558 14.6374C5.6341 14.4028 5.42196 14.1499 5.23124 13.8811L5.23055 13.8804C2.27742 14.352 0 16.9197 0 20.0004C0 23.4134 2.79248 26.2059 6.20551 26.2059H11.7215C15.1345 26.2059 17.927 23.4134 17.927 20.0004C17.9246 19.7054 17.9011 19.4109 17.8567 19.1192C17.3497 19.4967 16.7876 19.7939 16.1902 20.0004C14.8708 19.546 13.4373 19.546 12.118 20.0004Z" fill="#BF4D90"/>
<path d="M26.1234 5.22643C25.6476 2.27743 23.082 0.00415039 20.0041 0.00415039C16.9262 0.00415039 14.3605 2.27743 13.8848 5.22643C14.1488 5.41673 14.404 5.62358 14.6411 5.86077L18.5417 9.76127C19.2021 10.4235 19.7023 11.2279 20.0041 12.1132C20.4578 13.4326 20.4578 14.8659 20.0041 16.1854C19.797 16.786 19.4981 17.351 19.1181 17.8601C19.4084 17.9022 19.7028 17.9319 20.0041 17.9319C20.3054 17.9319 20.5998 17.9029 20.8901 17.8601C21.5191 17.7691 22.1302 17.5809 22.7014 17.3023C23.9553 16.6904 24.9688 15.6769 25.5808 14.423C25.9931 13.5835 26.2082 12.6609 26.2096 11.7257V6.20966C26.2096 5.87456 26.1751 5.54774 26.1234 5.22643Z" fill="#ED8A19"/>
<path d="M25.3673 34.1392L21.4668 30.2387C20.8063 29.5765 20.3061 28.772 20.0043 27.8868C19.5507 26.5673 19.5507 25.1341 20.0043 23.8146C20.2114 23.214 20.5103 22.649 20.8903 22.1398C20.6001 22.0978 20.3056 22.0681 20.0043 22.0681C19.703 22.0681 19.4086 22.0971 19.1183 22.1398C18.4893 22.2309 17.8783 22.419 17.307 22.6976C16.0531 23.3096 15.0396 24.3231 14.4277 25.577C14.0153 26.4164 13.8002 27.339 13.7988 28.2743V33.7903C13.7988 34.1254 13.8333 34.4522 13.885 34.7735C14.3608 37.7225 16.9264 39.9958 20.0043 39.9958C23.0823 39.9958 25.6479 37.7225 26.1237 34.7735C25.8552 34.5824 25.6022 34.3703 25.3673 34.1392Z" fill="#7FABDA"/>
<path d="M34.777 13.8811C34.5863 14.1499 34.3741 14.4029 34.1427 14.6375L30.2422 18.538C29.5798 19.1982 28.7754 19.6984 27.8903 20.0004C26.5708 20.4541 25.1376 20.4541 23.8181 20.0004C23.2174 19.7933 22.6524 19.4945 22.1433 19.1144C22.0983 19.4077 22.0746 19.7038 22.0723 20.0004C22.0723 20.3017 22.1012 20.5961 22.1433 20.8864C22.2364 21.527 22.4267 22.1351 22.7011 22.6977C23.3131 23.9517 24.3265 24.9651 25.5804 25.5771C26.4199 25.9895 27.3425 26.2046 28.2778 26.2059H33.7938C34.1289 26.2059 34.4557 26.1715 34.777 26.1197C37.726 25.644 39.9993 23.0784 39.9993 20.0004C39.9993 16.9225 37.726 14.3562 34.777 13.8811Z" fill="#A4E869"/>
<path d="M34.1435 5.86075C31.9675 3.68468 28.5455 3.47783 26.1239 5.22641C26.1756 5.54771 26.2101 5.87454 26.2101 6.20963V11.7256C26.2088 12.6609 25.9937 13.5835 25.5813 14.423C24.9693 15.6769 23.9559 16.6903 22.7019 17.3023C22.1307 17.5809 21.5196 17.7691 20.8906 17.8601C21.0664 18.0952 21.254 18.3242 21.467 18.5372C21.6801 18.7503 21.909 18.9378 22.1441 19.1136C22.6626 19.5004 23.2273 19.7962 23.8189 19.9996C25.1384 20.4533 26.5716 20.4533 27.8911 19.9996C28.7762 19.6976 29.5806 19.1974 30.243 18.5372L34.1435 14.6367C34.3807 14.3995 34.5876 14.1444 34.7779 13.8803C36.5271 11.4588 36.3196 8.0375 34.1435 5.86075Z" fill="#EFCE4A"/>
<path d="M34.7776 26.1198C34.4563 26.1715 34.1294 26.206 33.7943 26.206H28.2783C27.3431 26.2046 26.4205 25.9895 25.581 25.5771C24.3271 24.9652 23.3136 23.9517 22.7016 22.6978C22.4231 22.1265 22.2349 21.5155 22.1438 20.8865C21.9087 21.0623 21.6798 21.2498 21.4668 21.4629C21.2537 21.676 21.0662 21.9049 20.8903 22.14C20.51 22.649 20.2111 23.214 20.0043 23.8148C19.5506 25.1343 19.5506 26.5675 20.0043 27.887C20.3063 28.7721 20.8065 29.5765 21.4668 30.2389L25.3673 34.1394C25.6044 34.3766 25.8596 34.5834 26.1236 34.7737C28.5452 36.5223 31.9672 36.3154 34.1432 34.1394C36.3193 31.9633 36.5268 28.5413 34.7776 26.1198Z" fill="#61B872"/>
<path d="M20.0054 12.1138C19.7034 11.2287 19.2032 10.4243 18.5429 9.76194L14.6424 5.86075C14.4078 5.62926 14.1549 5.41712 13.8861 5.22641C11.4645 3.47783 8.04254 3.68468 5.86648 5.86075C3.69041 8.03681 3.48356 11.4574 5.23145 13.8789C5.55372 13.8254 5.87971 13.7973 6.2064 13.7948H11.7224C14.8355 13.7948 17.4253 16.1205 17.8576 19.1192L17.8659 19.1136C18.101 18.9378 18.3299 18.7503 18.5429 18.5372C18.756 18.3242 18.9435 18.0952 19.1194 17.8601C19.4997 17.3511 19.7986 16.7861 20.0054 16.1853C20.4591 14.8661 20.4591 13.4331 20.0054 12.1138Z" fill="#ED7161"/>
<path d="M11.7207 13.7949H6.20473C5.8782 13.7977 5.55242 13.8265 5.23047 13.8811C5.42077 14.1452 5.62762 14.4003 5.86481 14.6375L9.76531 18.538C10.4277 19.1982 11.2321 19.6984 12.1172 20.0004C13.4367 19.5467 14.8699 19.5467 16.1894 20.0004C16.787 19.7943 17.3491 19.497 17.8559 19.1192C17.4236 16.1206 14.8338 13.7949 11.7207 13.7949Z" fill="#BF4D90"/>
<path d="M18.5428 21.4628C18.3313 21.2547 18.105 21.0621 17.8657 20.8864C17.3567 20.5061 16.7917 20.2072 16.1909 20.0004C14.8715 19.5467 13.4382 19.5467 12.1188 20.0004C11.2337 20.3024 10.4292 20.8026 9.76687 21.4628L5.86636 25.3634C5.63488 25.598 5.42274 25.8509 5.23202 26.1197C3.48345 28.5413 3.6903 31.9633 5.86636 34.1393C8.04243 36.3154 11.4644 36.5222 13.8859 34.7737C13.831 34.4487 13.8022 34.1199 13.7998 33.7904V28.2744C13.7998 27.3077 14.03 26.3948 14.4286 25.5771C15.0406 24.3232 16.054 23.3097 17.3079 22.6977C17.8792 22.4192 18.4902 22.231 19.1193 22.1399C18.9436 21.9007 18.751 21.6744 18.5428 21.4628Z" fill="#9777A8"/>
</g>
<defs>
<clipPath id="clip0_718_613">
<rect width="40" height="40" fill="white"/>
</clipPath>
</defs>
</svg>
