<svg width="60" height="60" viewBox="0 0 60 60" fill="none" xmlns="http://www.w3.org/2000/svg">
<path d="M48.2812 2.8125H11.7188C6.2822 2.8125 1.875 7.2197 1.875 12.6562V47.3438C1.875 52.7803 6.2822 57.1875 11.7188 57.1875H48.2812C53.7178 57.1875 58.125 52.7803 58.125 47.3438V12.6562C58.125 7.2197 53.7178 2.8125 48.2812 2.8125Z" fill="#470137"/>
<path d="M30.79 18.1968L23.8713 30.0843L31.3267 42.7406C31.4791 42.9984 31.4135 43.125 31.1345 43.125H26.4845C26.3694 43.1371 26.2533 43.1143 26.1513 43.0596C26.0493 43.0048 25.9661 42.9206 25.9127 42.8179L20.665 33.1921H20.6252L15.5158 42.8179C15.4688 42.9095 15.3977 42.9865 15.3101 43.0406C15.2226 43.0948 15.1219 43.1239 15.0189 43.125H10.547C10.2916 43.125 10.2424 42.9984 10.3947 42.7406L17.7259 30.4312L10.7416 18.1195C10.5892 17.9156 10.6408 17.8125 10.8939 17.8125H15.5533C15.6532 17.8053 15.7531 17.8269 15.8411 17.8746C15.9291 17.9224 16.0017 17.9943 16.0502 18.082L20.972 27.5929H21.0095L25.9056 18.082C25.9539 17.9947 26.0261 17.923 26.1137 17.8753C26.2013 17.8276 26.3006 17.8058 26.4002 17.8125H30.6377C30.9189 17.8125 30.9681 17.9414 30.79 18.1968ZM42.1572 43.5937C39.4384 43.5937 37.3455 42.8226 35.7213 41.2828C34.097 39.7429 33.2814 37.4671 33.2814 34.4531C33.2814 31.714 34.1549 29.464 35.9017 27.7031C36.7956 26.7779 37.8703 26.0466 39.059 25.5547C40.2477 25.0628 41.5249 24.8208 42.8111 24.8437C43.3868 24.8335 43.9615 24.8949 44.522 25.0265V17.0953C44.5178 17.0656 44.5205 17.0353 44.5299 17.0068C44.5393 16.9783 44.5552 16.9523 44.5763 16.931C44.5975 16.9097 44.6232 16.8935 44.6516 16.8838C44.68 16.8741 44.7103 16.871 44.74 16.875H49.0244C49.1439 16.875 49.2049 16.9476 49.2049 17.0953V39.3023C49.2049 40.2398 49.6103 41.039 49.6736 41.7234C49.6865 41.7912 49.6753 41.8613 49.6419 41.9217C49.6085 41.982 49.5551 42.0288 49.4908 42.0539C47.3885 43.0804 44.6322 43.5937 42.1572 43.5937ZM44.5314 39.9632V28.6265C44.3791 28.3593 43.5728 28.125 42.7478 28.125C42.065 28.1073 41.3869 28.2422 40.7628 28.5199C40.1388 28.7977 39.5846 29.2112 39.1408 29.7304C38.0598 30.9965 37.4766 32.6127 37.5002 34.2773C37.5002 36.3304 38.2033 37.7367 39.1197 38.714C39.5529 39.2107 40.0864 39.61 40.6851 39.8855C41.2838 40.1611 41.9341 40.3066 42.5931 40.3125C43.4674 40.3125 44.3228 40.1812 44.5314 39.9632Z" fill="#FF61F6"/>
</svg>
