<svg width="77" height="62" viewBox="0 0 77 62" fill="none" xmlns="http://www.w3.org/2000/svg">
<g clip-path="url(#clip0_704_449)">
<path d="M48.0867 16.087C54.5494 16.087 60.4067 18.5341 64.6515 22.5245C68.9162 26.5281 71.5684 32.0619 71.5684 38.1894C71.5684 44.3102 68.9162 49.8507 64.6515 53.8543C60.4001 57.8315 54.5494 60.2917 48.0867 60.2917C41.6174 60.2917 35.7601 57.8315 31.5152 53.8543C27.244 49.8507 24.5918 44.3102 24.5918 38.1894C24.5918 32.0685 27.2374 26.5281 31.5086 22.5245C35.7601 18.5341 41.6174 16.087 48.0867 16.087ZM62.5982 24.7341C58.8996 21.2515 53.7662 19.1079 48.0867 19.1079C42.4005 19.1079 37.2672 21.2515 33.5685 24.7341C29.8897 28.177 27.6126 32.926 27.6126 38.1894C27.6126 43.4396 29.8897 48.2017 33.5685 51.6447C37.2672 55.1273 42.4005 57.2709 48.0867 57.2709C53.7662 57.2709 58.893 55.1273 62.5982 51.6447C66.2705 48.2017 68.5608 43.4396 68.5608 38.1894C68.5542 32.926 66.2705 28.177 62.5982 24.7341Z" fill="#EB5939"/>
<path d="M48.0877 20.8623C53.3066 20.8623 58.045 22.9861 61.4738 26.4093C64.8895 29.8391 67.0086 34.588 67.0086 39.8251C67.0086 45.0555 64.8895 49.7978 61.4738 53.2408C58.045 56.6706 53.3066 58.7878 48.0877 58.7878C42.8622 58.7878 38.1172 56.664 34.7015 53.2408C31.2727 49.7978 29.1602 45.0621 29.1602 39.8251C29.1602 34.588 31.2727 29.8391 34.7015 26.4093C38.1172 22.9795 42.8622 20.8623 48.0877 20.8623ZM54.636 33.2557C52.9578 31.5672 50.6412 30.5383 48.0811 30.5383C45.5144 30.5383 43.1978 31.5672 41.5262 33.2557C39.8546 34.931 38.8148 37.2593 38.8148 39.8251C38.8148 42.3908 39.8546 44.7125 41.5262 46.3944C43.2044 48.0697 45.5144 49.1119 48.0811 49.1119C50.6412 49.1119 52.9578 48.0697 54.636 46.3944C56.3142 44.7191 57.3474 42.3908 57.3474 39.8251C57.3474 37.2593 56.3208 34.9376 54.636 33.2557Z" fill="#EB5939"/>
<path d="M0.755862 14.4315H31.3453V16.2519H1.66407V60.1268H31.3453V61.9473H0.755862H-0.152344V61.0436V15.3351V14.4315H0.755862Z" fill="#EB5939"/>
<path d="M39.525 0H56.6361C57.6298 0 58.5249 0.408936 59.183 1.05532L59.1764 1.06851C59.8345 1.71489 60.2426 2.61851 60.2426 3.60787V10.4543C60.2426 11.4436 59.8345 12.3604 59.1764 13.0068H59.183C58.5249 13.6664 57.6298 14.0753 56.6361 14.0753H39.525C38.5378 14.0753 37.6362 13.6664 36.9912 13.0068C36.3331 12.3472 35.9316 11.4436 35.9316 10.4543V3.60787C35.9316 2.61851 36.3331 1.71489 36.9912 1.06851V1.05532C37.6362 0.408936 38.5378 0 39.525 0ZM56.6361 1.51043H39.525C38.9524 1.51043 38.4193 1.74128 38.0508 2.11723L38.0442 2.13043C37.6625 2.49979 37.4322 3.03404 37.4322 3.60787V10.4543C37.4322 11.0413 37.6691 11.5623 38.0442 11.9449H38.0508C38.4193 12.3274 38.9524 12.5649 39.525 12.5649H56.6361C57.2086 12.5649 57.7286 12.3209 58.1103 11.9449H58.1234C58.5051 11.5623 58.7355 11.0413 58.7355 10.4543V3.60787C58.7355 3.03404 58.5051 2.49979 58.1234 2.13043H58.1103C57.7286 1.75447 57.2086 1.51043 56.6361 1.51043Z" fill="#EB5939"/>
<path d="M49.319 14.0754H46.8379V17.5909H49.319V14.0754Z" fill="#EB5939"/>
</g>
<defs>
<clipPath id="clip0_704_449">
<rect width="77" height="62" fill="white"/>
</clipPath>
</defs>
</svg>
