<svg width="42" height="39" viewBox="0 0 42 39" fill="none" xmlns="http://www.w3.org/2000/svg">
<g clip-path="url(#clip0_558_312)">
<path d="M42 11.7607L41.5159 6.23846L36.0573 6.13989L37.7194 7.71167C23.429 26.3824 0 35.7881 0 35.7881C0 35.7881 27.4119 27.786 40.1567 10.0168L42 11.7607Z" fill="#FF9301"/>
<path d="M38.949 13.9607C33.6652 20.3424 26.4553 25.4888 19.2674 29.367C25.5155 26.4994 32.2517 22.5555 37.8371 17.2843C39.8305 32.6564 22.4193 43.0267 10.1197 33.7078C9.47123 33.9772 8.84343 34.2295 8.24023 34.4674C11.5747 37.2955 15.8631 39.0013 20.5372 39.0013C33.295 39 42.6109 26.4915 38.949 13.9607Z" fill="#FF9301"/>
<path d="M21.4668 19.4238C23.1534 18.3041 24.7883 17.1542 26.3053 16.0043V9.13629H21.4668V19.4238Z" fill="#FF9301"/>
<path d="M18.9369 13.4941H14.0996V23.963C15.6853 23.0549 17.3162 22.0798 18.9369 21.0613V13.4941Z" fill="#FF9301"/>
<path d="M11.9622 17.5813H7.125V27.6533C8.5851 26.9541 10.2251 26.1104 11.9622 25.1589V17.5813Z" fill="#FF9301"/>
<path d="M20.5357 0C4.54057 0 -4.49317 18.8521 5.50103 31.6142C6.0188 31.3461 6.91842 30.8691 7.0854 30.7784C12.0702 28.1001 21.1234 22.75 27.3353 17.0017C20.8761 21.9273 12.0417 27.0343 6.22979 29.6351C-1.82408 17.9545 6.44208 1.78073 20.5344 1.78073C26.3722 1.78073 31.546 4.71007 34.7161 9.19278C35.107 8.72756 35.494 8.25708 35.8746 7.78002C32.3667 3.05813 26.7968 0 20.5357 0Z" fill="#FF9301"/>
<path d="M6.08398 33.2885C14.0252 29.2027 28.2017 20.692 37.9798 7.91934L38.1661 7.67621L36.9144 6.49213L41.2119 6.56966L41.5925 10.917L40.1078 9.51214L39.8877 9.81835C33.3444 18.9415 22.8247 25.4283 15.1514 29.2632C11.7665 30.9558 8.62493 32.295 6.08398 33.2885Z" fill="#FF9301"/>
<path d="M20.5346 38.6649C16.3173 38.6649 12.205 37.2153 8.88867 34.5698C9.27959 34.4135 9.67438 34.2531 10.0705 34.0902C13.146 36.3729 16.716 37.578 20.409 37.578C25.5194 37.578 30.6077 35.2177 34.0224 31.2647C37.3646 27.3957 38.8338 22.4149 38.1632 17.2396L38.0791 16.5943L37.6092 17.0372C34.8871 19.6051 31.7352 22.0062 28.182 24.2206C32.3526 21.236 35.942 18.0097 38.7962 14.6585C40.2602 20.3187 39.1315 26.2208 35.6598 30.944C32.0523 35.8499 26.5407 38.6649 20.5346 38.6649Z" fill="#FF9301"/>
<path d="M21.7969 9.47137H25.9727V15.8347C24.6912 16.8019 23.2906 17.7968 21.7969 18.7995V9.47137Z" fill="#FF9301"/>
<path d="M14.4297 13.8306H18.6055V20.8733C17.2554 21.7197 15.8548 22.5634 14.4297 23.3861V13.8306Z" fill="#FF9301"/>
<path d="M7.45508 17.9164H11.6296V24.9578C10.1591 25.7608 8.75726 26.4862 7.45508 27.121V17.9164Z" fill="#FF9301"/>
<path d="M5.5939 31.1897C1.20712 25.427 0.422702 17.7902 3.55778 11.1943C6.73946 4.49585 13.2452 0.336426 20.5354 0.336426C26.4185 0.336426 31.8408 3.04366 35.4535 7.77476C35.2231 8.06257 34.985 8.353 34.7364 8.65264C31.3761 4.13182 26.1001 1.44561 20.5354 1.44561C13.7966 1.44561 7.90832 5.08198 4.78489 11.172C1.66275 17.2606 2.10156 24.235 5.95893 29.8296L6.11555 30.0556L6.36408 29.9439C9.73086 28.4378 14.5383 25.883 19.3846 22.8591C14.1021 26.5375 8.91279 29.4169 6.93104 30.4814C6.78736 30.5602 6.11038 30.9203 5.5939 31.1897Z" fill="#FF9301"/>
<path d="M37.9811 7.91931C36.2957 10.1206 34.4784 12.1931 32.5859 14.1407C34.0706 13.8608 35.5605 13.5993 37.0517 13.3522C38.0587 12.222 39.0101 11.0458 39.889 9.81963L40.1091 9.51342L41.5938 10.9183L41.2132 6.57095L36.9158 6.49341L38.1675 7.6775L37.9811 7.91931Z" fill="white"/>
<path d="M25.9733 15.4956V9.47137H21.7988V16.4734C23.1864 16.1343 24.5792 15.8071 25.9733 15.4956Z" fill="white"/>
<path d="M18.6055 17.2829V13.8292H14.4297V18.4276C15.8186 18.032 17.2101 17.6509 18.6055 17.2829Z" fill="white"/>
<path d="M11.6315 19.2556V17.9177H7.45703V20.7012C8.83947 20.1571 10.24 19.6814 11.6315 19.2556Z" fill="white"/>
<path d="M3.01165 22.7513C2.30878 18.9033 2.88868 14.8727 4.78629 11.1706C7.90973 5.08198 13.798 1.44561 20.5368 1.44561C26.1015 1.44561 31.3775 4.13182 34.7366 8.65264C34.9851 8.353 35.2233 8.06257 35.4537 7.77476C31.8422 3.04366 26.4199 0.336426 20.5355 0.336426C13.2453 0.336426 6.73957 4.49716 3.55789 11.1943C1.71593 15.0698 1.22923 19.3055 2.02918 23.3072C2.35408 23.1167 2.68157 22.9314 3.01165 22.7513Z" fill="white"/>
</g>
<defs>
<clipPath id="clip0_558_312">
<rect width="42" height="39" fill="white"/>
</clipPath>
</defs>
</svg>
