<svg width="157" height="27" viewBox="0 0 157 27" fill="none" xmlns="http://www.w3.org/2000/svg">
<g clip-path="url(#clip0_787_75)">
<path d="M9.98438 27L18.8432 9.73712L20.9924 13.9009L14.2773 27H9.98438Z" fill="#D21C23"/>
<path d="M23.1418 9.7233C24.6352 6.72545 27.6448 4.7592 31.0117 4.7592C33.3816 4.7592 35.6927 5.76725 37.3507 7.5258L37.973 8.1863L39.8478 4.55565L39.4678 4.20255C37.1406 2.03413 34.1377 0.841919 31.0117 0.841919C28.6096 0.841919 26.2718 1.54534 24.2498 2.87464C23.0508 3.66253 21.9963 4.64981 21.1211 5.78802L23.1418 9.7233Z" fill="#D21C23"/>
<path d="M15.2988 16.6453L17.4426 12.4677L19.5864 16.6453L17.444 20.8243L15.2988 16.6453Z" fill="#D21C23"/>
<path d="M31.0113 27C26.8255 27 22.8617 24.7983 20.5226 21.2134C20.5226 21.2134 19.7531 19.8744 19.6099 19.5656L13.8557 8.35104L4.27955 27H0L13.8557 0L23.3689 18.5382C24.9573 21.3422 27.884 23.0827 31.0113 23.0827C33.4589 23.0827 35.8208 22.0193 37.4909 20.1638L38.1131 19.4728L40 23.1284L39.6333 23.4829C37.2835 25.751 34.2203 27 31.0113 27Z" fill="white"/>
</g>
<path d="M70.14 3H76.08V24H70.14V3ZM62.04 24H56.1V3H62.04V24ZM70.56 15.81H61.62V10.89H70.56V15.81Z" fill="#D21C23"/>
<path d="M89.9299 24V20.97L89.5399 20.22V14.64C89.5399 13.74 89.2599 13.05 88.6999 12.57C88.1599 12.07 87.2899 11.82 86.0899 11.82C85.3099 11.82 84.5199 11.95 83.7199 12.21C82.9199 12.45 82.2399 12.79 81.6799 13.23L79.7599 9.36C80.6799 8.76 81.7799 8.3 83.0599 7.98C84.3599 7.64 85.6499 7.47 86.9299 7.47C89.5699 7.47 91.6099 8.08 93.0499 9.3C94.5099 10.5 95.2399 12.39 95.2399 14.97V24H89.9299ZM85.1299 24.27C83.8299 24.27 82.7299 24.05 81.8299 23.61C80.9299 23.17 80.2399 22.57 79.7599 21.81C79.2999 21.05 79.0699 20.2 79.0699 19.26C79.0699 18.26 79.3199 17.4 79.8199 16.68C80.3399 15.94 81.1299 15.38 82.1899 15C83.2499 14.6 84.6199 14.4 86.2999 14.4H90.1399V17.37H87.0799C86.1599 17.37 85.5099 17.52 85.1299 17.82C84.7699 18.12 84.5899 18.52 84.5899 19.02C84.5899 19.52 84.7799 19.92 85.1599 20.22C85.5399 20.52 86.0599 20.67 86.7199 20.67C87.3399 20.67 87.8999 20.52 88.3999 20.22C88.9199 19.9 89.2999 19.42 89.5399 18.78L90.3199 20.88C90.0199 22 89.4299 22.85 88.5499 23.43C87.6899 23.99 86.5499 24.27 85.1299 24.27ZM107.203 24.27C105.423 24.27 103.843 23.91 102.463 23.19C101.083 22.47 99.9929 21.48 99.1929 20.22C98.4129 18.94 98.0229 17.48 98.0229 15.84C98.0229 14.2 98.4129 12.75 99.1929 11.49C99.9929 10.23 101.083 9.25 102.463 8.55C103.843 7.83 105.423 7.47 107.203 7.47C108.983 7.47 110.563 7.83 111.943 8.55C113.343 9.25 114.433 10.23 115.213 11.49C115.993 12.75 116.383 14.2 116.383 15.84C116.383 17.48 115.993 18.94 115.213 20.22C114.433 21.48 113.343 22.47 111.943 23.19C110.563 23.91 108.983 24.27 107.203 24.27ZM107.203 19.74C107.863 19.74 108.443 19.59 108.943 19.29C109.463 18.99 109.873 18.55 110.173 17.97C110.473 17.37 110.623 16.66 110.623 15.84C110.623 15.02 110.473 14.33 110.173 13.77C109.873 13.19 109.463 12.75 108.943 12.45C108.443 12.15 107.863 12 107.203 12C106.563 12 105.983 12.15 105.463 12.45C104.963 12.75 104.553 13.19 104.233 13.77C103.933 14.33 103.783 15.02 103.783 15.84C103.783 16.66 103.933 17.37 104.233 17.97C104.553 18.55 104.963 18.99 105.463 19.29C105.983 19.59 106.563 19.74 107.203 19.74ZM129.613 7.47C130.873 7.47 132.013 7.73 133.033 8.25C134.053 8.75 134.853 9.53 135.433 10.59C136.033 11.65 136.333 13.02 136.333 14.7V24H130.633V15.63C130.633 14.47 130.393 13.63 129.913 13.11C129.453 12.57 128.803 12.3 127.963 12.3C127.363 12.3 126.813 12.44 126.313 12.72C125.813 12.98 125.423 13.39 125.143 13.95C124.863 14.51 124.723 15.24 124.723 16.14V24H119.023V7.74H124.453V12.36L123.403 11.01C124.023 9.83 124.873 8.95 125.953 8.37C127.033 7.77 128.253 7.47 129.613 7.47ZM149.842 24V20.97L149.452 20.22V14.64C149.452 13.74 149.172 13.05 148.612 12.57C148.072 12.07 147.202 11.82 146.002 11.82C145.222 11.82 144.432 11.95 143.632 12.21C142.832 12.45 142.152 12.79 141.592 13.23L139.672 9.36C140.592 8.76 141.692 8.3 142.972 7.98C144.272 7.64 145.562 7.47 146.842 7.47C149.482 7.47 151.522 8.08 152.962 9.3C154.422 10.5 155.152 12.39 155.152 14.97V24H149.842ZM145.042 24.27C143.742 24.27 142.642 24.05 141.742 23.61C140.842 23.17 140.152 22.57 139.672 21.81C139.212 21.05 138.982 20.2 138.982 19.26C138.982 18.26 139.232 17.4 139.732 16.68C140.252 15.94 141.042 15.38 142.102 15C143.162 14.6 144.532 14.4 146.212 14.4H150.052V17.37H146.992C146.072 17.37 145.422 17.52 145.042 17.82C144.682 18.12 144.502 18.52 144.502 19.02C144.502 19.52 144.692 19.92 145.072 20.22C145.452 20.52 145.972 20.67 146.632 20.67C147.252 20.67 147.812 20.52 148.312 20.22C148.832 19.9 149.212 19.42 149.452 18.78L150.232 20.88C149.932 22 149.342 22.85 148.462 23.43C147.602 23.99 146.462 24.27 145.042 24.27Z" fill="white"/>
<defs>
<clipPath id="clip0_787_75">
<rect width="40" height="27" fill="white"/>
</clipPath>
</defs>
</svg>
