<svg width="25" height="25" viewBox="0 0 25 25" fill="none" xmlns="http://www.w3.org/2000/svg">
<path d="M22.6298 9.99486C19.5448 8.34563 17.2936 4.97285 16.6592 0.904541C16.0248 4.97285 13.7737 8.34563 10.6887 9.99486C10.0883 10.3159 8.59375 10.8095 8.59375 10.8095C8.59375 10.8095 10.0883 11.3031 10.6887 11.6241C13.7739 13.2733 16.0248 16.6464 16.6592 20.7144C17.2936 16.6461 19.5448 13.2733 22.6298 11.6241C23.2302 11.3031 24.7247 10.8095 24.7247 10.8095C24.7247 10.8095 23.2302 10.3159 22.6298 9.99486Z" fill="white"/>
<path d="M9.88971 18.5487C8.06067 17.571 6.72606 15.5712 6.34999 13.1594C5.97391 15.5715 4.63931 17.571 2.81027 18.5487C2.45436 18.7389 1.56836 19.0316 1.56836 19.0316C1.56836 19.0316 2.45436 19.3243 2.81027 19.5144C4.63931 20.4922 5.97391 22.4919 6.34999 24.904C6.72606 22.4919 8.06067 20.4924 9.88971 19.5144C10.2456 19.3243 11.1316 19.0316 11.1316 19.0316C11.1316 19.0316 10.2456 18.7389 9.88971 18.5487Z" fill="white"/>
<path d="M24.3976 19.0326C24.3976 19.6048 24.0199 20.0689 23.5538 20.0689C23.0877 20.0689 22.71 19.605 22.71 19.0326C22.71 18.4602 23.0877 17.9963 23.5538 17.9963C24.0199 17.9963 24.3976 18.4602 24.3976 19.0326Z" fill="white"/>
<path d="M8.89957 4.78163C8.89957 5.35406 8.52166 5.81792 8.05574 5.81792C7.58962 5.81792 7.21191 5.35406 7.21191 4.78163C7.21191 4.20945 7.58962 3.74536 8.05574 3.74536C8.52166 3.74536 8.89957 4.2092 8.89957 4.78163Z" fill="white"/>
<path d="M1.56844 11.8462C2.03447 11.8462 2.41227 11.3823 2.41227 10.81C2.41227 10.2376 2.03447 9.77368 1.56844 9.77368C1.1024 9.77368 0.724609 10.2376 0.724609 10.81C0.724609 11.3823 1.1024 11.8462 1.56844 11.8462Z" fill="white"/>
</svg>
