<svg width="80" height="81" viewBox="0 0 80 81" fill="none" xmlns="http://www.w3.org/2000/svg">
<path fill-rule="evenodd" clip-rule="evenodd" d="M59.3562 17.5229C62.4873 21.3721 63.9899 26.0236 63.9191 30.6287C63.9112 31.3461 63.8326 32.2023 63.7539 32.912C63.2583 37.4477 67.7504 33.4906 68.8124 32.3489L68.8203 32.3412L68.9068 32.2409V32.2332C69.9453 31.0838 70.8814 29.8959 71.7154 28.6926C70.2049 33.614 66.7119 38.8131 61.5905 43.1405C54.7933 48.8796 45.5259 52.7597 36.4316 49.8593C42.3083 50.1755 48.3109 48.3551 53.1255 44.2899C61.1656 37.5095 63.392 26.5713 59.3562 17.5229ZM59.8204 47.7534C57.9401 47.2674 56.0127 48.3705 55.525 50.2141C55.0293 52.0577 56.1543 53.9476 58.0346 54.4259C59.9148 54.9118 61.8422 53.8088 62.33 51.9651C62.8256 50.1215 61.7006 48.2317 59.8204 47.7534Z" fill="#EB5939"/>
<path d="M39.9961 47.6921C49.0204 47.6921 56.336 40.519 56.336 31.6705C56.336 22.822 49.0204 15.6489 39.9961 15.6489C30.9719 15.6489 23.6562 22.822 23.6562 31.6705C23.6562 40.519 30.9719 47.6921 39.9961 47.6921Z" fill="#EB5939"/>
<path fill-rule="evenodd" clip-rule="evenodd" d="M25.2683 12.9256C29.0444 9.67033 33.7096 7.98101 38.4062 7.83444C39.1379 7.8113 40.0111 7.84216 40.7427 7.88073C45.3843 8.15071 41.144 3.93897 39.9246 2.9516L39.9167 2.94388L39.8066 2.85903H39.7987C38.5793 1.8948 37.3284 1.03086 36.0619 0.274902C41.144 1.52454 46.6116 4.69492 51.261 9.50063C57.4366 15.88 61.8343 24.774 59.3011 33.8146C59.3483 28.0446 57.2006 22.2516 52.8344 17.7313C45.5416 10.1949 34.2918 8.5364 25.2683 12.9256ZM21.4449 46.6581C16.7404 37.926 18.1329 26.8567 25.6302 19.5132C30.1222 15.1163 35.9753 12.8639 41.8599 12.7559C32.5767 10.5189 23.6241 15.0546 17.2753 21.2719C12.5 25.9542 9.4083 31.4002 8.26758 36.4141C9.00708 35.1568 9.84885 33.9071 10.8008 32.6807V32.6729L10.8794 32.5727L10.8873 32.5649C11.8628 31.3462 16.0481 27.0804 15.8907 31.6393C15.8671 32.3567 15.8593 33.2129 15.8986 33.9303C16.1897 38.52 18.0306 43.048 21.4449 46.6581ZM20.0603 10.2643C21.9326 10.7734 23.034 12.6787 22.5148 14.5146C21.9956 16.3505 20.0524 17.4304 18.1801 16.9213C16.3077 16.4122 15.2063 14.5069 15.7255 12.671C16.2448 10.8274 18.1879 9.75518 20.0603 10.2643ZM53.1805 51.6181C43.7244 55.0276 32.7262 52.2043 26.2988 43.9428C22.4519 38.9906 20.9493 33.0046 21.6258 27.2733C18.125 35.9976 21.5236 45.3005 26.9675 52.2969C31.0584 57.5577 36.1484 61.2912 41.0653 63.0654C39.8931 62.1783 38.7366 61.1909 37.6274 60.1033L37.6195 60.0956L37.5251 60.003L37.5173 59.9953C36.4159 58.8845 32.6554 54.2485 37.2419 55.0044C37.9657 55.1201 38.8311 55.2436 39.5548 55.2976C44.2514 55.6524 49.0739 54.4568 53.1805 51.6181ZM22.2788 49.5893C24.1669 50.0445 25.3155 51.9189 24.8513 53.7702C24.3872 55.6215 22.4755 56.7478 20.5874 56.2927C18.6993 55.8375 17.5507 53.9631 18.0148 52.1118C18.479 50.2604 20.3907 49.1342 22.2788 49.5893ZM59.545 7.68017C57.6412 7.29448 55.7767 8.49783 55.3833 10.3646C54.99 12.2313 56.2172 14.0595 58.121 14.4452C60.0249 14.8309 61.8894 13.6275 62.2827 11.7608C62.6761 9.89403 61.4488 8.06586 59.545 7.68017Z" fill="#EB5939"/>
<path fill-rule="evenodd" clip-rule="evenodd" d="M5.444 74.6051L4.8461 73.2397H2.13197L1.53407 74.6051H0L2.7928 68.2721H4.18527L6.97807 74.6051H5.444ZM3.49297 70.1619L2.68266 71.9978H4.29541L3.49297 70.1619ZM10.5497 74.6051H7.72544V68.2721H10.235C10.6756 68.2721 11.0532 68.326 11.3679 68.4263C11.6826 68.5266 11.9264 68.6655 12.0838 68.8429C12.3749 69.1669 12.5165 69.5371 12.5165 69.9459C12.5165 70.4396 12.3513 70.8099 12.0287 71.049C11.9186 71.1339 11.8399 71.1879 11.8006 71.211C11.7612 71.2342 11.6826 71.265 11.5724 71.319C11.9736 71.4039 12.2883 71.5813 12.5322 71.8513C12.7682 72.1212 12.8862 72.4529 12.8862 72.8541C12.8862 73.2937 12.7289 73.6872 12.4221 74.0188C12.0602 74.4122 11.4387 74.6051 10.5497 74.6051ZM9.16511 70.8408H9.84954C10.2508 70.8408 10.5497 70.8022 10.7385 70.7173C10.9352 70.6325 11.0296 70.4473 11.0296 70.1697C11.0296 69.892 10.9431 69.7068 10.7621 69.6143C10.5812 69.5217 10.2822 69.4754 9.85741 69.4754H9.16511V70.8408ZM9.16511 73.4095H10.1564C10.5654 73.4095 10.8801 73.3632 11.0847 73.2629C11.2892 73.1626 11.3915 72.9698 11.3915 72.6766C11.3915 72.3835 11.2813 72.1907 11.0611 72.0981C10.8408 72.0055 10.4946 71.9593 10.0147 71.9593H9.16511V73.4095ZM16.1668 69.3751C15.9229 69.3751 15.7341 69.4291 15.6004 69.5448C15.4587 69.6528 15.3958 69.8071 15.3958 69.9922C15.3958 70.1774 15.4823 70.3239 15.6476 70.4319C15.8206 70.5399 16.2061 70.671 16.8197 70.8176C17.4334 70.9642 17.9054 71.1879 18.2437 71.481C18.582 71.7741 18.755 72.2061 18.755 72.7769C18.755 73.3477 18.5348 73.8029 18.1021 74.1577C17.6694 74.5125 17.0951 74.6899 16.3871 74.6899C15.3643 74.6899 14.4439 74.3197 13.6257 73.5792L14.4832 72.5455C15.1755 73.1395 15.8206 73.4403 16.4107 73.4403C16.6781 73.4403 16.8827 73.3863 17.0322 73.2706C17.1816 73.1549 17.2603 73.0083 17.2603 72.8155C17.2603 72.6226 17.1816 72.4761 17.0164 72.3604C16.8591 72.2447 16.5365 72.1367 16.0645 72.021C15.3093 71.8436 14.7664 71.6199 14.4124 71.3344C14.0663 71.0567 13.8932 70.6093 13.8932 70.0154C13.8932 69.4137 14.1135 68.9509 14.554 68.6269C14.9946 68.3029 15.5453 68.1409 16.2061 68.1409C16.6388 68.1409 17.0715 68.2103 17.4963 68.3569C17.929 68.5035 18.3066 68.704 18.6213 68.974L17.8897 70.0077C17.339 69.5834 16.7647 69.3751 16.1668 69.3751ZM22.6571 69.4985V74.6051H21.2174V69.4985H19.3923V68.2721H24.4901V69.4985H22.6571ZM30.7759 70.3779C30.7759 71.3961 30.3668 72.0441 29.5486 72.3449L31.185 74.6128H29.4149L27.9831 72.5918H26.984V74.6128H25.5443V68.2798H27.991C28.9979 68.2798 29.7138 68.4495 30.1387 68.7812C30.5635 69.1051 30.7759 69.6451 30.7759 70.3779ZM28.0382 71.3653C28.5338 71.3653 28.8642 71.2882 29.0451 71.1339C29.2261 70.9796 29.3126 70.725 29.3126 70.3856C29.3126 70.0462 29.2182 69.8071 29.0373 69.6837C28.8563 69.5603 28.5259 69.4908 28.0696 69.4908H26.984V71.3653H28.0382ZM36.8571 74.6051L36.2592 73.2397H33.553L32.9551 74.6051H31.421L34.2138 68.2721H35.6062L38.3991 74.6051H36.8571ZM34.9061 70.1619L34.0958 71.9978H35.7085L34.9061 70.1619ZM42.1044 73.3555C42.8125 73.3555 43.3946 73.0778 43.843 72.5301L44.7635 73.4634C44.0319 74.2734 43.1665 74.6745 42.1752 74.6745C41.184 74.6745 40.3579 74.366 39.7207 73.7489C39.0756 73.1318 38.7531 72.3527 38.7531 71.4193C38.7531 70.4782 39.0835 69.6991 39.7364 69.0666C40.3894 68.4418 41.1919 68.1255 42.1438 68.1255C43.2058 68.1255 44.0869 68.5189 44.8028 69.3134L43.906 70.3085C43.4497 69.7531 42.8833 69.4754 42.2067 69.4754C41.6639 69.4754 41.1997 69.6528 40.8142 69.9999C40.4288 70.3471 40.2399 70.8176 40.2399 71.4039C40.2399 71.9901 40.4209 72.4684 40.7828 72.8232C41.1447 73.178 41.5852 73.3555 42.1044 73.3555ZM48.6341 69.4985V74.6051H47.1944V69.4985H45.3693V68.2721H50.4671V69.4985H48.6341ZM53.9522 74.6051V68.2721H55.3919V73.3477H58.1453V74.6051H53.9522ZM63.9669 71.4039C63.9669 70.8408 63.786 70.3548 63.4163 69.9614C63.0465 69.5603 62.5902 69.3674 62.0553 69.3674C61.5124 69.3674 61.064 69.568 60.6943 69.9614C60.3245 70.3625 60.1436 70.8408 60.1436 71.4039C60.1436 71.967 60.3245 72.4452 60.6943 72.8463C61.064 73.2398 61.5203 73.4403 62.0553 73.4403C62.5902 73.4403 63.0465 73.2398 63.4163 72.8463C63.786 72.4529 63.9669 71.9747 63.9669 71.4039ZM64.4626 73.7334C63.8096 74.3583 63.0072 74.6745 62.0553 74.6745C61.1033 74.6745 60.293 74.366 59.6479 73.7334C58.995 73.1086 58.6724 72.3295 58.6724 71.4039C58.6724 70.4705 59.0028 69.6991 59.6479 69.0743C60.3009 68.4495 61.1033 68.1332 62.0553 68.1332C63.0072 68.1332 63.8096 68.4495 64.4626 69.0743C65.1155 69.6991 65.4381 70.4782 65.4381 71.4039C65.4381 72.3295 65.1155 73.1086 64.4626 73.7334ZM70.8506 71.3807H72.2982V73.6254C71.6609 74.3274 70.7719 74.6745 69.6391 74.6745C68.6872 74.6745 67.8926 74.366 67.2475 73.7489C66.6024 73.1318 66.2799 72.3527 66.2799 71.4193C66.2799 70.4782 66.6103 69.6991 67.2632 69.0666C67.9162 68.4418 68.7108 68.1255 69.6391 68.1255C70.5674 68.1255 71.3698 68.4263 72.0543 69.0203L71.3069 70.0771C71.0158 69.8302 70.7483 69.6605 70.5045 69.568C70.2606 69.4754 70.001 69.4291 69.7178 69.4291C69.1671 69.4291 68.7108 69.6143 68.3332 69.9768C67.9555 70.3394 67.7667 70.8253 67.7667 71.4193C67.7667 72.0133 67.9477 72.4992 68.3096 72.8541C68.6714 73.2166 69.0963 73.394 69.5998 73.394C70.0954 73.394 70.5123 73.3015 70.8506 73.1163V71.3807ZM78.5289 71.4039C78.5289 70.8408 78.3479 70.3548 77.9782 69.9614C77.6084 69.5603 77.1521 69.3674 76.6172 69.3674C76.0822 69.3674 75.6259 69.568 75.2562 69.9614C74.8864 70.3625 74.7055 70.8408 74.7055 71.4039C74.7055 71.967 74.8864 72.4452 75.2562 72.8463C75.6259 73.2398 76.0822 73.4403 76.6172 73.4403C77.1521 73.4403 77.6084 73.2398 77.9782 72.8463C78.34 72.4529 78.5289 71.9747 78.5289 71.4039ZM79.0166 73.7334C78.3636 74.3583 77.5612 74.6745 76.6093 74.6745C75.6574 74.6745 74.8471 74.366 74.202 73.7334C73.549 73.1086 73.2265 72.3295 73.2265 71.4039C73.2265 70.4705 73.549 69.6991 74.202 69.0743C74.8549 68.4495 75.6574 68.1332 76.6093 68.1332C77.5612 68.1332 78.3636 68.4495 79.0166 69.0743C79.6696 69.6991 79.9921 70.4782 79.9921 71.4039C80 72.3295 79.6696 73.1086 79.0166 73.7334Z" fill="white"/>
<path fill-rule="evenodd" clip-rule="evenodd" d="M11.392 77.9062C11.2583 77.9062 11.1481 77.9371 11.0616 77.9833C10.9751 78.0373 10.9357 78.1222 10.9357 78.2302C10.9357 78.3382 10.9751 78.423 11.0616 78.477C11.1481 78.531 11.3291 78.6004 11.6123 78.6622C11.8955 78.7316 12.1079 78.8241 12.2495 78.9399C12.3911 79.0633 12.4619 79.2407 12.4619 79.4721C12.4619 79.7035 12.3754 79.8964 12.1945 80.0429C12.0135 80.1895 11.7775 80.2589 11.4864 80.2589C11.0537 80.2589 10.6761 80.1123 10.3457 79.8269L10.6368 79.4875C10.9121 79.7267 11.2032 79.8424 11.5022 79.8424C11.6516 79.8424 11.7696 79.8115 11.8562 79.7498C11.9427 79.6881 11.9899 79.6032 11.9899 79.503C11.9899 79.4027 11.9506 79.3178 11.864 79.2638C11.7854 79.2098 11.6359 79.1558 11.4392 79.1095C11.2347 79.0633 11.0852 79.017 10.9829 78.9784C10.8807 78.9398 10.7863 78.8859 10.7076 78.8241C10.5424 78.7007 10.4637 78.5156 10.4637 78.2687C10.4637 78.0219 10.5581 77.8291 10.7391 77.6902C10.92 77.5514 11.1481 77.4896 11.4235 77.4896C11.5966 77.4896 11.7696 77.5205 11.9427 77.5745C12.1158 77.6285 12.2653 77.7133 12.3911 77.8136L12.1473 78.153C12.0686 78.0836 11.9584 78.0219 11.8168 77.9756C11.6595 77.9293 11.5258 77.9062 11.392 77.9062ZM16.4269 80.2435V77.5514H16.8911V79.8115H18.1419V80.2435H16.4269ZM23.9164 78.1916C23.7276 77.9988 23.4994 77.9062 23.2241 77.9062C22.9487 77.9062 22.7206 77.9988 22.5318 78.1916C22.3429 78.3845 22.2485 78.6082 22.2485 78.8859C22.2485 79.1558 22.3429 79.3872 22.5318 79.5801C22.7206 79.7729 22.9487 79.8655 23.2241 79.8655C23.4994 79.8655 23.7276 79.7729 23.9164 79.5801C24.1052 79.3872 24.1996 79.1636 24.1996 78.8859C24.1996 78.6082 24.1052 78.3767 23.9164 78.1916ZM24.2546 79.8732C23.9793 80.1355 23.6331 80.2743 23.2241 80.2743C22.815 80.2743 22.4767 80.1432 22.1935 79.8732C21.9181 79.611 21.7765 79.2793 21.7765 78.8781C21.7765 78.4847 21.9181 78.153 22.1935 77.8831C22.4688 77.6208 22.815 77.4819 23.2241 77.4819C23.6331 77.4819 23.9714 77.6131 24.2546 77.8831C24.53 78.1453 24.6716 78.477 24.6716 78.8781C24.6716 79.2793 24.53 79.611 24.2546 79.8732ZM30.5483 78.9399H31.0124V79.8578C30.7528 80.1355 30.3831 80.2743 29.9032 80.2743C29.4941 80.2743 29.1558 80.1432 28.8883 79.8809C28.613 79.6187 28.4792 79.287 28.4792 78.8859C28.4792 78.4847 28.6209 78.153 28.8962 77.8831C29.1715 77.6131 29.5098 77.4819 29.9032 77.4819C30.2965 77.4819 30.6269 77.5976 30.8866 77.8213L30.6427 78.1685C30.5325 78.0759 30.4303 78.0142 30.3201 77.9833C30.21 77.9448 30.0841 77.9293 29.9425 77.9293C29.6672 77.9293 29.4312 78.0142 29.2423 78.1916C29.0535 78.369 28.9591 78.6004 28.9591 78.8859C28.9591 79.1713 29.0535 79.4027 29.2345 79.5724C29.4154 79.7421 29.6357 79.8347 29.9032 79.8347C30.1628 79.8347 30.3831 79.7807 30.5561 79.6727V78.9399H30.5483ZM35.3708 79.6341L35.0954 80.2435H34.5998L35.8113 77.5514H36.307L37.5185 80.2435H37.0229L36.7475 79.6341H35.3708ZM36.5587 79.2175L36.0631 78.1068L35.5675 79.2175H36.5587ZM43.348 77.5514H43.8121V80.2435H43.3086L41.751 78.2842V80.2435H41.2868V77.5514H41.751L43.348 79.5647V77.5514ZM49.0358 80.2435V77.5514H49.5V78.7161H50.861V77.5514H51.3251V80.2435H50.861V79.1404H49.5V80.2435H49.0358ZM57.4064 77.5514V77.9756H55.9431V78.6853H57.2569V79.0864H55.9431V79.8038H57.4536V80.2281H55.4789V77.5359H57.4064V77.5514ZM63.6292 78.4307C63.6292 78.8781 63.4325 79.1558 63.0392 79.2715L63.7551 80.2512H63.1651L62.5121 79.3487H61.9063V80.2512H61.4422V77.5591H62.4649C62.8818 77.5591 63.1808 77.6285 63.3617 77.7673C63.5427 77.8985 63.6292 78.1222 63.6292 78.4307ZM62.4806 78.9321C62.7402 78.9321 62.9212 78.8936 63.0156 78.8164C63.11 78.7393 63.1572 78.6082 63.1572 78.4307C63.1572 78.2533 63.11 78.1376 63.0156 78.0682C62.9212 78.0065 62.7481 77.9679 62.4964 77.9679H61.9063V78.9321H62.4806ZM69.616 77.5514V77.9756H68.1528V78.6853H69.4666V79.0864H68.1528V79.8038H69.6632V80.2281H67.6886V77.5359H69.616V77.5514Z" fill="white"/>
</svg>
