<svg width="97" height="91" viewBox="0 0 97 91" fill="none" xmlns="http://www.w3.org/2000/svg">
<path fill-rule="evenodd" clip-rule="evenodd" d="M63.088 11.7919C82.245 14.9505 96.8491 31.2375 96.8491 50.8391C96.8491 72.7155 78.6772 90.4454 56.2852 90.4454C33.8798 90.4454 15.7212 72.7025 15.7212 50.8391C15.7212 46.7576 16.3603 42.8061 17.5318 39.1016C17.7315 38.4386 17.9578 37.7887 18.2107 37.1388C18.5302 36.2939 18.8764 35.449 19.2624 34.6301C19.1692 34.8771 19.0761 35.137 18.9829 35.384C22.564 27.9359 29.7262 21.9566 38.7789 16.8482C27.9157 19.8899 20.2476 28.0529 15.2154 38.1527C12.7791 32.1734 9.91689 26.831 5.45712 25.5832C12.1268 29.4307 14.5763 39.8295 13.7376 46.9396C10.7822 35.436 -1.4655 38.9846 0.145338 16.5103C2.35525 22.1646 12.007 20.0329 15.0157 32.6023C23.2962 7.59336 40.6826 14.6385 51.1864 0.847168C50.3876 36.0079 26.3581 35.9429 18.9695 48.8634C15.9742 54.1018 18.5835 60.146 21.246 65.0074C27.5962 76.5891 40.1102 84.4791 54.5146 84.4791C75.3357 84.4791 92.2295 67.9971 92.2295 47.6545C92.2429 30.2106 79.7954 15.5744 63.088 11.7919Z" fill="#C4CFDE"/>
<path fill-rule="evenodd" clip-rule="evenodd" d="M72.1677 18.2139C73.2593 18.2139 74.138 19.0718 74.138 20.1376C74.138 21.2035 73.2593 22.0614 72.1677 22.0614C71.0761 22.0614 70.1974 21.2035 70.1974 20.1376C70.1841 19.0718 71.0761 18.2139 72.1677 18.2139Z" fill="#C4CFDE"/>
<path fill-rule="evenodd" clip-rule="evenodd" d="M77.1202 24.0625C78.6245 24.0625 79.836 25.2584 79.836 26.7272C79.836 28.196 78.6112 29.3789 77.1202 29.3789C75.6159 29.3789 74.4044 28.183 74.4044 26.7272C74.3911 25.2454 75.6159 24.0625 77.1202 24.0625Z" fill="#C4CFDE"/>
<path fill-rule="evenodd" clip-rule="evenodd" d="M23.2445 48.499C24.5891 48.499 25.694 49.5649 25.694 50.8907C25.694 52.2036 24.6024 53.2824 23.2445 53.2824C21.8999 53.2824 20.7949 52.2166 20.7949 50.8907C20.7949 49.5649 21.8999 48.499 23.2445 48.499Z" fill="#C4CFDE"/>
<path fill-rule="evenodd" clip-rule="evenodd" d="M81.6081 32.5898C83.3121 32.5898 84.6966 33.9417 84.6966 35.6055C84.6966 37.2693 83.3121 38.6211 81.6081 38.6211C79.9041 38.6211 78.5195 37.2693 78.5195 35.6055C78.5195 33.9547 79.9041 32.5898 81.6081 32.5898Z" fill="#C4CFDE"/>
<path fill-rule="evenodd" clip-rule="evenodd" d="M84.6548 42.6631C86.5718 42.6631 88.1161 44.1839 88.1161 46.0427C88.1161 47.9145 86.5585 49.4223 84.6548 49.4223C82.7377 49.4223 81.1934 47.9015 81.1934 46.0427C81.1801 44.1839 82.7377 42.6631 84.6548 42.6631Z" fill="#C4CFDE"/>
<path fill-rule="evenodd" clip-rule="evenodd" d="M26.7706 56.5327C28.3814 56.5327 29.6994 57.8066 29.6994 59.3924C29.6994 60.9652 28.3948 62.252 26.7706 62.252C25.1598 62.252 23.8418 60.9782 23.8418 59.3924C23.8418 57.8066 25.1464 56.5327 26.7706 56.5327Z" fill="#C4CFDE"/>
<path fill-rule="evenodd" clip-rule="evenodd" d="M82.6838 53.5552C84.8005 53.5552 86.5178 55.232 86.5178 57.2987C86.5178 59.3655 84.8005 61.0423 82.6838 61.0423C80.567 61.0423 78.8497 59.3655 78.8497 57.2987C78.8364 55.232 80.567 53.5552 82.6838 53.5552Z" fill="#C4CFDE"/>
<path fill-rule="evenodd" clip-rule="evenodd" d="M34.1739 64.019C36.2906 64.019 38.008 65.6958 38.008 67.7626C38.008 69.8293 36.2906 71.5061 34.1739 71.5061C32.0572 71.5061 30.3398 69.8293 30.3398 67.7626C30.3398 65.6958 32.0572 64.019 34.1739 64.019Z" fill="#C4CFDE"/>
<path fill-rule="evenodd" clip-rule="evenodd" d="M74.8279 63.9419C77.1576 63.9419 79.0347 65.7877 79.0347 68.0494C79.0347 70.3241 77.1443 72.1569 74.8279 72.1569C72.4982 72.1569 70.6211 70.3111 70.6211 68.0494C70.6211 65.7747 72.5115 63.9419 74.8279 63.9419Z" fill="#C4CFDE"/>
<path fill-rule="evenodd" clip-rule="evenodd" d="M62.1421 70.0376C64.6715 70.0376 66.7217 72.0394 66.7217 74.5091C66.7217 76.9788 64.6715 78.9805 62.1421 78.9805C59.6127 78.9805 57.5625 76.9788 57.5625 74.5091C57.5625 72.0394 59.6127 70.0376 62.1421 70.0376Z" fill="#C4CFDE"/>
<path fill-rule="evenodd" clip-rule="evenodd" d="M46.4328 69.2192C49.1619 69.2192 51.3851 71.377 51.3851 74.0547C51.3851 76.7193 49.1619 78.8901 46.4328 78.8901C43.7037 78.8901 41.4805 76.7323 41.4805 74.0547C41.4805 71.377 43.7037 69.2192 46.4328 69.2192Z" fill="#C4CFDE"/>
</svg>
