<svg width="116" height="94" viewBox="0 0 116 94" fill="none" xmlns="http://www.w3.org/2000/svg">
<path fill-rule="evenodd" clip-rule="evenodd" d="M44.2882 0.679199C53.1727 0.679199 61.3748 4.1291 67.9681 9.96961C62.3498 5.90416 55.7321 3.57082 48.6513 3.57082C28.2497 3.57082 11.6994 23.0105 11.6994 46.9738C11.6994 55.892 13.9906 64.1804 17.9149 71.0802C15.0753 70.6937 11.9675 69.9207 9.38383 68.4749C6.50763 62.0474 4.88672 54.7468 4.88672 46.9881C4.88672 21.4073 22.5339 0.679199 44.2882 0.679199ZM28.0304 82.9902C33.9168 87.6569 41.0098 90.3767 48.6513 90.3767C55.7321 90.3767 62.3498 88.0291 67.9681 83.978C61.3748 89.8041 53.1727 93.2684 44.2882 93.2684C34.6481 93.2684 25.8123 89.2029 18.963 82.4463C19.4505 82.5178 19.9258 82.5751 20.3768 82.6323C22.8873 82.89 25.4345 83.0189 28.0304 82.9902Z" fill="#C4CFDE"/>
<path fill-rule="evenodd" clip-rule="evenodd" d="M48.6381 88.9444C41.8985 88.9444 35.5977 86.7542 30.2109 82.9464C30.479 82.9321 30.7349 82.9321 31.0031 82.9178C35.1833 85.1223 39.8145 86.3391 44.6894 86.3391C54.5245 86.3391 63.3725 81.3575 69.5027 73.427C72.8542 71.9382 76.1569 70.249 79.3866 68.3738C73.1589 80.6846 61.715 88.9444 48.6381 88.9444ZM77.9728 51.6253C78.1313 50.0936 78.2044 48.5476 78.2044 46.9729C78.2044 25.2285 63.1897 7.60679 44.6894 7.60679C38.2667 7.60679 32.2705 9.7254 27.1641 13.4187C33.148 8.13644 40.5823 5.00146 48.6381 5.00146C68.3083 5.00146 84.2615 23.6682 84.3712 46.7296C84.1031 46.9443 83.8349 47.1733 83.5668 47.3881C81.7387 48.8339 79.8741 50.2654 77.9728 51.6253Z" fill="#C4CFDE"/>
<path fill-rule="evenodd" clip-rule="evenodd" d="M107.527 40.1596C99.3734 51.7404 82.7865 65.9695 62.0315 73.4276C30.9296 84.6219 3.27664 81.5012 0.266379 66.4848C-0.416108 63.0635 0.229818 59.3273 2.00916 55.4623C1.43636 57.8386 1.32667 60.1147 1.72885 62.2333C4.47099 76.5482 29.6012 78.3519 57.8635 66.2558C76.2054 58.4112 92.9385 44.1821 102.042 33.0451L91.537 31.0696L115.522 22.7812L109.44 50.1658L107.527 40.1596Z" fill="#C4CFDE"/>
<path fill-rule="evenodd" clip-rule="evenodd" d="M20.8027 43.9253H35.6834V70.136C31.1376 70.9806 26.6039 71.4243 22.2286 71.2955C21.7777 71.2812 21.3024 71.2669 20.8149 71.2239V43.9253H20.8027Z" fill="#C4CFDE"/>
<path fill-rule="evenodd" clip-rule="evenodd" d="M57.8652 30.8413H72.7459V55.1195C67.7735 58.2974 62.728 61.0172 57.8652 63.1502V30.8413Z" fill="#C4CFDE"/>
<path fill-rule="evenodd" clip-rule="evenodd" d="M39 36.4102H53.8807V64.7824C49.1398 66.6433 44.0943 68.2753 39 69.4348V36.4102Z" fill="#C4CFDE"/>
</svg>
