<svg width="80" height="81" viewBox="0 0 80 81" fill="none" xmlns="http://www.w3.org/2000/svg">
<path fill-rule="evenodd" clip-rule="evenodd" d="M44.5178 7.63746C57.4048 9.76228 67.2291 20.7187 67.2291 33.9048C67.2291 48.6212 55.0047 60.5482 39.9415 60.5482C24.8693 60.5482 12.6539 48.6124 12.6539 33.9048C12.6539 31.1592 13.0838 28.5009 13.8719 26.0089C14.0062 25.5629 14.1584 25.1257 14.3286 24.6885C14.5435 24.1201 14.7764 23.5518 15.0361 23.0009C14.9734 23.167 14.9107 23.3419 14.848 23.508C17.2571 18.4977 22.0751 14.4754 28.1649 11.0389C20.8572 13.085 15.6988 18.5764 12.3136 25.3705C10.6747 21.3482 8.74927 17.7544 5.74916 16.915C10.2359 19.5032 11.8837 26.4985 11.3195 31.2816C9.33139 23.543 1.09227 25.9302 2.17589 10.8116C3.66252 14.6153 10.1553 13.1812 12.1793 21.6368C17.7496 4.8131 29.4456 9.55242 36.5115 0.274902C35.9742 23.9278 19.8094 23.884 14.8391 32.5757C12.8241 36.0996 14.5793 40.1656 16.3705 43.4359C20.6423 51.2269 29.0605 56.5346 38.7504 56.5346C52.7569 56.5346 64.1215 45.4471 64.1215 31.7625C64.1304 20.0279 55.757 10.182 44.5178 7.63746Z" fill="#EB5939"/>
<path fill-rule="evenodd" clip-rule="evenodd" d="M50.6263 11.9575C51.3607 11.9575 51.9517 12.5346 51.9517 13.2517C51.9517 13.9687 51.3607 14.5458 50.6263 14.5458C49.8919 14.5458 49.3009 13.9687 49.3009 13.2517C49.2919 12.5346 49.8919 11.9575 50.6263 11.9575Z" fill="#EB5939"/>
<path fill-rule="evenodd" clip-rule="evenodd" d="M53.9579 15.8921C54.9698 15.8921 55.7848 16.6965 55.7848 17.6846C55.7848 18.6727 54.9609 19.4684 53.9579 19.4684C52.9459 19.4684 52.1309 18.664 52.1309 17.6846C52.122 16.6878 52.9459 15.8921 53.9579 15.8921Z" fill="#EB5939"/>
<path fill-rule="evenodd" clip-rule="evenodd" d="M17.7142 32.3306C18.6187 32.3306 19.3621 33.0476 19.3621 33.9395C19.3621 34.8226 18.6277 35.5484 17.7142 35.5484C16.8097 35.5484 16.0664 34.8314 16.0664 33.9395C16.0664 33.0476 16.8097 32.3306 17.7142 32.3306Z" fill="#EB5939"/>
<path fill-rule="evenodd" clip-rule="evenodd" d="M56.9761 21.6284C58.1224 21.6284 59.0538 22.5378 59.0538 23.6571C59.0538 24.7763 58.1224 25.6857 56.9761 25.6857C55.8298 25.6857 54.8984 24.7763 54.8984 23.6571C54.8984 22.5466 55.8298 21.6284 56.9761 21.6284Z" fill="#EB5939"/>
<path fill-rule="evenodd" clip-rule="evenodd" d="M59.0258 28.4048C60.3154 28.4048 61.3542 29.4278 61.3542 30.6783C61.3542 31.9374 60.3064 32.9517 59.0258 32.9517C57.7362 32.9517 56.6973 31.9287 56.6973 30.6783C56.6884 29.4278 57.7362 28.4048 59.0258 28.4048Z" fill="#EB5939"/>
<path fill-rule="evenodd" clip-rule="evenodd" d="M20.0874 37.7349C21.171 37.7349 22.0576 38.5918 22.0576 39.6586C22.0576 40.7166 21.18 41.5823 20.0874 41.5823C19.0038 41.5823 18.1172 40.7254 18.1172 39.6586C18.1172 38.5918 18.9948 37.7349 20.0874 37.7349Z" fill="#EB5939"/>
<path fill-rule="evenodd" clip-rule="evenodd" d="M57.7003 35.7319C59.1243 35.7319 60.2795 36.8599 60.2795 38.2502C60.2795 39.6406 59.1243 40.7686 57.7003 40.7686C56.2764 40.7686 55.1211 39.6406 55.1211 38.2502C55.1122 36.8599 56.2764 35.7319 57.7003 35.7319Z" fill="#EB5939"/>
<path fill-rule="evenodd" clip-rule="evenodd" d="M25.0675 42.771C26.4914 42.771 27.6467 43.899 27.6467 45.2893C27.6467 46.6796 26.4914 47.8076 25.0675 47.8076C23.6435 47.8076 22.4883 46.6796 22.4883 45.2893C22.4883 43.899 23.6435 42.771 25.0675 42.771Z" fill="#EB5939"/>
<path fill-rule="evenodd" clip-rule="evenodd" d="M52.4159 42.7192C53.9831 42.7192 55.2458 43.9609 55.2458 45.4824C55.2458 47.0126 53.9742 48.2455 52.4159 48.2455C50.8487 48.2455 49.5859 47.0039 49.5859 45.4824C49.5859 43.9522 50.8576 42.7192 52.4159 42.7192Z" fill="#EB5939"/>
<path fill-rule="evenodd" clip-rule="evenodd" d="M43.8815 46.8198C45.583 46.8198 46.9622 48.1664 46.9622 49.8278C46.9622 51.4892 45.583 52.8358 43.8815 52.8358C42.1799 52.8358 40.8008 51.4892 40.8008 49.8278C40.8008 48.1664 42.1799 46.8198 43.8815 46.8198Z" fill="#EB5939"/>
<path fill-rule="evenodd" clip-rule="evenodd" d="M33.3139 46.269C35.1498 46.269 36.6454 47.7206 36.6454 49.5219C36.6454 51.3144 35.1498 52.7747 33.3139 52.7747C31.478 52.7747 29.9824 51.3231 29.9824 49.5219C29.9824 47.7206 31.478 46.269 33.3139 46.269Z" fill="#EB5939"/>
<path fill-rule="evenodd" clip-rule="evenodd" d="M5.7226 71.1895C5.7226 70.5861 5.52558 70.0702 5.12258 69.6417C4.72853 69.2133 4.23598 69.0034 3.65387 69.0034C3.07176 69.0034 2.58816 69.2133 2.18516 69.6417C1.79111 70.0702 1.59409 70.5861 1.59409 71.1895C1.59409 71.7928 1.79111 72.3087 2.19411 72.7372C2.58816 73.1656 3.08071 73.3755 3.66282 73.3755C4.24493 73.3755 4.72853 73.1656 5.13153 72.7372C5.51662 72.3087 5.7226 71.8015 5.7226 71.1895ZM6.25098 73.6903C5.55245 74.3636 4.68376 74.6958 3.65387 74.6958C2.62398 74.6958 1.76424 74.3636 1.05676 73.6903C0.349267 73.017 0 72.1863 0 71.1895C0 70.1926 0.349267 69.3532 1.05676 68.6886C1.75529 68.0153 2.62398 67.6831 3.65387 67.6831C4.68376 67.6831 5.54349 68.0153 6.25098 68.6886C6.94951 69.3532 7.29878 70.1926 7.29878 71.1895C7.29878 72.1863 6.94951 73.017 6.25098 73.6903ZM14.2572 70.0877C14.2572 71.172 13.8184 71.8802 12.9318 72.195L14.6961 74.6259H12.7885L11.2482 72.4574H10.1735V74.6259H8.61525V67.8405H11.2482C12.3318 67.8405 13.102 68.0153 13.5587 68.3738C14.0244 68.7236 14.2572 69.3007 14.2572 70.0877ZM11.3019 71.1457C11.8303 71.1457 12.1975 71.0583 12.3855 70.8922C12.5736 70.726 12.6721 70.4549 12.6721 70.0877C12.6721 69.7204 12.5736 69.4669 12.3766 69.3357C12.1796 69.1958 11.8303 69.1346 11.3288 69.1346H10.1646V71.1457H11.3019ZM20.3649 71.1632H21.9232V73.5679C21.2336 74.3198 20.2754 74.6958 19.0574 74.6958C18.0365 74.6958 17.1768 74.3636 16.4872 73.7078C15.7976 73.0432 15.4483 72.2125 15.4483 71.2069C15.4483 70.2014 15.7976 69.3619 16.5051 68.6886C17.2126 68.0153 18.0634 67.6743 19.0574 67.6743C20.0515 67.6743 20.9202 67.9978 21.6545 68.6362L20.8485 69.7729C20.5351 69.5106 20.2485 69.327 19.9888 69.222C19.7291 69.1258 19.4425 69.0734 19.138 69.0734C18.547 69.0734 18.0544 69.2657 17.6424 69.6592C17.2394 70.0527 17.0335 70.5686 17.0335 71.2069C17.0335 71.8453 17.2305 72.3612 17.6156 72.7459C18.0007 73.1306 18.4664 73.323 19.0037 73.323C19.541 73.323 19.9888 73.2181 20.347 73.0257V71.1632H20.3649ZM28.2011 74.6259L27.5563 73.1569H24.6457L24.0009 74.6259H22.3531L25.3532 67.8405H26.8577L29.8578 74.6259H28.2011ZM26.1055 69.8603L25.2278 71.8278H26.9652L26.1055 69.8603ZM35.5267 67.8317H37.076V74.6171H35.5267L32.2131 70.3588V74.6171H30.6638V67.8317H32.1146L35.5267 72.2038V67.8317ZM38.7865 67.8317H40.3358V74.6171H38.7865V67.8317ZM45.2435 73.288C46.0047 73.288 46.6316 72.9907 47.1152 72.4049L48.1093 73.4017C47.3212 74.2674 46.3898 74.7046 45.3151 74.7046C44.2405 74.7046 43.3628 74.3723 42.6732 73.7165C41.9837 73.052 41.6344 72.2213 41.6344 71.2157C41.6344 70.2101 41.9837 69.3707 42.6911 68.6974C43.3986 68.0241 44.2584 67.6831 45.2793 67.6831C46.4167 67.6831 47.3749 68.1028 48.1451 68.9597L47.1779 70.0265C46.6853 69.4319 46.0763 69.1346 45.3509 69.1346C44.7688 69.1346 44.2673 69.3182 43.8554 69.6942C43.4434 70.0702 43.2374 70.5686 43.2374 71.1982C43.2374 71.8278 43.4345 72.3349 43.8285 72.7197C44.2136 73.0957 44.6882 73.288 45.2435 73.288ZM51.9512 74.6259V67.8405H53.5005V73.2793H56.4648V74.6259H51.9512ZM62.7426 71.1895C62.7426 70.5861 62.5456 70.0702 62.1426 69.6417C61.7486 69.2133 61.256 69.0034 60.6739 69.0034C60.0918 69.0034 59.6082 69.2133 59.2052 69.6417C58.8111 70.0702 58.6052 70.5861 58.6052 71.1895C58.6052 71.7928 58.8022 72.3087 59.2052 72.7372C59.5992 73.1656 60.0918 73.3755 60.6739 73.3755C61.256 73.3755 61.7396 73.1656 62.1426 72.7372C62.5367 72.3087 62.7426 71.8015 62.7426 71.1895ZM63.2621 73.6903C62.5635 74.3636 61.6948 74.6958 60.6649 74.6958C59.6351 74.6958 58.7753 74.3636 58.0678 73.6903C57.3603 73.017 57.0111 72.1863 57.0111 71.1895C57.0111 70.1926 57.3603 69.3619 58.0678 68.6886C58.7664 68.0153 59.6351 67.6831 60.6649 67.6831C61.6948 67.6831 62.5546 68.0153 63.2621 68.6886C63.9695 69.3619 64.3188 70.1926 64.3188 71.1895C64.3188 72.1863 63.9695 73.017 63.2621 73.6903ZM70.1489 71.1632H71.7072V73.5679C71.0176 74.3198 70.0593 74.6958 68.8414 74.6958C67.8204 74.6958 66.9607 74.3636 66.2711 73.7078C65.5816 73.0432 65.2323 72.2125 65.2323 71.2069C65.2323 70.2014 65.5815 69.3619 66.289 68.6886C66.9965 68.0153 67.8473 67.6743 68.8414 67.6743C69.8354 67.6743 70.7041 67.9978 71.4385 68.6362L70.6325 69.7729C70.319 69.5106 70.0325 69.327 69.7728 69.222C69.513 69.1258 69.2265 69.0734 68.922 69.0734C68.3309 69.0734 67.8384 69.2657 67.4264 69.6592C67.0234 70.0527 66.8174 70.5686 66.8174 71.2069C66.8174 71.8453 67.0144 72.3612 67.3995 72.7459C67.7846 73.1306 68.2503 73.323 68.7876 73.323C69.325 73.323 69.7727 73.2181 70.131 73.0257V71.1632H70.1489ZM78.4149 71.1895C78.4149 70.5861 78.2178 70.0702 77.8148 69.6417C77.4208 69.2133 76.9282 69.0034 76.3461 69.0034C75.764 69.0034 75.2804 69.2133 74.8774 69.6417C74.4834 70.0702 74.2774 70.5861 74.2774 71.1895C74.2774 71.7928 74.4744 72.3087 74.8774 72.7372C75.2715 73.1656 75.764 73.3755 76.3461 73.3755C76.9282 73.3755 77.4118 73.1656 77.8148 72.7372C78.2178 72.3087 78.4149 71.8015 78.4149 71.1895ZM78.9432 73.6903C78.2447 74.3636 77.376 74.6958 76.3461 74.6958C75.3162 74.6958 74.4565 74.3636 73.749 73.6903C73.0505 73.017 72.6923 72.1863 72.6923 71.1895C72.6923 70.1926 73.0415 69.3619 73.749 68.6886C74.4565 68.0153 75.3162 67.6831 76.3461 67.6831C77.376 67.6831 78.2358 68.0153 78.9432 68.6886C79.6507 69.3619 80 70.1926 80 71.1895C80 72.1863 79.6418 73.017 78.9432 73.6903Z" fill="white"/>
<path fill-rule="evenodd" clip-rule="evenodd" d="M2.00521 77.669C1.85296 77.669 1.73654 77.6952 1.63803 77.7564C1.53952 77.8177 1.49474 77.9051 1.49474 78.0275C1.49474 78.1499 1.53952 78.2374 1.63803 78.2986C1.73654 78.3598 1.93356 78.4297 2.24701 78.5084C2.56045 78.5784 2.7933 78.6833 2.94554 78.8145C3.10674 78.9456 3.17839 79.1468 3.17839 79.4003C3.17839 79.6627 3.07988 79.8725 2.88285 80.0299C2.68583 80.1873 2.42612 80.2747 2.09476 80.2747C1.62012 80.2747 1.19921 80.1174 0.832031 79.7938L1.15443 79.4178C1.45892 79.6802 1.78132 79.8113 2.11268 79.8113C2.27388 79.8113 2.40821 79.7763 2.50672 79.7064C2.60523 79.6364 2.65001 79.549 2.65001 79.4353C2.65001 79.3216 2.60523 79.2342 2.51568 79.1642C2.42612 79.103 2.26492 79.0418 2.04103 78.9894C1.81714 78.9369 1.64699 78.8932 1.53056 78.8495C1.41414 78.8057 1.31563 78.7533 1.22608 78.6746C1.04696 78.5434 0.957409 78.3423 0.957409 78.0625C0.957409 77.7914 1.05592 77.5816 1.2619 77.4329C1.46788 77.2843 1.71863 77.2143 2.01416 77.2143C2.21119 77.2143 2.39925 77.2493 2.58732 77.3105C2.77539 77.3717 2.94554 77.4591 3.07988 77.5728L2.80225 77.9488C2.7127 77.8701 2.58732 77.8089 2.43508 77.7564C2.30074 77.6952 2.1485 77.669 2.00521 77.669ZM8.98159 80.2398V77.2755H9.49206V79.7588H10.8712V80.231H8.98159V80.2398ZM18.6805 77.975C18.4745 77.7652 18.2237 77.6603 17.9192 77.6603C17.6147 77.6603 17.364 77.7652 17.158 77.975C16.952 78.1849 16.8446 78.4385 16.8446 78.7358C16.8446 79.0331 16.952 79.2867 17.158 79.4965C17.364 79.7064 17.6147 79.8113 17.9192 79.8113C18.2237 79.8113 18.4745 79.7064 18.6805 79.4965C18.8864 79.2867 18.9939 79.0331 18.9939 78.7358C18.9849 78.4385 18.8864 78.1849 18.6805 77.975ZM19.0566 79.8288C18.7521 80.1174 18.367 80.266 17.9192 80.266C17.4715 80.266 17.0864 80.1174 16.7819 79.8288C16.4774 79.5402 16.3251 79.173 16.3251 78.7358C16.3251 78.2986 16.4774 77.9313 16.7819 77.6428C17.0864 77.3542 17.4625 77.2056 17.9192 77.2056C18.367 77.2056 18.7521 77.3542 19.0566 77.6428C19.3611 77.9313 19.5133 78.2986 19.5133 78.7358C19.5133 79.173 19.3611 79.5402 19.0566 79.8288ZM27.4211 78.797H27.9315V79.8113C27.645 80.1174 27.233 80.2747 26.7046 80.2747C26.2569 80.2747 25.8807 80.1348 25.5762 79.8463C25.2717 79.5577 25.1195 79.1905 25.1195 78.7533C25.1195 78.3161 25.2717 77.9488 25.5852 77.6515C25.8897 77.3542 26.2658 77.2143 26.7046 77.2143C27.1435 77.2143 27.5017 77.3367 27.7972 77.5903L27.5196 77.975C27.4032 77.8789 27.2778 77.8089 27.1614 77.7652C27.0449 77.7302 26.9017 77.704 26.7405 77.704C26.436 77.704 26.1763 77.8002 25.9703 77.9925C25.7643 78.1849 25.6568 78.4385 25.6568 78.7533C25.6568 79.0681 25.7553 79.3216 25.9613 79.514C26.1673 79.7064 26.4091 79.8026 26.6957 79.8026C26.9823 79.8026 27.2241 79.7414 27.4211 79.6189V78.797ZM34.1736 79.5665L33.8691 80.2398H33.3228L34.6572 77.2755H35.2035L36.5378 80.2398H36.0005L35.696 79.5665H34.1736ZM35.4811 79.103L34.9348 77.8876L34.3796 79.103H35.4811ZM44.4008 77.2755H44.9113V80.2398H44.356L42.6366 78.08V80.2398H42.1261V77.2755H42.6366L44.4008 79.4878V77.2755ZM52.1116 80.2398V77.2755H52.622V78.5609H54.1266V77.2755H54.637V80.2398H54.1266V79.0243H52.622V80.2398H52.1116ZM62.7776 77.2755V77.7477H61.1567V78.5347H62.6075V78.9719H61.1567V79.7676H62.8224V80.2398H60.6372V77.2755H62.7776ZM71.0705 78.2374C71.0705 78.727 70.8555 79.0331 70.4167 79.1642L71.2138 80.2398H70.56L69.8346 79.2429H69.1629V80.2398H68.6525V77.2755H69.7809C70.2466 77.2755 70.5779 77.3542 70.7749 77.5029C70.972 77.6603 71.0705 77.9051 71.0705 78.2374ZM69.7988 78.7883C70.0854 78.7883 70.2824 78.7445 70.3898 78.6571C70.4973 78.5696 70.5421 78.4297 70.5421 78.2374C70.5421 78.045 70.4884 77.9138 70.3809 77.8351C70.2734 77.7652 70.0854 77.7302 69.8077 77.7302H69.154V78.7883H69.7988ZM79.1036 77.2755V77.7477H77.4826V78.5347H78.9335V78.9719H77.4826V79.7676H79.1484V80.2398H76.9632V77.2755H79.1036Z" fill="white"/>
</svg>
