<svg width="91" height="93" viewBox="0 0 91 93" fill="none" xmlns="http://www.w3.org/2000/svg">
<path d="M30.0717 73.0523L36.5288 77.2753L44.4216 72.1149L37.9644 67.8919V5.9001L30.4597 0.98584L29.8009 1.41572L0 20.9131V31.241L30.0717 11.5591V73.0523Z" fill="#C4CFDE"/>
<path d="M53.0329 5.9001V70.951L30.4605 85.7241L7.88726 70.951V30.5516L0 35.712V73.0532L30.4605 92.9857L60.921 73.0532V11.5591L90.9982 31.241V20.9131L60.5377 0.98584L53.0329 5.9001Z" fill="#C4CFDE"/>
<path d="M56.8096 80.2178L48.916 85.3844L60.5403 92.9859L91.0008 73.0533V35.713L83.1072 30.5518V67.892L60.5395 82.6651L56.8096 80.2178Z" fill="#C4CFDE"/>
</svg>
