<svg width="80" height="81" viewBox="0 0 80 81" fill="none" xmlns="http://www.w3.org/2000/svg">
<path fill-rule="evenodd" clip-rule="evenodd" d="M38.1085 40.4953C37.9802 40.5203 37.8518 40.5536 37.7235 40.5869H37.7149C34.3524 41.453 31.8711 44.4341 31.8711 47.9816C31.8711 52.2035 35.3877 55.626 39.7256 55.626C41.6508 55.626 43.4219 54.9515 44.7909 53.8273L44.7994 53.9272C48.7438 50.7046 54.2283 49.1307 58.977 52.8363C59.3962 53.336 59.8839 53.7773 60.423 54.1604L60.5 54.2436H60.5428C61.8176 55.1097 63.3663 55.626 65.0433 55.626C69.3813 55.626 72.8978 52.2035 72.8978 47.9816C72.8978 43.7596 69.3813 40.3371 65.0433 40.3371C62.0829 40.3371 59.4989 41.936 58.1641 44.2926L58.1556 44.3009C55.2807 48.8143 49.5909 48.7143 46.4936 43.6097C45.501 39.3212 48.085 37.0062 52.346 35.5989C52.4059 35.5989 52.4743 35.5989 52.5342 35.5989C56.8722 35.5989 60.3887 32.1764 60.3887 27.9545C60.3887 23.7326 56.8722 20.3101 52.5342 20.3101C48.1962 20.3101 44.6797 23.7326 44.6797 27.9545C44.6797 28.146 44.6882 28.3375 44.7053 28.5291C44.7395 28.9371 44.7994 29.3368 44.8936 29.7199C45.7149 35.9903 43.1224 39.2879 38.1085 40.4953Z" fill="#EB5939"/>
<path fill-rule="evenodd" clip-rule="evenodd" d="M39.7347 0.274902C35.3968 0.274902 31.8802 3.69741 31.8802 7.91933C31.8802 12.1413 35.3968 15.5638 39.7347 15.5638C44.0727 15.5638 47.5893 12.1413 47.5893 7.91933C47.5893 3.69741 44.0727 0.274902 39.7347 0.274902ZM14.9561 40.329C10.6181 40.329 7.10156 43.7515 7.10156 47.9735C7.10156 52.1954 10.6181 55.6179 14.9561 55.6179C19.2941 55.6179 22.8107 52.1954 22.8107 47.9735C22.8107 43.7599 19.2941 40.329 14.9561 40.329ZM27.5508 20.302C23.2128 20.302 19.6962 23.7245 19.6962 27.9464C19.6962 32.1683 23.2128 35.5908 27.5508 35.5908C31.8887 35.5908 35.4053 32.1683 35.4053 27.9464C35.4053 23.7245 31.8887 20.302 27.5508 20.302Z" fill="#EB5939"/>
<path fill-rule="evenodd" clip-rule="evenodd" d="M28.8349 34.9747C26.1397 31.2274 24.1119 26.9888 22.9141 22.4338C24.1804 21.4262 25.7889 20.8267 27.5515 20.8267C31.5986 20.8267 34.8756 24.0243 34.8756 27.9548C34.8841 31.4606 32.2745 34.3834 28.8349 34.9747Z" fill="#EB5939"/>
<path fill-rule="evenodd" clip-rule="evenodd" d="M37.8429 41.0869C36.9873 41.3034 36.2087 41.6698 35.5156 42.1444C40.1017 45.975 45.6033 48.7896 51.6525 50.2552C53.5691 50.022 55.5113 50.2885 57.368 51.2128C58.6343 51.3294 59.9092 51.396 61.2097 51.396C64.983 51.396 68.6365 50.8797 72.1017 49.9138C72.2814 49.2976 72.3755 48.6564 72.3755 47.9819C72.3755 44.0431 69.0985 40.8537 65.0514 40.8537C62.3734 40.8537 59.9178 42.2694 58.6343 44.5427L58.6258 44.5594L58.6087 44.576C57.4108 46.458 55.537 47.8653 53.2183 48.0568C50.1124 48.315 47.5541 46.358 46.0482 43.8682L46.0055 43.8016L45.9884 43.7266C45.6119 42.1111 45.6632 40.454 46.5103 38.9801C47.6739 36.9649 50.0183 35.8324 52.183 35.1162L52.2686 35.0829H52.3627C52.4226 35.0829 52.4825 35.0829 52.5424 35.0829C56.5894 35.0829 59.8664 31.8936 59.8664 27.9548C59.8664 24.016 56.5894 20.8267 52.5424 20.8267C48.4953 20.8267 45.2183 24.0243 45.2183 27.9548C45.2183 28.138 45.2269 28.3129 45.2354 28.4877V28.4961C45.2611 28.8708 45.321 29.2455 45.4151 29.6119L45.4236 29.6369V29.6619C46.1766 35.3994 44.2087 39.563 38.245 41.0036H38.2365H38.2279C38.1081 41.0286 37.9884 41.0536 37.8686 41.0869H37.86H37.8429Z" fill="#EB5939"/>
<path d="M39.7342 15.0478C43.7792 15.0478 47.0583 11.8564 47.0583 7.91964C47.0583 3.98288 43.7792 0.791504 39.7342 0.791504C35.6892 0.791504 32.4102 3.98288 32.4102 7.91964C32.4102 11.8564 35.6892 15.0478 39.7342 15.0478Z" fill="#EB5939"/>
<path fill-rule="evenodd" clip-rule="evenodd" d="M5.1508 65.486H6.99893V73.5551H5.1508V70.3824H1.84813V73.5551H0V65.4776H1.84813V68.8502H5.1508V65.486ZM15.3925 69.4747C15.3925 68.7586 15.1529 68.1424 14.6824 67.6344C14.2118 67.1264 13.6214 66.8683 12.9283 66.8683C12.2353 66.8683 11.6535 67.1264 11.1743 67.6344C10.7037 68.1424 10.4642 68.7586 10.4642 69.4747C10.4642 70.1909 10.7037 70.8071 11.1743 71.315C11.6449 71.823 12.2353 72.0728 12.9283 72.0728C13.6214 72.0728 14.2032 71.823 14.6824 71.315C15.1529 70.8071 15.3925 70.1909 15.3925 69.4747ZM16.0257 72.4475C15.1872 73.247 14.1519 73.6467 12.9283 73.6467C11.7048 73.6467 10.6695 73.247 9.83102 72.4475C8.99251 71.6481 8.57326 70.6572 8.57326 69.4747C8.57326 68.2922 8.99251 67.3013 9.83102 66.5019C10.6695 65.7025 11.7048 65.3028 12.9283 65.3028C14.1519 65.3028 15.1872 65.7025 16.0257 66.5019C16.8642 67.3013 17.2834 68.2922 17.2834 69.4747C17.2834 70.6572 16.8642 71.6481 16.0257 72.4475ZM26.2759 68.4754L24.0342 72.8889H22.9305L20.6973 68.4754V73.5551H18.8492V65.4776H21.3561L23.4952 69.9161L25.6428 65.4776H28.1326V73.5551H26.2845V68.4754H26.2759ZM36.1497 65.486V67.0931H32.0171V68.7586H35.7305V70.2991H32.0171V71.9729H36.2781V73.5551H30.169V65.4776H36.1497V65.486ZM40.6075 66.8849C40.2995 66.8849 40.0599 66.9599 39.8802 67.1014C39.7005 67.243 39.615 67.4345 39.615 67.6677C39.615 67.9009 39.7262 68.0924 39.9401 68.2256C40.154 68.3672 40.6588 68.5254 41.446 68.7169C42.2332 68.9085 42.8406 69.1916 43.277 69.5663C43.7134 69.941 43.9273 70.4906 43.9273 71.2151C43.9273 71.9396 43.6449 72.5225 43.0888 72.9805C42.5326 73.4302 41.7968 73.655 40.8898 73.655C39.5722 73.655 38.3914 73.1804 37.339 72.231L38.4428 70.9153C39.3412 71.6814 40.1626 72.0562 40.9241 72.0562C41.2663 72.0562 41.5316 71.9812 41.7283 71.8397C41.9251 71.6981 42.0193 71.5066 42.0193 71.2651C42.0193 71.0236 41.9166 70.8321 41.7112 70.6905C41.5059 70.5489 41.0952 70.4074 40.4877 70.2575C39.5209 70.0326 38.8193 69.7412 38.3658 69.3831C37.9209 69.025 37.6984 68.4588 37.6984 67.6927C37.6984 66.9266 37.9807 66.3353 38.5455 65.919C39.1102 65.5026 39.8203 65.2944 40.6674 65.2944C41.2235 65.2944 41.7711 65.386 42.3273 65.5692C42.8834 65.7524 43.3626 66.0189 43.7733 66.352L42.8321 67.6677C42.1134 67.1431 41.369 66.8849 40.6075 66.8849ZM52.9369 68.4754L50.6952 72.8889H49.5914L47.3583 68.4754V73.5551H45.5102V65.4776H48.0171L50.1561 69.9161L52.3037 65.4776H54.7936V73.5551H52.9455V68.4754H52.9369ZM62.7422 73.5551L61.9722 71.8147H58.4984L57.7198 73.5551H55.7519L59.3369 65.4776H61.1251L64.7102 73.5551H62.7422ZM60.2353 67.8842L59.1914 70.2325H61.2706L60.2353 67.8842ZM72.4021 68.1673C72.4021 69.4581 71.8717 70.2991 70.8192 70.6738L72.9241 73.5551H70.6481L68.8086 70.982H67.5251V73.5551H65.677V65.4776H68.8257C70.1176 65.4776 71.0332 65.6858 71.5893 66.1105C72.1283 66.5435 72.4021 67.2264 72.4021 68.1673ZM68.877 69.4248C69.5102 69.4248 69.938 69.3248 70.169 69.125C70.4 68.9251 70.5112 68.6087 70.5112 68.1757C70.5112 67.7426 70.3914 67.4429 70.1519 67.2763C69.9123 67.1181 69.5016 67.0348 68.9027 67.0348H67.5166V69.4248H68.877ZM77.6471 67.0432V73.5551H75.7989V67.0432H73.446V65.486H80V67.0432H77.6471Z" fill="white"/>
<path fill-rule="evenodd" clip-rule="evenodd" d="M1.3861 77.1776C1.20642 77.1776 1.06096 77.2109 0.949733 77.2858C0.838503 77.3524 0.77861 77.4607 0.77861 77.6022C0.77861 77.7438 0.838503 77.8521 0.949733 77.927C1.06096 78.002 1.30909 78.0852 1.67701 78.1685C2.04492 78.2601 2.32727 78.3767 2.51551 78.5349C2.70374 78.6931 2.79786 78.9263 2.79786 79.2344C2.79786 79.5425 2.67807 79.7923 2.4385 79.9838C2.19893 80.1754 1.89091 80.2753 1.50588 80.2753C0.941176 80.2753 0.436364 80.0838 0 79.709L0.385027 79.2594C0.752941 79.5675 1.12941 79.7257 1.52299 79.7257C1.71979 79.7257 1.8738 79.6841 1.99358 79.6008C2.11337 79.5175 2.16471 79.4093 2.16471 79.276C2.16471 79.1428 2.11337 79.0345 2.00214 78.9596C1.89091 78.8846 1.70267 78.818 1.43743 78.7514C1.17219 78.6931 0.966845 78.6348 0.829947 78.5765C0.693048 78.5266 0.573262 78.46 0.462032 78.3684C0.248128 78.2101 0.136898 77.9686 0.136898 77.6439C0.136898 77.3191 0.256684 77.0693 0.504813 76.8944C0.752941 76.7196 1.05241 76.628 1.41176 76.628C1.64278 76.628 1.8738 76.6613 2.09626 76.7362C2.32727 76.8112 2.52406 76.9111 2.68663 77.0443L2.3615 77.494C2.25882 77.4024 2.11337 77.3191 1.92513 77.2608C1.74545 77.2025 1.56578 77.1776 1.3861 77.1776ZM8.02567 80.2337V76.7112H8.63316V79.6674H10.2845V80.2337H8.02567ZM17.908 77.544C17.6599 77.2941 17.3604 77.1692 17.0011 77.1692C16.6417 77.1692 16.3422 77.2941 16.0941 77.544C15.846 77.7938 15.7262 78.0936 15.7262 78.4516C15.7262 78.8097 15.846 79.1095 16.0941 79.3593C16.3422 79.6091 16.6417 79.734 17.0011 79.734C17.3604 79.734 17.6599 79.6091 17.908 79.3593C18.1561 79.1095 18.2759 78.8097 18.2759 78.4516C18.2759 78.0936 18.1476 77.7938 17.908 77.544ZM18.3529 79.7424C17.985 80.0921 17.5316 80.267 17.0011 80.267C16.462 80.267 16.0086 80.0921 15.6406 79.7424C15.2727 79.3926 15.093 78.9596 15.093 78.4433C15.093 77.927 15.2727 77.494 15.6406 77.1442C16.0086 76.7945 16.462 76.6196 17.0011 76.6196C17.5401 76.6196 17.9936 76.7945 18.3529 77.1442C18.7209 77.494 18.9005 77.927 18.9005 78.4433C18.9005 78.9679 18.7209 79.4009 18.3529 79.7424ZM26.6438 78.5182H27.2513V79.7257C26.9091 80.0921 26.4214 80.2753 25.7882 80.2753C25.2492 80.2753 24.8043 80.1004 24.4449 79.759C24.0856 79.4176 23.9059 78.9846 23.9059 78.46C23.9059 77.9353 24.0856 77.5023 24.4535 77.1526C24.8214 76.8028 25.2663 76.628 25.7882 76.628C26.3102 76.628 26.738 76.7778 27.0888 77.0693L26.7636 77.519C26.6182 77.4024 26.4813 77.3191 26.3358 77.2775C26.1904 77.2358 26.0278 77.2109 25.8396 77.2109C25.4717 77.2109 25.1636 77.3274 24.9155 77.5523C24.6674 77.7854 24.539 78.0852 24.539 78.46C24.539 78.8347 24.6588 79.1345 24.8984 79.3593C25.138 79.5841 25.4289 79.7007 25.7797 79.7007C26.1219 79.7007 26.4128 79.6258 26.6438 79.4842V78.5182ZM33.0096 79.4342L32.6503 80.2337H32L33.5914 76.7112H34.2417L35.8332 80.2337H35.1829L34.8235 79.4342H33.0096ZM34.5668 78.8846L33.908 77.4357L33.2492 78.8846H34.5668ZM43.5166 76.7112H44.1241V80.2337H43.4652L41.4118 77.6605V80.2337H40.8043V76.7112H41.4118L43.5166 79.3426V76.7112ZM51.0203 80.2337V76.7112H51.6278V78.2351H53.4246V76.7112H54.0321V80.2337H53.4246V78.793H51.6278V80.2337H51.0203ZM62.0578 76.7112V77.2692H60.1241V78.2018H61.861V78.7348H60.1241V79.6757H62.1176V80.2337H59.5166V76.7112H62.0578ZM70.2631 77.8521C70.2631 78.435 70.0064 78.8014 69.4845 78.9513L70.4342 80.2337H69.6471L68.7829 79.0512H67.9786V80.2337H67.3711V76.7112H68.7144C69.2706 76.7112 69.6642 76.8028 69.9037 76.986C70.1433 77.1609 70.2631 77.4524 70.2631 77.8521ZM68.7401 78.5099C69.0823 78.5099 69.3219 78.46 69.4417 78.3517C69.5701 78.2518 69.6299 78.0769 69.6299 77.8521C69.6299 77.6272 69.5701 77.4607 69.4417 77.3774C69.3134 77.2941 69.0824 77.2525 68.7572 77.2525H67.9786V78.5099H68.7401ZM78.1519 76.7112V77.2692H76.2182V78.2018H77.9551V78.7348H76.2182V79.6757H78.2118V80.2337H75.6107V76.7112H78.1519Z" fill="white"/>
</svg>
