<svg width="93" height="94" viewBox="0 0 93 94" fill="none" xmlns="http://www.w3.org/2000/svg">
<path d="M53.3146 13.3667C54.8852 15.5745 56.1572 18.0134 57.0712 20.6196C58.2119 20.771 59.3351 20.9769 60.4348 21.2397C60.6196 21.2849 60.8036 21.3301 60.9842 21.3753C61.0294 21.3879 61.0745 21.3996 61.1197 21.4121C61.3538 21.4732 61.5872 21.5352 61.8213 21.6046C61.8255 21.6046 61.8297 21.6046 61.8339 21.6088C62.0597 21.6708 62.2846 21.736 62.5063 21.8055C62.6994 21.8632 62.8918 21.9243 63.0849 21.9905C63.2815 22.0566 63.4789 22.1219 63.6754 22.1913C63.8602 22.2533 64.0408 22.3185 64.2248 22.388C64.4055 22.4533 64.5861 22.5236 64.7659 22.5931C65.828 23.0032 66.8616 23.4718 67.8668 23.9882C68.1085 24.1113 68.3469 24.2343 68.5802 24.3657C68.9825 24.5833 69.3764 24.8093 69.7652 25.0428C69.9333 25.1415 70.0972 25.2445 70.2612 25.3466C70.3389 25.3918 70.4167 25.4411 70.4953 25.4905C70.6717 25.601 70.844 25.7165 71.0163 25.8312C71.1844 25.9374 71.3483 26.0529 71.513 26.1634C73.4365 27.4807 75.2128 28.9998 76.8159 30.682C77.0049 30.8712 77.1848 31.0678 77.3612 31.2645C77.5092 31.4244 77.6522 31.5884 77.7961 31.7533C78.0302 32.0203 78.2594 32.2914 78.481 32.566C78.6207 32.7258 78.752 32.8898 78.8791 33.0589C79.0555 33.2849 79.232 33.5109 79.4001 33.736C79.5598 33.9494 79.7203 34.167 79.8717 34.3846C80.0314 34.6022 80.1837 34.824 80.3308 35.0458C80.6302 35.4894 80.9171 35.9363 81.1964 36.3958C81.3403 36.6259 81.4749 36.8552 81.6062 37.0896C81.7417 37.3239 81.873 37.5574 82.0001 37.7918C82.2752 38.3006 82.5411 38.8179 82.7878 39.3393C82.8907 39.5443 82.9844 39.7535 83.0789 39.9628C83.1734 40.1678 83.2637 40.3771 83.354 40.5863C83.436 40.7713 83.5138 40.9562 83.5882 41.1445C83.6576 41.3169 83.7279 41.4893 83.7931 41.6617C83.9612 42.097 84.1251 42.5405 84.2731 42.9874C84.3634 43.2461 84.4496 43.5047 84.5273 43.7675C84.5315 43.7758 84.5357 43.7884 84.5399 43.8001C84.6177 44.0504 84.6913 44.3006 84.7615 44.5508C84.9664 45.2689 85.147 45.9996 85.3026 46.7344C85.3436 46.9194 85.3804 47.1077 85.4172 47.2968C85.4381 47.4039 85.4581 47.5102 85.479 47.6165C85.5033 47.7605 85.5326 47.9036 85.5526 48.0476C85.5894 48.2526 85.622 48.4576 85.6513 48.6635C85.6839 48.8686 85.7166 49.0778 85.7416 49.287C85.7542 49.3816 85.7659 49.472 85.7784 49.5657C85.7952 49.7181 85.8152 49.8737 85.8319 50.0294C85.8487 50.1767 85.8646 50.3248 85.8729 50.4721C85.8972 50.6981 85.9181 50.9241 85.934 51.1492C85.9549 51.4162 85.9708 51.6824 85.9833 51.9535C86.0001 52.2364 86.0118 52.5243 86.0159 52.8072C86.0243 53.0943 86.0285 53.378 86.0285 53.665C86.0285 72.0458 71.0832 87.0026 52.7167 87.0026C52.4299 87.0026 52.1422 86.9984 51.8595 86.9901C51.5726 86.9859 51.2891 86.9733 51.0065 86.9574C50.7271 86.9449 50.4487 86.929 50.1694 86.9039H50.1326C49.87 86.8838 49.6115 86.8587 49.3531 86.8344C49.1273 86.8101 48.9057 86.785 48.6849 86.7607C48.5453 86.744 48.4106 86.7239 48.271 86.7072C48.0744 86.6829 47.8771 86.6536 47.6847 86.621C47.668 86.621 47.6479 86.6168 47.6312 86.6126C47.4347 86.5842 47.2373 86.5507 47.045 86.518C46.8769 86.4887 46.713 86.4603 46.5491 86.4276C46.3074 86.3824 46.0649 86.3373 45.8273 86.2837C44.5269 86.0083 43.2516 85.6602 42.0089 85.2333C41.763 85.1513 41.5205 85.0651 41.2788 84.9747C41.0413 84.8885 40.8071 84.8023 40.5696 84.7077C40.2493 84.5805 39.934 84.4491 39.6179 84.3135C39.4214 84.2315 39.2199 84.1453 39.0233 84.0508C38.8101 83.9562 38.5926 83.8532 38.3794 83.7511C38.1084 83.6197 37.8383 83.4883 37.5673 83.3486C37.3457 83.2339 37.1241 83.1184 36.9025 82.9996C36.6525 82.8598 36.3982 82.7209 36.1524 82.5769C35.9182 82.4455 35.689 82.3099 35.4591 82.166C35.4549 82.1618 35.4466 82.1618 35.4424 82.1576C35.02 81.9032 34.6061 81.6362 34.1996 81.3617C34.167 81.3416 34.1344 81.3165 34.1051 81.2964C33.8835 81.1483 33.6661 80.9968 33.4486 80.8411C33.2312 80.6888 33.0138 80.5331 32.8005 80.3691C32.5873 80.2134 32.374 80.0494 32.165 79.8803C31.9927 79.7489 31.8246 79.6133 31.6565 79.4702C31.3855 79.2526 31.1196 79.0266 30.857 78.7973C30.6805 78.645 30.5083 78.4893 30.336 78.3337L30.3318 78.3295C30.1353 78.1529 29.9379 77.9721 29.7498 77.7838C29.5566 77.603 29.3642 77.4189 29.1752 77.2256C28.8064 76.8598 28.4452 76.4824 28.0964 76.0965C27.9116 75.8915 27.7234 75.6823 27.5428 75.4688C27.194 75.0705 26.8579 74.6645 26.5334 74.2494C26.3369 73.995 26.1395 73.7406 25.9472 73.4778C25.8326 73.3263 25.7213 73.174 25.6151 73.0183C25.5783 72.9689 25.5416 72.9195 25.5048 72.8668C25.3693 72.6777 25.2338 72.4852 25.1067 72.2877C24.9754 72.0985 24.8525 71.9102 24.7295 71.7169C24.5531 71.4457 24.3808 71.1754 24.2127 70.8958C23.9417 70.4523 23.6833 70.0012 23.4374 69.5417C22.9532 68.6595 22.515 67.7481 22.1128 66.8158C22.0225 66.6024 21.928 66.3848 21.8418 66.1672C21.8377 66.1588 21.8335 66.1471 21.8293 66.1345C21.7641 65.9705 21.698 65.8106 21.637 65.6458C21.5793 65.4985 21.5224 65.3461 21.4647 65.1938C21.407 65.0381 21.3501 64.8774 21.2966 64.7176C21.2146 64.4916 21.1368 64.2656 21.0624 64.0363C20.9888 63.8062 20.9144 63.5769 20.845 63.3425C20.8324 63.3216 20.8282 63.2973 20.824 63.273C20.7546 63.0513 20.6886 62.8219 20.6275 62.596C20.5581 62.3541 20.4921 62.1122 20.431 61.8653C20.2462 61.1305 20.0823 60.3873 19.9468 59.6366C19.9017 59.3863 19.8607 59.1361 19.8197 58.8817C19.7787 58.6314 19.7419 58.377 19.7085 58.1226C17.1001 57.2153 14.6598 55.9474 12.4453 54.3789C12.8225 76.3183 30.709 93.9801 52.7175 93.9801C74.9636 93.9801 93.0014 75.9325 93.0014 53.665C92.9997 31.6077 75.2855 13.6822 53.3146 13.3667ZM19.5596 50.5132C19.5847 50.2671 19.6089 50.0202 19.6374 49.7741C19.6658 49.5281 19.6993 49.282 19.7319 49.0393C19.7645 48.7933 19.8013 48.5514 19.8423 48.3087C19.8791 48.0668 19.9242 47.8241 19.9652 47.5864C20.1458 46.6214 20.3633 45.674 20.6259 44.7417C20.6877 44.5115 20.7572 44.278 20.8266 44.0478V44.0437C20.8801 43.8671 20.937 43.6871 20.9947 43.5063C21.0156 43.4285 21.0398 43.3507 21.0682 43.2762C21.1335 43.0745 21.2038 42.8736 21.2732 42.6728C21.3309 42.4962 21.3919 42.3196 21.4621 42.1472C21.5031 42.0367 21.5441 41.9296 21.5851 41.8191C21.7331 41.4291 21.8887 41.0474 22.0484 40.6658C22.2374 40.218 22.4339 39.7753 22.6471 39.3401C22.7458 39.1309 22.8479 38.9258 22.9508 38.7208C23.0126 38.5894 23.082 38.458 23.1515 38.3308C23.2292 38.1751 23.3112 38.0186 23.3931 37.8671C23.4216 37.8135 23.4508 37.7608 23.4834 37.7072C23.5947 37.498 23.7093 37.2971 23.828 37.0913C23.9351 36.9063 24.0413 36.7222 24.1483 36.5414C24.247 36.3815 24.3415 36.225 24.4393 36.0694C24.5296 35.9254 24.62 35.7823 24.7145 35.6383C25.0958 35.0433 25.498 34.4608 25.9204 33.8942C26.06 33.7017 26.203 33.5167 26.3469 33.3276C26.4573 33.1836 26.5685 33.0405 26.6831 32.9007C27.0151 32.4823 27.3596 32.068 27.7209 31.6654C27.8648 31.4972 28.0161 31.3332 28.1642 31.1691C28.4803 30.8201 28.8039 30.4795 29.1401 30.1472C29.2756 30.0116 29.411 29.876 29.5507 29.7447C29.7639 29.5354 29.9772 29.3304 30.1947 29.1329C30.3544 28.9856 30.5149 28.8416 30.6788 28.6976C30.9699 28.4349 31.2693 28.1846 31.5687 27.9344C31.72 27.8113 31.8764 27.6841 32.032 27.5611C32.7044 27.0271 33.3935 26.5183 34.1076 26.0387C34.3084 25.8989 34.5141 25.7634 34.7231 25.632C34.887 25.5257 35.051 25.4227 35.2157 25.3198C35.3387 25.242 35.4658 25.1633 35.5929 25.0896C35.7777 24.975 35.9617 24.8637 36.1507 24.7607C36.384 24.6209 36.6182 24.4937 36.8523 24.3665C37.0898 24.2351 37.3282 24.1079 37.5657 23.9891C37.8032 23.866 38.0457 23.743 38.2874 23.6283C38.3033 23.62 38.3158 23.6158 38.3284 23.6074C38.7549 23.4024 39.1898 23.2057 39.6288 23.0165C39.9566 22.8768 40.2853 22.742 40.6173 22.614C40.8347 22.5236 41.0563 22.4416 41.2779 22.3637C41.4711 22.2901 41.6676 22.2198 41.8642 22.1545C41.9629 22.1177 42.0649 22.085 42.1678 22.0482C42.3852 21.9787 42.6026 21.9043 42.8242 21.839C43.0827 21.757 43.3453 21.6791 43.6078 21.6046C43.8704 21.5268 44.133 21.4565 44.399 21.387C44.6331 21.3293 44.8664 21.2682 45.1048 21.2146C45.2812 21.1736 45.4619 21.1326 45.6383 21.0958C45.7161 21.0749 45.7981 21.059 45.8758 21.0422C46.0113 21.0179 46.1468 20.9887 46.2815 20.9602C46.5198 20.915 46.7573 20.8698 46.9948 20.8288C47.1671 20.7995 47.3352 20.7711 47.5075 20.7468C47.6881 20.7141 47.8687 20.689 48.0485 20.6648C48.516 20.5995 48.9877 20.5417 49.4594 20.4965C48.286 18.1079 46.6954 15.957 44.7837 14.1384C28.8616 17.3237 16.3282 29.9003 13.1946 45.8506C15.0152 47.7546 17.1687 49.3431 19.5596 50.5132Z" fill="#C4CFDE"/>
<path d="M58.2239 24.9643C56.4359 24.6195 54.5944 24.4387 52.7078 24.4387C52.1215 24.4387 51.5387 24.4555 50.965 24.4923C51.4776 26.3687 51.7486 28.338 51.7486 30.3701C51.7486 42.7249 41.7039 52.7773 29.3587 52.7773C27.3491 52.7773 25.4047 52.5103 23.5507 52.0098H23.5465C23.518 52.5597 23.5013 53.1096 23.5013 53.6678C23.5013 55.5844 23.6862 57.4608 24.0424 59.2744C25.7652 59.5908 27.5414 59.7548 29.3579 59.7548C45.5751 59.7548 58.7199 46.5999 58.7199 30.3701C58.7199 28.5238 58.5476 26.7169 58.2239 24.9643ZM29.3579 0.985352C13.1448 0.985352 0 14.1411 0 30.3701C0 38.3862 3.20717 45.6517 8.40803 50.9503C8.5962 47.749 9.12974 44.6088 9.97857 41.5791C8.06766 38.2791 6.97215 34.4493 6.97215 30.3693C6.97215 18.0144 17.0126 7.96203 29.3579 7.96203C33.4138 7.96203 37.2239 9.04586 40.5097 10.9424C43.5362 10.0803 46.6656 9.54216 49.8652 9.3413C44.5782 4.17072 37.3394 0.985352 29.3579 0.985352Z" fill="#C4CFDE"/>
</svg>
