<svg width="81" height="81" viewBox="0 0 81 81" fill="none" xmlns="http://www.w3.org/2000/svg">
<path fill-rule="evenodd" clip-rule="evenodd" d="M61.7491 6.74962C72.1388 16.2214 73.1416 32.6204 63.9821 43.3644C60.2155 47.7822 55.3198 50.5531 50.1376 51.6336C51.4268 50.6141 52.6402 49.4552 53.7525 48.1482C62.912 37.4042 61.9092 21.0139 51.5195 11.5421C45.402 5.9654 37.3885 4.03097 29.9648 5.58199C39.2844 -1.78104 52.6234 -1.5632 61.7491 6.74962Z" fill="#EB5939"/>
<path fill-rule="evenodd" clip-rule="evenodd" d="M50.279 51.599L50.1358 51.6339C51.425 50.6144 52.6384 49.4555 53.7507 48.1484C62.9102 37.4045 61.9074 21.0141 51.5177 11.5424C45.7794 6.29679 38.3557 4.27522 31.3281 5.32957C39.3079 2.54992 48.4674 4.12709 55.2337 10.3051C65.3285 19.5067 66.2976 35.4265 57.3993 45.8568C55.3264 48.2879 52.9081 50.2049 50.279 51.599Z" fill="#EB5939"/>
<path fill-rule="evenodd" clip-rule="evenodd" d="M50.1027 51.5723C40.8084 58.9614 27.4694 58.7959 18.31 50.5092C7.88656 41.0723 6.83326 24.6906 15.959 13.9119C19.7088 9.48533 24.5961 6.68825 29.7699 5.59033C28.4806 6.60983 27.2756 7.77746 26.1634 9.0845C17.0376 19.8633 18.0993 36.2537 28.5143 45.6818C34.6571 51.2411 42.6791 53.1494 50.1027 51.5723Z" fill="#EB5939"/>
<path fill-rule="evenodd" clip-rule="evenodd" d="M50.1023 51.5726C50.0433 51.6161 49.9843 51.6597 49.9338 51.7033C41.3473 56.1559 30.6458 55.0842 22.9694 48.1394C12.8493 38.9813 11.8213 23.0615 20.6858 12.5964C23.0789 9.7732 25.9439 7.63836 29.0532 6.19189C28.0336 7.06326 27.073 8.03047 26.1798 9.08483C17.0541 19.8636 18.1158 36.254 28.5308 45.6821C34.6568 51.2415 42.6787 53.1497 50.1023 51.5726Z" fill="#EB5939"/>
<path fill-rule="evenodd" clip-rule="evenodd" d="M39.9996 19.3491C44.9459 19.3491 48.9484 23.4881 48.9484 28.603C48.9484 33.7179 44.9459 37.8569 39.9996 37.8569C35.0533 37.8569 31.0508 33.7179 31.0508 28.603C31.0508 23.4881 35.0533 19.3491 39.9996 19.3491Z" fill="#EB5939"/>
<path fill-rule="evenodd" clip-rule="evenodd" d="M3.97725 66.952V73.5134H2.22456V66.952H0V65.3836H6.21024V66.952H3.97725ZM13.162 65.3836V67.0043H9.25216V68.6774H12.7744V70.2284H9.25216V71.9188H13.2884V73.5221H7.49105V65.3923H13.162V65.3836ZM18.4538 71.9101C19.3132 71.9101 20.0211 71.5616 20.5688 70.8558L21.6895 72.0495C20.7963 73.0865 19.743 73.6093 18.538 73.6093C17.3246 73.6093 16.3303 73.2172 15.5467 72.4242C14.763 71.6313 14.3754 70.6379 14.3754 69.4267C14.3754 68.2242 14.7714 67.2135 15.5719 66.4118C16.3724 65.6014 17.3499 65.2006 18.5043 65.2006C19.7935 65.2006 20.8721 65.706 21.74 66.7255L20.653 68.0064C20.0969 67.2919 19.4059 66.9346 18.5802 66.9346C17.9229 66.9346 17.3583 67.1612 16.8865 67.6056C16.4146 68.05 16.1871 68.6512 16.1871 69.4093C16.1871 70.1674 16.4061 70.7686 16.8527 71.2305C17.2909 71.6836 17.8302 71.9101 18.4538 71.9101ZM27.9587 65.3836H29.7114V73.5134H27.9587V70.3155H24.8325V73.5134H23.0798V65.3836H24.8325V68.7819H27.9587V65.3836ZM37.1435 65.3836H38.8961V73.5134H37.1435L33.4021 68.4159V73.5134H31.6495V65.3836H33.2926L37.1519 70.6205V65.3836H37.1435ZM46.8506 69.4006C46.8506 68.6774 46.6231 68.0587 46.1765 67.5446C45.7299 67.0305 45.1738 66.7778 44.5165 66.7778C43.8593 66.7778 43.3116 67.0305 42.8565 67.5446C42.4099 68.0587 42.1824 68.6774 42.1824 69.4006C42.1824 70.1238 42.4099 70.7425 42.8565 71.2479C43.3031 71.7533 43.8593 72.006 44.5165 72.006C45.1738 72.006 45.7215 71.7533 46.1765 71.2479C46.6315 70.7425 46.8506 70.1325 46.8506 69.4006ZM47.4489 72.3894C46.6568 73.191 45.6794 73.5919 44.5165 73.5919C43.3537 73.5919 42.3762 73.191 41.5841 72.3894C40.7921 71.5877 40.396 70.5856 40.396 69.3919C40.396 68.1981 40.7921 67.196 41.5841 66.3944C42.3762 65.5927 43.3537 65.1919 44.5165 65.1919C45.6794 65.1919 46.6568 65.5927 47.4489 66.3944C48.241 67.196 48.6455 68.1981 48.6455 69.3919C48.6455 70.5856 48.241 71.5877 47.4489 72.3894ZM50.1285 73.5134V65.3836H51.8812V71.8927H55.2349V73.5134H50.1285ZM62.3215 69.4006C62.3215 68.6774 62.0939 68.0587 61.6473 67.5446C61.2007 67.0305 60.6446 66.7778 59.9874 66.7778C59.3301 66.7778 58.7824 67.0305 58.3274 67.5446C57.8808 68.0587 57.6532 68.6774 57.6532 69.4006C57.6532 70.1238 57.8808 70.7425 58.3274 71.2479C58.774 71.7533 59.3301 72.006 59.9874 72.006C60.6446 72.006 61.1923 71.7533 61.6473 71.2479C62.0939 70.7425 62.3215 70.1325 62.3215 69.4006ZM62.9113 72.3894C62.1192 73.191 61.1418 73.5919 59.9789 73.5919C58.8161 73.5919 57.8386 73.191 57.0465 72.3894C56.2545 71.5877 55.8584 70.5856 55.8584 69.3919C55.8584 68.1981 56.2545 67.196 57.0465 66.3944C57.8386 65.5927 58.8161 65.1919 59.9789 65.1919C61.1418 65.1919 62.1192 65.5927 62.9113 66.3944C63.7034 67.196 64.1078 68.1981 64.1078 69.3919C64.1078 70.5856 63.7118 71.5877 62.9113 72.3894ZM70.6973 69.3744H72.4668V72.2587C71.6832 73.1562 70.6046 73.6093 69.2311 73.6093C68.0767 73.6093 67.1076 73.2172 66.324 72.4242C65.5403 71.6313 65.1527 70.6379 65.1527 69.4267C65.1527 68.2242 65.5488 67.2135 66.3493 66.4118C67.1498 65.6014 68.1104 65.2006 69.2395 65.2006C70.3686 65.2006 71.3461 65.584 72.1803 66.3508L71.2703 67.7101C70.9164 67.3964 70.5962 67.1699 70.3012 67.0566C70.0063 66.9346 69.6861 66.8736 69.3406 66.8736C68.6749 66.8736 68.1104 67.1089 67.6553 67.5794C67.2003 68.05 66.9728 68.6686 66.9728 69.4354C66.9728 70.2022 67.1919 70.8209 67.6301 71.2827C68.0682 71.7446 68.5907 71.9711 69.1974 71.9711C69.8041 71.9711 70.3097 71.8491 70.7141 71.6139V69.3744H70.6973ZM77.2783 73.5134H75.5256V70.3068L72.8039 65.3836H74.7082L76.4103 68.4072L78.1125 65.3836H80.0168L77.2951 70.3068V73.5134H77.2783Z" fill="white"/>
<path fill-rule="evenodd" clip-rule="evenodd" d="M2.01485 77.051C1.8379 77.051 1.69465 77.0859 1.5851 77.1643C1.47556 77.234 1.41658 77.3473 1.41658 77.4954C1.41658 77.6436 1.47556 77.7568 1.5851 77.8353C1.69465 77.9137 1.93059 78.0008 2.30135 78.088C2.66368 78.1751 2.94175 78.3058 3.12713 78.4713C3.31251 78.6369 3.4052 78.8809 3.4052 79.1946C3.4052 79.517 3.28723 79.7784 3.05129 79.9701C2.81535 80.1705 2.51201 80.2664 2.13282 80.2664C1.57668 80.2664 1.08795 80.0659 0.658203 79.6738L1.03739 79.2033C1.39972 79.5257 1.77048 79.6825 2.14967 79.6825C2.34348 79.6825 2.49515 79.639 2.6047 79.5518C2.71424 79.4647 2.77322 79.3514 2.77322 79.212C2.77322 79.0726 2.72266 78.9593 2.61312 78.8809C2.50358 78.8025 2.32663 78.7328 2.06541 78.663C1.80419 78.6021 1.61038 78.5411 1.47556 78.4888C1.34074 78.4365 1.22277 78.3668 1.11323 78.2796C0.902568 78.1141 0.801451 77.8614 0.801451 77.5216C0.801451 77.1817 0.919421 76.9203 1.15536 76.7373C1.3913 76.5543 1.68622 76.4585 2.04013 76.4585C2.26764 76.4585 2.49515 76.4933 2.71424 76.5718C2.93332 76.6502 3.12713 76.7548 3.29566 76.8942L2.97546 77.3647C2.87434 77.2689 2.73109 77.1904 2.54571 77.1207C2.36876 77.0772 2.1918 77.051 2.01485 77.051ZM8.52001 80.2315V76.5631H9.11828V79.6477H10.7361V80.2315H8.52001ZM18.2019 77.4344C17.9575 77.173 17.6626 77.0423 17.3087 77.0423C16.9548 77.0423 16.6599 77.173 16.4155 77.4344C16.1712 77.6958 16.0532 78.0095 16.0532 78.3755C16.0532 78.7415 16.1712 79.0552 16.4155 79.3166C16.6599 79.578 16.9548 79.7087 17.3087 79.7087C17.6626 79.7087 17.9575 79.578 18.2019 79.3166C18.4463 79.0552 18.5642 78.7415 18.5642 78.3755C18.5727 78.0008 18.4463 77.6871 18.2019 77.4344ZM18.6485 79.7261C18.2862 80.0921 17.848 80.2664 17.3171 80.2664C16.7863 80.2664 16.3481 80.0834 15.9858 79.7261C15.6234 79.3601 15.4465 78.9157 15.4465 78.3755C15.4465 77.8352 15.6234 77.3821 15.9858 77.0249C16.3481 76.6589 16.7863 76.4846 17.3171 76.4846C17.848 76.4846 18.2862 76.6676 18.6485 77.0249C19.0108 77.3909 19.1878 77.8352 19.1878 78.3755C19.1878 78.9157 19.0024 79.3601 18.6485 79.7261ZM26.78 78.4452H27.3782V79.7C27.0412 80.0834 26.5609 80.2751 25.9458 80.2751C25.4233 80.2751 24.9851 80.1008 24.6312 79.7435C24.2773 79.3863 24.1004 78.9332 24.1004 78.3929C24.1004 77.844 24.2773 77.3909 24.6397 77.0249C25.002 76.6589 25.4317 76.4759 25.9458 76.4759C26.4598 76.4759 26.8811 76.6328 27.2181 76.9377L26.8979 77.4083C26.7631 77.2863 26.6199 77.1992 26.4766 77.1556C26.3334 77.112 26.1733 77.0859 25.9879 77.0859C25.6255 77.0859 25.3306 77.2079 25.0863 77.4431C24.8419 77.6784 24.7239 78.0008 24.7239 78.3842C24.7239 78.7763 24.8419 79.09 25.0778 79.3253C25.3138 79.5606 25.6003 79.6825 25.9373 79.6825C26.2744 79.6825 26.5524 79.6041 26.78 79.456V78.4452ZM33.0155 79.395L32.6616 80.2315H32.0212L33.58 76.5631H34.2205L35.7793 80.2315H35.1389L34.785 79.395H33.0155ZM34.5491 78.8286L33.9087 77.3211L33.2683 78.8286H34.5491ZM43.3209 76.5631H43.9192V80.2315H43.2704L41.2649 77.5564V80.2315H40.6666V76.5631H41.2649L43.3209 79.2991V76.5631ZM50.6772 80.2315V76.5631H51.2754V78.1577H53.0365V76.5631H53.6348V80.2315H53.0365V78.7328H51.2754V80.2315H50.6772ZM61.4966 76.5631V77.1469H59.6007V78.1141H61.3028V78.663H59.6007V79.6477H61.5556V80.2315H59.0024V76.5631H61.4966ZM69.5354 77.7568C69.5354 78.3581 69.2826 78.7415 68.7686 78.8983L69.6955 80.2315H68.9371L68.0861 78.9942H67.3024V80.2315H66.7041V76.5631H68.0271C68.5664 76.5631 68.954 76.6589 69.1899 76.8506C69.4174 77.0336 69.5354 77.3386 69.5354 77.7568ZM68.0439 78.4365C68.381 78.4365 68.6085 78.3842 68.7349 78.2709C68.8528 78.1664 68.9203 77.9921 68.9203 77.7481C68.9203 77.5041 68.8613 77.3473 68.7349 77.2514C68.6085 77.1643 68.3894 77.1207 68.0692 77.1207H67.3108V78.4365H68.0439ZM77.2708 76.5631V77.1469H75.3749V78.1141H77.077V78.663H75.3749V79.6477H77.3298V80.2315H74.7766V76.5631H77.2708Z" fill="white"/>
</svg>
