<svg width="121" height="93" viewBox="0 0 121 93" fill="none" xmlns="http://www.w3.org/2000/svg">
<path fill-rule="evenodd" clip-rule="evenodd" d="M45.9756 37.977C43.2278 44.0365 40.1583 49.9183 36.7 55.5576C46.0024 54.7012 55.6666 51.6472 64.1111 47.9469C65.8939 47.1713 67.69 46.2987 69.5129 45.3454C63.4007 42.3076 55.7471 39.7383 45.9756 37.977ZM29.7568 65.8022C26.4058 71.8617 16.1652 84.7724 0 92.5124C16.6879 89.1191 33.8986 75.8367 42.9061 65.6406C38.456 66.0931 34.0193 66.19 29.7568 65.8022ZM73.6146 57.5128C75.1694 58.1269 76.6438 58.7894 78.0245 59.4842C84.6862 62.7967 89.3106 68.0321 96.5085 75.3358C93.0369 68.9693 89.6323 60.8415 81.6971 53.5701C78.9895 55.0567 76.2819 56.3656 73.6146 57.5128ZM62.811 0.98994C67.2879 0.779878 71.0678 4.99728 71.2286 10.4104C71.4029 15.8074 67.9045 20.3641 63.4141 20.558C58.9372 20.7681 55.1573 16.5507 54.9964 11.1376C54.8222 5.74058 58.3206 1.2 62.811 0.98994ZM11.4336 36.0542C56.4709 -17.4309 54.6882 53.0369 90.0612 27.4255C57.9453 66.4001 56.109 1.37775 11.4336 36.0542Z" fill="#C4CFDE"/>
<path fill-rule="evenodd" clip-rule="evenodd" d="M112.982 23.9524C105.06 35.5058 88.9487 49.6931 68.7757 57.1423C38.5632 68.3079 11.6749 65.2054 8.75279 50.2102C8.0826 46.8007 8.72599 43.0681 10.4417 39.2223C9.89213 41.5976 9.7849 43.8599 10.1736 45.9766C12.8276 60.2609 37.263 62.0545 64.7277 49.984C82.5416 42.1632 98.814 27.9598 107.661 16.8588L97.4468 14.8874L120.756 6.63037L114.845 33.9385L112.982 23.9524Z" fill="#C4CFDE"/>
</svg>
