<svg width="90" height="91" viewBox="0 0 90 91" fill="none" xmlns="http://www.w3.org/2000/svg">
<path d="M19.3742 36.2117H21.2546V38.0921V67.0399L29.7593 58.5352V27.7134H0.00743928L0.00195312 88.2926L8.50667 79.7879V38.0921V36.2117H10.3871H19.3742Z" fill="#C4CFDE"/>
<path d="M52.8896 69.7317H54.7691V71.6121V80.5992V82.4797H52.8896H15.5184L7.01367 90.9843L63.2683 90.9789V61.2261H36.771L28.2654 69.7317H52.8896Z" fill="#C4CFDE"/>
<path d="M81.5013 34.8284V36.7079H79.6209H61.2902L52.791 45.2062H89.9996V7.99854L81.5013 16.4968V34.8284Z" fill="#C4CFDE"/>
<path d="M78.8112 9.48269L87.3105 0.984375H45.7773V42.5166L54.2757 34.0183V11.3631V9.48269H56.1561H78.8112Z" fill="#C4CFDE"/>
</svg>
