<svg width="80" height="81" viewBox="0 0 80 81" fill="none" xmlns="http://www.w3.org/2000/svg">
<path fill-rule="evenodd" clip-rule="evenodd" d="M34.6645 0.274902C40.3189 0.274902 45.539 2.47055 49.7353 6.18767C46.1595 3.60026 41.9478 2.11524 37.4413 2.11524C24.457 2.11524 13.9237 14.4874 13.9237 29.7385C13.9237 35.4144 15.382 40.6894 17.8795 45.0807C16.0723 44.8348 14.0944 44.3428 12.45 43.4226C10.6195 39.332 9.58789 34.6856 9.58789 29.7476C9.58789 13.467 20.8192 0.274902 34.6645 0.274902ZM24.3174 52.6607C28.0638 55.6308 32.578 57.3618 37.4413 57.3618C41.9478 57.3618 46.1595 55.8677 49.7353 53.2894C45.539 56.9974 40.3189 59.2021 34.6645 59.2021C28.5291 59.2021 22.9057 56.6147 18.5466 52.3145C18.8568 52.3601 19.1593 52.3965 19.4463 52.433C21.0442 52.597 22.6653 52.679 24.3174 52.6607Z" fill="#EB5939"/>
<path fill-rule="evenodd" clip-rule="evenodd" d="M37.4325 56.4503C33.1432 56.4503 29.1331 55.0564 25.7047 52.633C25.8754 52.6239 26.0383 52.6239 26.2089 52.6148C28.8694 54.0178 31.8168 54.7922 34.9194 54.7922C41.1788 54.7922 46.81 51.6217 50.7115 46.5744C52.8445 45.6269 54.9465 44.5519 57.002 43.3584C53.0385 51.1935 45.7552 56.4503 37.4325 56.4503ZM56.1023 32.699C56.2031 31.7242 56.2496 30.7403 56.2496 29.7381C56.2496 15.8991 46.6937 4.684 34.9194 4.684C30.8317 4.684 27.0156 6.03237 23.7656 8.3829C27.574 5.0211 32.3055 3.02588 37.4325 3.02588C49.9514 3.02588 60.1046 14.9061 60.1744 29.5832C60.0037 29.7199 59.8331 29.8656 59.6625 30.0023C58.499 30.9225 57.3123 31.8335 56.1023 32.699Z" fill="#EB5939"/>
<path fill-rule="evenodd" clip-rule="evenodd" d="M74.9106 25.4016C69.7215 32.772 59.165 41.8279 45.9558 46.5745C26.1613 53.699 8.56194 51.7129 6.6461 42.1559C6.21174 39.9785 6.62283 37.6006 7.75527 35.1408C7.39072 36.6531 7.32091 38.1017 7.57687 39.4501C9.32207 48.5606 25.3159 49.7086 43.3031 42.0101C54.9765 37.0175 65.6261 27.9616 71.4202 20.8736L64.7341 19.6163L79.9988 14.3413L76.1284 31.7698L74.9106 25.4016Z" fill="#EB5939"/>
<path fill-rule="evenodd" clip-rule="evenodd" d="M19.7168 27.7983H29.1874V44.4798C26.2943 45.0173 23.4089 45.2998 20.6243 45.2178C20.3373 45.2087 20.0348 45.1995 19.7246 45.1722V27.7983H19.7168Z" fill="#EB5939"/>
<path fill-rule="evenodd" clip-rule="evenodd" d="M43.3047 19.4712H52.7753V34.9227C49.6107 36.9453 46.3995 38.6763 43.3047 40.0338V19.4712Z" fill="#EB5939"/>
<path fill-rule="evenodd" clip-rule="evenodd" d="M4.39015 66.5085V67.9845H1.42719V69.6061H4.24278V71.0821H1.42719V74.0248H0V66.5085H4.39015ZM5.60015 66.5085H7.02734V74.0248H5.60015V66.5085ZM13.0774 66.5085H14.5046V74.0248H13.0774L10.0291 69.3146V74.0248H8.6019V66.5085H9.93601L13.0774 71.3463V66.5085ZM20.6399 74.0248L20.0427 72.4031H17.3589L16.7617 74.0248H15.2414L18.0027 66.5085H19.3911L22.1524 74.0248H20.6399ZM18.7086 68.7406L17.9019 70.9272H19.4997L18.7086 68.7406ZM27.3725 66.5085H28.7997V74.0248H27.3725L24.3242 69.3146V74.0248H22.897V66.5085H24.2311L27.3725 71.3463V66.5085ZM33.3139 72.5398C34.012 72.5398 34.586 72.2118 35.0359 71.5649L35.9511 72.6764C35.222 73.633 34.3688 74.1159 33.3837 74.1159C32.3987 74.1159 31.5843 73.7515 30.9482 73.0226C30.3122 72.2938 29.9942 71.3645 29.9942 70.253C29.9942 69.1415 30.32 68.2122 30.9715 67.4652C31.623 66.7181 32.4142 66.3446 33.3527 66.3446C34.3998 66.3446 35.2841 66.8183 35.9899 67.7567L35.1057 68.9411C34.6558 68.2851 34.0896 67.948 33.4225 67.948C32.8873 67.948 32.4297 68.1576 32.0419 68.5675C31.6618 68.9775 31.4679 69.5333 31.4679 70.2348C31.4679 70.9363 31.6463 71.492 32.0109 71.9202C32.3677 72.3302 32.802 72.5398 33.3139 72.5398ZM41.6909 66.5085V68.0027H38.503V69.5515H41.3651V70.9818H38.503V72.5398H41.7917V74.0248H37.0758V66.5085H41.6909ZM45.4761 74.0248V66.5085H46.9032V72.5306H49.6335V74.0248H45.4761ZM55.4043 70.2257C55.4043 69.5515 55.2181 68.9866 54.8536 68.5129C54.489 68.0391 54.0392 67.8023 53.504 67.8023C52.9688 67.8023 52.5189 68.0391 52.1543 68.5129C51.7898 68.9866 51.6036 69.5606 51.6036 70.2257C51.6036 70.8998 51.7898 71.4647 52.1543 71.9385C52.5189 72.4031 52.9688 72.64 53.504 72.64C54.0392 72.64 54.489 72.4031 54.8536 71.9385C55.2181 71.4647 55.4043 70.8907 55.4043 70.2257ZM55.8852 72.9862C55.2414 73.7241 54.4425 74.0977 53.4962 74.0977C52.5499 74.0977 51.751 73.7241 51.1072 72.9862C50.4634 72.2482 50.1377 71.3189 50.1377 70.2166C50.1377 69.1142 50.4634 68.194 51.1072 67.4469C51.751 66.709 52.5499 66.3354 53.4962 66.3354C54.4425 66.3354 55.2414 66.709 55.8852 67.4469C56.529 68.1849 56.8548 69.1142 56.8548 70.2166C56.8548 71.3189 56.529 72.2391 55.8852 72.9862ZM62.2222 70.1983H63.6572V72.8677C63.0211 73.6968 62.1447 74.1159 61.02 74.1159C60.0814 74.1159 59.2903 73.7515 58.6543 73.0226C58.0182 72.2938 57.7002 71.3645 57.7002 70.253C57.7002 69.1415 58.026 68.2122 58.6775 67.4652C59.3291 66.7181 60.1125 66.3446 61.0277 66.3446C61.943 66.3446 62.7419 66.6999 63.4245 67.4105L62.6798 68.6678C62.3929 68.3762 62.1291 68.1758 61.8887 68.0573C61.6482 67.948 61.3845 67.8934 61.1053 67.8934C60.5623 67.8934 60.1047 68.112 59.7324 68.5402C59.3601 68.9775 59.1739 69.5424 59.1739 70.253C59.1739 70.9636 59.3523 71.5285 59.7091 71.9567C60.0659 72.3849 60.4925 72.5944 60.9889 72.5944C61.4854 72.5944 61.8964 72.4851 62.2222 72.2573V70.1983ZM69.8235 70.2257C69.8235 69.5515 69.6374 68.9866 69.2728 68.5129C68.9083 68.0391 68.4584 67.8023 67.9232 67.8023C67.388 67.8023 66.9381 68.0391 66.5736 68.5129C66.209 68.9866 66.0229 69.5606 66.0229 70.2257C66.0229 70.8998 66.209 71.4647 66.5736 71.9385C66.9381 72.4031 67.388 72.64 67.9232 72.64C68.4584 72.64 68.9083 72.4031 69.2728 71.9385C69.6451 71.4647 69.8235 70.8907 69.8235 70.2257ZM70.3122 72.9862C69.6684 73.7241 68.8695 74.0977 67.9232 74.0977C66.9769 74.0977 66.178 73.7241 65.5342 72.9862C64.8904 72.2482 64.5647 71.3189 64.5647 70.2166C64.5647 69.1142 64.8904 68.194 65.5342 67.4469C66.178 66.709 66.9769 66.3354 67.9232 66.3354C68.8695 66.3354 69.6684 66.709 70.3122 67.4469C70.956 68.1849 71.2818 69.1142 71.2818 70.2166C71.2818 71.3189 70.956 72.2391 70.3122 72.9862Z" fill="white"/>
<path fill-rule="evenodd" clip-rule="evenodd" d="M6.55471 77.3867C6.41509 77.3867 6.3065 77.4231 6.22118 77.4869C6.13586 77.5506 6.08932 77.6509 6.08932 77.7875C6.08932 77.9242 6.13586 78.0244 6.22118 78.0882C6.3065 78.1611 6.49266 78.2339 6.77965 78.3159C7.06663 78.3979 7.28381 78.5073 7.42343 78.6621C7.5708 78.8079 7.64061 79.0266 7.64061 79.309C7.64061 79.5914 7.54753 79.8283 7.36138 80.0014C7.17522 80.1836 6.93478 80.2656 6.64003 80.2656C6.20567 80.2656 5.81785 80.0925 5.47656 79.7372L5.77131 79.3181C6.05054 79.6096 6.34528 79.7463 6.64779 79.7463C6.80291 79.7463 6.91926 79.7099 7.01234 79.6279C7.09766 79.555 7.1442 79.4456 7.1442 79.3272C7.1442 79.2088 7.10542 79.0994 7.0201 79.0357C6.93477 78.9628 6.79516 78.899 6.58573 78.8443C6.38407 78.7897 6.22894 78.735 6.12035 78.6895C6.01176 78.6439 5.91868 78.5801 5.83336 78.4981C5.67047 78.3524 5.58515 78.1246 5.58515 77.824C5.58515 77.5233 5.67823 77.2864 5.86438 77.1224C6.05054 76.9585 6.28323 76.8765 6.56247 76.8765C6.74086 76.8765 6.91926 76.9129 7.0899 76.9767C7.2683 77.0496 7.41567 77.1407 7.54753 77.2682L7.29933 77.6873C7.21401 77.5962 7.10542 77.5324 6.9658 77.4687C6.83394 77.414 6.69432 77.3867 6.55471 77.3867ZM11.674 80.2292V76.9494H12.1471V79.7007H13.4192V80.2292H11.674ZM19.2908 77.7329C19.0969 77.5051 18.8642 77.3867 18.5927 77.3867C18.3212 77.3867 18.0808 77.5051 17.8946 77.7329C17.7007 77.9606 17.6076 78.2431 17.6076 78.571C17.6076 78.899 17.7007 79.1814 17.8946 79.4092C18.0885 79.637 18.3212 79.7554 18.5927 79.7554C18.8642 79.7554 19.1046 79.637 19.2908 79.4092C19.4847 79.1814 19.5778 78.899 19.5778 78.571C19.5778 78.2431 19.477 77.9606 19.2908 77.7329ZM19.6321 79.7827C19.3528 80.1016 19.0038 80.2656 18.585 80.2656C18.1661 80.2656 17.8248 80.1016 17.5378 79.7827C17.2586 79.4548 17.1112 79.0539 17.1112 78.571C17.1112 78.0882 17.2509 77.6873 17.5378 77.3593C17.8171 77.0313 18.1661 76.8765 18.585 76.8765C19.0038 76.8765 19.3451 77.0405 19.6321 77.3593C19.9113 77.6873 20.0587 78.0882 20.0587 78.571C20.0587 79.0539 19.9191 79.4548 19.6321 79.7827ZM26.0312 78.6439H26.5043V79.7645C26.2406 80.1016 25.8605 80.2747 25.3719 80.2747C24.9608 80.2747 24.6117 80.1107 24.3325 79.801C24.0533 79.4821 23.9136 79.0812 23.9136 78.5893C23.9136 78.0973 24.0533 77.6964 24.3402 77.3684C24.6272 77.0405 24.9685 76.8765 25.3719 76.8765C25.7752 76.8765 26.1087 77.0131 26.3724 77.2864L26.1242 77.7146C26.0156 77.6053 25.907 77.5324 25.7985 77.4869C25.6899 77.4413 25.558 77.4231 25.4106 77.4231C25.1314 77.4231 24.891 77.5324 24.697 77.742C24.5031 77.9606 24.4101 78.2339 24.4101 78.5893C24.4101 78.9355 24.5031 79.2179 24.6893 79.4274C24.8754 79.637 25.1004 79.7463 25.3641 79.7463C25.6278 79.7463 25.8528 79.6825 26.0312 79.5459V78.6439ZM30.9332 79.4912L30.654 80.2383H30.1498L31.3753 76.9585H31.8795L33.105 80.2383H32.6009L32.3216 79.4912H30.9332ZM32.1432 78.981L31.6391 77.6326L31.1349 78.981H32.1432ZM39.0387 76.9585H39.5119V80.2383H38.9999L37.4176 77.8513V80.2383H36.9445V76.9585H37.4176L39.0387 79.4092V76.9585ZM44.825 80.2292V76.9494H45.2982V78.3706H46.6866V76.9494H47.1597V80.2292H46.6866V78.8899H45.2982V80.2292H44.825ZM53.3338 76.9585V77.4778H51.8446V78.3433H53.1787V78.8352H51.8446V79.7099H53.3804V80.2292H51.3715V76.9494H53.3338V76.9585ZM59.6631 78.0244C59.6631 78.5619 59.4614 78.9081 59.0581 79.0448L59.7872 80.2383H59.19L58.5229 79.1359H57.9024V80.2383H57.4293V76.9585H58.4686C58.8952 76.9585 59.1977 77.0405 59.3839 77.2136C59.57 77.3775 59.6631 77.6509 59.6631 78.0244ZM58.4919 78.6257C58.7556 78.6257 58.9418 78.5801 59.0348 78.4799C59.1279 78.3797 59.1822 78.2248 59.1822 78.0153C59.1822 77.7966 59.1357 77.6509 59.0348 77.578C58.934 77.496 58.7634 77.4595 58.5074 77.4595H57.9102V78.6257H58.4919ZM65.7519 76.9585V77.4778H64.2627V78.3433H65.5968V78.8352H64.2627V79.7099H65.7985V80.2292H63.7895V76.9494H65.7519V76.9585Z" fill="white"/>
<path fill-rule="evenodd" clip-rule="evenodd" d="M31.2969 23.0151H40.7675V41.0723C37.7502 42.2567 34.5391 43.2953 31.2969 44.0332V23.0151Z" fill="#EB5939"/>
</svg>
