<svg width="133" height="93" viewBox="0 0 133 93" fill="none" xmlns="http://www.w3.org/2000/svg">
<path d="M37.9248 92.9841L37.918 92.9706L34.4486 86.9623L6.93981 39.3169H0L30.9783 92.9731L30.9715 92.9841H30.985H37.9096H37.9248Z" fill="#C4CFDE"/>
<path d="M65.6734 92.9841L65.6666 92.9706L62.1972 86.9623L58.7294 80.9556L55.2599 74.9481L51.7921 68.9389L48.3226 62.9305L34.6884 39.3169H27.752L44.8523 68.9389L48.3226 74.9481L51.7921 80.9556L55.2599 86.9623L58.7294 92.9706L58.7209 92.9841H58.7361H65.6582H65.6734Z" fill="#C4CFDE"/>
<path d="M76.0722 86.9623L72.6044 80.9556L69.1349 74.9481L65.6671 68.9389L62.1976 62.9305L58.7298 56.9239L55.2604 50.9155L48.5642 39.3169H41.627L51.7901 56.9222L58.7298 68.9389L62.1976 74.9481L65.6671 80.9556L69.1349 86.9623L72.6044 92.9706L72.5959 92.9841H72.6111H79.5357H79.5483L79.5416 92.9731L76.0722 86.9623Z" fill="#C4CFDE"/>
<path d="M91.0249 0.983887H84.0859L58.7637 44.8462L62.2332 50.8546L91.0249 0.983887Z" fill="#C4CFDE"/>
<path d="M44.86 92.9841H51.7821H51.7973L51.7905 92.9706L48.321 86.9623L44.8532 80.9556L41.3838 74.9481L20.8131 39.3169H13.875L37.9135 80.9539L41.3838 86.9623L44.8532 92.9706L44.8449 92.9841H44.86Z" fill="#C4CFDE"/>
<path d="M69.1706 62.8696L104.9 0.983887H97.9632L65.7012 56.8612L65.7382 56.9245L69.1706 62.8696Z" fill="#C4CFDE"/>
<path d="M76.1101 74.8863L118.777 0.983887H111.84L72.6406 68.8763L72.6777 68.9395L76.1101 74.8863Z" fill="#C4CFDE"/>
<path d="M132.65 0.983887H125.713L79.5762 80.893L79.6133 80.9562L83.0465 86.9022L132.65 0.983887Z" fill="#C4CFDE"/>
</svg>
