<svg width="80" height="81" viewBox="0 0 80 81" fill="none" xmlns="http://www.w3.org/2000/svg">
<path fill-rule="evenodd" clip-rule="evenodd" d="M33.8257 23.3843C32.129 27.1702 30.2337 30.8451 28.0984 34.3686C33.8422 33.8335 39.8095 31.9254 45.0237 29.6134C46.1244 29.1288 47.2335 28.5837 48.3591 27.988C44.585 26.09 39.8592 24.4847 33.8257 23.3843ZM23.8112 40.7694C21.7421 44.5554 15.4189 52.622 5.4375 57.458C15.7417 55.3378 26.3686 47.039 31.9304 40.6685C29.1826 40.9511 26.4431 41.0117 23.8112 40.7694ZM50.8917 35.5902C51.8517 35.9739 52.7621 36.3878 53.6146 36.8219C57.728 38.8916 60.5834 42.1627 65.0278 46.726C62.8842 42.7482 60.782 37.67 55.8824 33.1268C54.2105 34.0556 52.5387 34.8734 50.8917 35.5902ZM44.2209 0.274717C46.9852 0.14347 49.3191 2.7785 49.4185 6.16063C49.5261 9.53267 47.3659 12.3797 44.5933 12.5009C41.829 12.6321 39.495 9.99708 39.3957 6.61495C39.2881 3.24292 41.4483 0.405964 44.2209 0.274717ZM12.4973 22.1828C40.3061 -11.2346 39.2053 32.7936 61.0468 16.7916C41.2165 41.143 40.0826 0.51702 12.4973 22.1828Z" fill="#EB5939"/>
<path fill-rule="evenodd" clip-rule="evenodd" d="M75.2001 14.6212C70.3087 21.8397 60.3604 30.7039 47.9044 35.3582C29.2493 42.3344 12.6468 40.396 10.8426 31.027C10.4287 28.8968 10.826 26.5646 11.8854 24.1618C11.5461 25.6459 11.4798 27.0593 11.7199 28.3819C13.3586 37.3067 28.4465 38.4273 45.4049 30.8857C56.4043 25.9993 66.4519 17.1249 71.9143 10.1891L65.6077 8.95735L80.0004 3.79834L76.3505 20.8604L75.2001 14.6212Z" fill="#EB5939"/>
<path fill-rule="evenodd" clip-rule="evenodd" d="M4.85827 64.454V66.1501H1.5808V68.0179H4.70101V69.714H1.5808V73.0961H0V64.4641H4.85827V64.454ZM6.19905 64.454H7.77985V73.086H6.19905V64.454ZM14.4672 64.454H16.048V73.086H14.4672L11.0987 67.6746V73.086H9.5179V64.454H10.9994L14.4755 70.0169V64.454H14.4672ZM22.8347 73.0961L22.1726 71.2284H19.2096L18.5475 73.0961H16.8674L19.9297 64.4641H21.4608L24.5148 73.0961H22.8347ZM20.6994 67.0285L19.8055 69.5323H21.5767L20.6994 67.0285ZM30.2835 64.454H31.8643V73.086H30.2835L26.915 67.6746V73.086H25.3342V64.454H26.8156L30.2917 70.0169V64.454H30.2835ZM36.8632 71.3899C37.6412 71.3899 38.2702 71.0164 38.7668 70.2693L39.7765 71.5414C38.9737 72.6418 38.0302 73.1971 36.9377 73.1971C35.8452 73.1971 34.9514 72.7731 34.2479 71.9351C33.5444 71.0971 33.1885 70.0371 33.1885 68.7549C33.1885 67.4727 33.5444 66.4025 34.2644 65.5545C34.9845 64.6963 35.8618 64.2723 36.9046 64.2723C38.0633 64.2723 39.0399 64.8074 39.8179 65.8876L38.833 67.2506C38.3364 66.4934 37.7157 66.1098 36.9708 66.1098C36.3749 66.1098 35.8701 66.342 35.448 66.8165C35.0259 67.291 34.819 67.927 34.819 68.7347C34.819 69.5424 35.0176 70.1784 35.4149 70.663C35.8121 71.1476 36.2922 71.3899 36.8632 71.3899ZM46.1246 64.454V66.1703H42.5988V67.9472H45.7687V69.5929H42.5988V71.3798H46.2322V73.086H41.018V64.454H46.1246ZM50.3207 73.0961V64.4641H51.9015V71.3798H54.9224V73.0961H50.3207ZM61.2953 68.7246C61.2953 67.9573 61.0966 67.3011 60.6911 66.7559C60.2855 66.2107 59.7889 65.9381 59.2013 65.9381C58.6137 65.9381 58.1088 66.2107 57.7116 66.7559C57.306 67.3011 57.1074 67.9573 57.1074 68.7246C57.1074 69.4919 57.306 70.1481 57.7116 70.6933C58.1171 71.2284 58.6137 71.501 59.2013 71.501C59.7889 71.501 60.2938 71.2284 60.6911 70.6933C61.0884 70.1481 61.2953 69.4919 61.2953 68.7246ZM61.8332 71.9048C61.1215 72.7529 60.2359 73.187 59.193 73.187C58.1502 73.187 57.2646 72.763 56.5529 71.9048C55.8411 71.0568 55.4769 69.9967 55.4769 68.7246C55.4769 67.4525 55.8328 66.3924 56.5529 65.5444C57.2646 64.6963 58.1502 64.2622 59.193 64.2622C60.2359 64.2622 61.1215 64.6862 61.8332 65.5444C62.545 66.3924 62.9092 67.4525 62.9092 68.7246C62.9009 69.9866 62.545 71.0467 61.8332 71.9048ZM68.8351 68.6943H70.4242V71.7534C69.7207 72.7125 68.7523 73.187 67.5109 73.187C66.468 73.187 65.599 72.763 64.8955 71.925C64.192 71.087 63.8361 70.027 63.8361 68.7448C63.8361 67.4626 64.192 66.3924 64.9121 65.5444C65.6321 64.6862 66.5011 64.2622 67.5109 64.2622C68.5289 64.2622 69.4062 64.666 70.1593 65.4838L69.34 66.9275C69.0254 66.5944 68.7275 66.3622 68.4627 66.2309C68.1978 66.0997 67.9081 66.0391 67.5936 66.0391C66.9894 66.0391 66.4846 66.2915 66.0708 66.7862C65.6569 67.2809 65.45 67.9371 65.45 68.7549C65.45 69.5727 65.6487 70.2188 66.0459 70.7135C66.4432 71.2082 66.915 71.4505 67.4612 71.4505C68.0074 71.4505 68.4627 71.3193 68.8268 71.0669V68.6943H68.8351ZM77.2522 68.7246C77.2522 67.9573 77.0536 67.3011 76.648 66.7559C76.2425 66.2107 75.7459 65.9381 75.1583 65.9381C74.5707 65.9381 74.0658 66.2107 73.6685 66.7559C73.263 67.3011 73.0643 67.9573 73.0643 68.7246C73.0643 69.4919 73.2713 70.1481 73.6685 70.6933C74.0741 71.2284 74.5707 71.501 75.1583 71.501C75.7459 71.501 76.2508 71.2284 76.648 70.6933C77.0536 70.1481 77.2522 69.4919 77.2522 68.7246ZM77.7902 71.9048C77.0784 72.7529 76.1928 73.187 75.15 73.187C74.1072 73.187 73.2216 72.763 72.5098 71.9048C71.7981 71.0568 71.4339 69.9967 71.4339 68.7246C71.4339 67.4525 71.7898 66.3924 72.5098 65.5444C73.2216 64.6963 74.1072 64.2622 75.15 64.2622C76.1928 64.2622 77.0784 64.6862 77.7902 65.5444C78.502 66.3924 78.8661 67.4525 78.8661 68.7246C78.8661 69.9866 78.502 71.0467 77.7902 71.9048Z" fill="white"/>
<path fill-rule="evenodd" clip-rule="evenodd" d="M7.2504 76.9633C7.10142 76.9633 6.97728 77.0037 6.87796 77.0744C6.77864 77.1451 6.72898 77.2662 6.72898 77.4177C6.72898 77.5691 6.77864 77.6902 6.87796 77.771C6.97728 77.8518 7.18419 77.9426 7.49869 78.0335C7.8132 78.1244 8.05321 78.2556 8.21047 78.4272C8.36772 78.5989 8.45048 78.8412 8.45048 79.1743C8.45048 79.5075 8.35117 79.77 8.14425 79.9719C7.93734 80.1738 7.6725 80.2748 7.34144 80.2748C6.86141 80.2748 6.43103 80.0729 6.05859 79.669L6.38137 79.1945C6.69588 79.5277 7.01866 79.6892 7.34972 79.6892C7.51525 79.6892 7.64767 79.6488 7.74699 79.558C7.8463 79.4671 7.89596 79.3561 7.89596 79.2046C7.89596 79.0532 7.8463 78.9421 7.75526 78.8614C7.66422 78.7806 7.49869 78.7099 7.27523 78.6393C7.05177 78.5686 6.87796 78.508 6.76209 78.4575C6.64622 78.397 6.53863 78.3263 6.44759 78.2354C6.2655 78.0638 6.17446 77.8114 6.17446 77.458C6.17446 77.1148 6.28206 76.8422 6.48897 76.6504C6.69588 76.4585 6.95245 76.3677 7.25868 76.3677C7.45731 76.3677 7.65594 76.4081 7.8463 76.4888C8.03666 76.5696 8.21047 76.6806 8.35117 76.822L8.08632 77.3066C7.99528 77.2056 7.87113 77.1249 7.71388 77.0643C7.55663 76.9936 7.39938 76.9633 7.2504 76.9633ZM12.9115 80.2344V76.4686H13.4329V79.6287H14.8399V80.2344H12.9115ZM21.3452 77.3571C21.1383 77.0946 20.8734 76.9633 20.5672 76.9633C20.261 76.9633 20.0044 77.0946 19.7892 77.3571C19.5823 77.6196 19.4747 77.9426 19.4747 78.3263C19.4747 78.7099 19.5823 79.0229 19.7892 79.2955C19.9961 79.558 20.261 79.6993 20.5672 79.6993C20.8734 79.6993 21.13 79.5681 21.3452 79.2955C21.5521 79.033 21.6597 78.7099 21.6597 78.3263C21.6597 77.9426 21.5521 77.6196 21.3452 77.3571ZM21.7259 79.7094C21.4114 80.083 21.0307 80.2647 20.5672 80.2647C20.112 80.2647 19.723 80.083 19.4085 79.7094C19.094 79.3359 18.9367 78.8715 18.9367 78.3162C18.9367 77.7609 19.094 77.2965 19.4085 76.9229C19.723 76.5494 20.1037 76.3677 20.5672 76.3677C21.0224 76.3677 21.4114 76.5494 21.7259 76.9229C22.0404 77.2965 22.1976 77.7609 22.1976 78.3162C22.1976 78.8715 22.0321 79.3359 21.7259 79.7094ZM28.8022 78.3969H29.3236V79.6892C29.034 80.083 28.6119 80.2748 28.0739 80.2748C27.6187 80.2748 27.238 80.0931 26.9318 79.7296C26.6255 79.3662 26.4683 78.9017 26.4683 78.3364C26.4683 77.7811 26.6255 77.3066 26.94 76.933C27.2545 76.5595 27.6353 76.3778 28.0739 76.3778C28.5208 76.3778 28.885 76.5393 29.1829 76.8523L28.9015 77.3369C28.7774 77.2157 28.6615 77.1249 28.5374 77.0744C28.4132 77.0239 28.2725 77.0037 28.1153 77.0037C27.8008 77.0037 27.5442 77.1249 27.329 77.3773C27.1138 77.6196 27.0145 77.9426 27.0145 78.3465C27.0145 78.7503 27.1138 79.0633 27.3207 79.3157C27.5277 79.558 27.776 79.6791 28.0656 79.6791C28.3553 79.6791 28.6036 79.5984 28.8022 79.4469V78.3969ZM34.2233 79.3763L33.9171 80.2344H33.3625L34.7199 76.4686H35.2744L36.6317 80.2344H36.0855L35.7793 79.3763H34.2233ZM35.5641 78.7907L35.0013 77.2359L34.4385 78.7907H35.5641ZM43.1949 76.4686H43.7164V80.2344H43.1536L41.4072 77.4883V80.2344H40.8858V76.4686H41.4072L43.2032 79.2753V76.4686H43.1949ZM49.6009 80.2344V76.4686H50.1223V78.1042H51.6535V76.4686H52.1749V80.2344H51.6535V78.6897H50.1223V80.2344H49.6009ZM59.0112 76.4686V77.0643H57.3642V78.0638H58.8457V78.6292H57.3642V79.6387H59.0609V80.2344H56.8428V76.4686H59.0112ZM66.0048 77.6902C66.0048 78.3162 65.7813 78.6998 65.3344 78.8614L66.1455 80.2344H65.4834L64.7468 78.9724H64.0598V80.2344H63.5384V76.4686H64.6888C65.1606 76.4686 65.4999 76.5696 65.6986 76.7614C65.9055 76.9532 66.0048 77.2561 66.0048 77.6902ZM64.7137 78.3869C65.0116 78.3869 65.2103 78.3263 65.3178 78.2152C65.4254 78.1042 65.4751 77.9224 65.4751 77.6801C65.4751 77.4378 65.4172 77.2662 65.3096 77.1753C65.202 77.0845 65.0033 77.034 64.7302 77.034H64.0681V78.3768H64.7137V78.3869ZM72.7418 76.4686V77.0643H71.0948V78.0638H72.5763V78.6292H71.0948V79.6387H72.7915V80.2344H70.5734V76.4686H72.7418Z" fill="white"/>
</svg>
